<svg xmlns="http://www.w3.org/2000/svg" width="159.7777862548828" height="242.33692932128906" viewBox="0.9336147308349609 -20.637432098388672 159.7777862548828 242.33692932128906"><title>Neo4j Graph Visualization</title><desc>Created using Neo4j (http://www.neo4j.com/)</desc><g class="layer relationships"><g class="relationship" transform="translate(131.711392268626 8.36256882741071) rotate(519.6943274714015)"><path class="outline" fill="#A5ABB6" stroke="none" d="M 21.40063509461097,12.933012701892217 L 21.90063509461097,12.06698729810778 A 59.94839768389769 59.94839768389769 0 0 0 38.24665216556567,18.52894134206378 L 38.01932028852612,19.5027586851429 A 60.94839768389769 60.94839768389769 0 0 1 21.40063509461097,12.933012701892217 Z M 62.04779374028517,20.243563182804827 L 61.88088271078631,19.25759122162559 A 59.94839768389769 59.94839768389769 0 0 0 78.59392461714775,13.81485713053241 L 77.2568201216377,11.12931220108386 L 85.08304686844605,11.142537462583721 L 80.37673061116115,17.395583703130477 L 79.0396261156511,14.710038773681926 A 60.94839768389769 60.94839768389769 0 0 1 62.04779374028517,20.243563182804827"/><text text-anchor="middle" pointer-events="none" font-size="8px" fill="#000000" x="50.01207814853816" y="23.5698418530282" transform="rotate(180 50.01207814853816 20.5698418530282)" font-family="sans-serif">road</text></g><g class="relationship" transform="translate(30.92711178019749 45.65515005660436) rotate(450.53338413156916)"><path class="outline" fill="#A5ABB6" stroke="none" d="M 25 0.5 L 38.96122224879151 0.5 L 38.96122224879151 -0.5 L 25 -0.5 Z M 60.76122243952637 0.5 L 74.72244468831788 0.5 L 74.72244468831788 3.5 L 81.72244468831788 0 L 74.72244468831788 -3.5 L 74.72244468831788 -0.5 L 60.76122243952637 -0.5 Z"/><text text-anchor="middle" pointer-events="none" font-size="8px" fill="#000000" x="49.86122234415894" y="3" transform="rotate(180 49.86122234415894 0)" font-family="sans-serif">trek</text></g><g class="relationship" transform="translate(29.933613886243506 152.37297032194607) rotate(382.04790864110356)"><path class="outline" fill="#A5ABB6" stroke="none" d="M 25 0.5 L 39.314013542991525 0.5 L 39.314013542991525 -0.5 L 25 -0.5 Z M 61.11401373372639 0.5 L 75.42802727671791 0.5 L 75.42802727671791 3.5 L 82.42802727671791 0 L 75.42802727671791 -3.5 L 75.42802727671791 -0.5 L 61.11401373372639 -0.5 Z"/><text text-anchor="middle" pointer-events="none" font-size="8px" fill="#000000" x="50.214013638358956" y="3" font-family="sans-serif">trek</text></g><g class="relationship" transform="translate(131.711392268626 8.36256882741071) rotate(519.6943274714015)"><path class="outline" fill="#A5ABB6" stroke="none" d="M 25 0.5 L 25.447961148884936 0.5 L 25.447961148884936 -0.5 L 25 -0.5 Z M 75.01462679829899 0.5 L 75.46258794718393 0.5 L 75.46258794718393 3.5 L 82.46258794718393 0 L 75.46258794718393 -3.5 L 75.46258794718393 -0.5 L 75.01462679829899 -0.5 Z"/><text text-anchor="middle" pointer-events="none" font-size="8px" fill="#000000" x="50.23129397359197" y="3" transform="rotate(180 50.23129397359197 0)" font-family="sans-serif">PublicTra…</text></g><g class="relationship" transform="translate(131.711392268626 8.36256882741071) rotate(519.6943274714015)"><path class="outline" fill="#A5ABB6" stroke="none" d="M 21.40063509461097,-12.933012701892217 L 21.90063509461097,-12.06698729810778 A 59.94839768389769 59.94839768389769 0 0 1 39.311188455429715,-18.767258680958967 L 39.10161412206092,-19.74505139866197 A 60.94839768389769 60.94839768389769 0 0 0 21.40063509461097,-12.933012701892217 Z M 60.95262969046706,-20.418724266147898 L 60.803687370424655,-19.429878380632672 A 59.94839768389769 59.94839768389769 0 0 1 78.59392461714775,-13.81485713053241 L 77.2568201216377,-11.12931220108386 L 85.08304686844605,-11.142537462583721 L 80.37673061116115,-17.395583703130477 L 79.0396261156511,-14.710038773681926 A 60.94839768389769 60.94839768389769 0 0 0 60.95262969046706,-20.418724266147898"/><text text-anchor="middle" pointer-events="none" font-size="8px" fill="#000000" x="50.01207814853816" y="-17.5698418530282" transform="rotate(180 50.01207814853816 -20.5698418530282)" font-family="sans-serif">trek</text></g></g><g class="layer nodes"><g class="node" transform="translate(131.711392268626,8.36256882741071)"><circle class="outline" cx="0" cy="0" r="25" fill="#F16667" stroke="#eb2728" stroke-width="2px"/><text text-anchor="middle" pointer-events="none" font-family="sans-serif" dy="1.5625" font-size="25" fill="#FFFFFF"/><text text-anchor="middle" pointer-events="none" x="0" y="5" font-size="10px" fill="#FFFFFF" font-family="sans-serif"> Darjeeli…</text></g><g class="node" transform="translate(129.50546155288097,192.69949009267748)"><circle class="outline" cx="0" cy="0" r="25" fill="#D9C8AE" stroke="#c0a378" stroke-width="2px"/><text text-anchor="middle" pointer-events="none" font-family="sans-serif" dy="1.5625" font-size="25" fill="#2A2C34"/><text text-anchor="middle" pointer-events="none" x="0" y="5" font-size="10px" fill="#2A2C34" font-family="sans-serif"> Sandak…</text></g><g class="node" transform="translate(30.92711178019749,45.65515005660436)"><circle class="outline" cx="0" cy="0" r="25" fill="#F16667" stroke="#eb2728" stroke-width="2px"/><text text-anchor="middle" pointer-events="none" font-family="sans-serif" dy="1.5625" font-size="25" fill="#FFFFFF"/><text text-anchor="middle" pointer-events="none" x="0" y="5" font-size="10px" fill="#FFFFFF" font-family="sans-serif"> Rimbik</text></g><g class="node" transform="translate(29.933613886243506,152.37297032194607)"><circle class="outline" cx="0" cy="0" r="25" fill="#8DCC93" stroke="#5db665" stroke-width="2px"/><text text-anchor="middle" pointer-events="none" font-family="sans-serif" dy="1.5625" font-size="25" fill="#2A2C34"/><text text-anchor="middle" pointer-events="none" x="0" y="5" font-size="10px" fill="#2A2C34" font-family="sans-serif"> BhikeB…</text></g></g></svg>