<svg xmlns="http://www.w3.org/2000/svg" width="654.5989379882812" height="634.866455078125" viewBox="-247.58384704589844 -211.74781799316406 654.5989379882812 634.866455078125"><title>Neo4j Graph Visualization</title><desc>Created using Neo4j (http://www.neo4j.com/)</desc><g class="layer relationships"><g class="relationship" transform="translate(152.26198141789766 297.5915913633718) rotate(244.70242445211727)"><path class="outline" fill="#A5ABB6" stroke="none" d="M 25 0.5 L 78.22563421962022 0.5 L 78.22563421962022 -0.5 L 25 -0.5 Z M 113.00896704432725 0.5 L 166.23460126394747 0.5 L 166.23460126394747 3.5 L 173.23460126394747 0 L 166.23460126394747 -3.5 L 166.23460126394747 -0.5 L 113.00896704432725 -0.5 Z"/><text text-anchor="middle" pointer-events="none" font-size="8px" fill="#000000" x="95.61730063197373" y="3" transform="rotate(180 95.61730063197373 0)" font-family="sans-serif">ORIGIN</text></g><g class="relationship" transform="translate(152.26198141789766 297.5915913633718) rotate(494.16737711758145)"><path class="outline" fill="#A5ABB6" stroke="none" d="M 25 0.5 L 33.82596871447974 0.5 L 33.82596871447974 -0.5 L 25 -0.5 Z M 93.74263665271216 0.5 L 102.5686053671919 0.5 L 102.5686053671919 3.5 L 109.5686053671919 0 L 102.5686053671919 -3.5 L 102.5686053671919 -0.5 L 93.74263665271216 -0.5 Z"/><text text-anchor="middle" pointer-events="none" font-size="8px" fill="#000000" x="63.78430268359595" y="3" transform="rotate(180 63.78430268359595 0)" font-family="sans-serif">DESTINATION</text></g><g class="relationship" transform="translate(220.23076956075317 94.72888732198757) rotate(531.1989654200329)"><path class="outline" fill="#A5ABB6" stroke="none" d="M 25 0.5 L 56.35704944085161 0.5 L 56.35704944085161 -0.5 L 25 -0.5 Z M 91.14038226555864 0.5 L 122.49743170641025 0.5 L 122.49743170641025 3.5 L 129.49743170641025 0 L 122.49743170641025 -3.5 L 122.49743170641025 -0.5 L 91.14038226555864 -0.5 Z"/><text text-anchor="middle" pointer-events="none" font-size="8px" fill="#000000" x="73.74871585320513" y="3" transform="rotate(180 73.74871585320513 0)" font-family="sans-serif">ORIGIN</text></g><g class="relationship" transform="translate(220.23076956075317 94.72888732198757) rotate(352.5269855173831)"><path class="outline" fill="#A5ABB6" stroke="none" d="M 25 0.5 L 46.10967214219015 0.5 L 46.10967214219015 -0.5 L 25 -0.5 Z M 106.02634008042257 0.5 L 127.13601222261272 0.5 L 127.13601222261272 3.5 L 134.13601222261272 0 L 127.13601222261272 -3.5 L 127.13601222261272 -0.5 L 106.02634008042257 -0.5 Z"/><text text-anchor="middle" pointer-events="none" font-size="8px" fill="#000000" x="76.06800611130636" y="3" font-family="sans-serif">DESTINATION</text></g><g class="relationship" transform="translate(50.338214037906205 -56.27914659026009) rotate(444.3707644581367)"><path class="outline" fill="#A5ABB6" stroke="none" d="M 25 0.5 L 66.85484787046207 0.5 L 66.85484787046207 -0.5 L 25 -0.5 Z M 101.6381806951691 0.5 L 143.49302856563116 0.5 L 143.49302856563116 3.5 L 150.49302856563116 0 L 143.49302856563116 -3.5 L 143.49302856563116 -0.5 L 101.6381806951691 -0.5 Z"/><text text-anchor="middle" pointer-events="none" font-size="8px" fill="#000000" x="84.24651428281558" y="3" font-family="sans-serif">ORIGIN</text></g><g class="relationship" transform="translate(50.338214037906205 -56.27914659026009) rotate(221.84255650022806)"><path class="outline" fill="#A5ABB6" stroke="none" d="M 25 0.5 L 34.845902848612624 0.5 L 34.845902848612624 -0.5 L 25 -0.5 Z M 94.76257078684505 0.5 L 104.60847363545767 0.5 L 104.60847363545767 3.5 L 111.60847363545767 0 L 104.60847363545767 -3.5 L 104.60847363545767 -0.5 L 94.76257078684505 -0.5 Z"/><text text-anchor="middle" pointer-events="none" font-size="8px" fill="#000000" x="64.80423681772884" y="3" transform="rotate(180 64.80423681772884 0)" font-family="sans-serif">DESTINATION</text></g><g class="relationship" transform="translate(124.11646797827419 244.74849064636865) rotate(245.88825342908058)"><path class="outline" fill="#A5ABB6" stroke="none" d="M 25 0.5 L 48.33915594587013 0.5 L 48.33915594587013 -0.5 L 25 -0.5 Z M 83.12248877057716 0.5 L 106.4616447164473 0.5 L 106.4616447164473 3.5 L 113.4616447164473 0 L 106.4616447164473 -3.5 L 106.4616447164473 -0.5 L 83.12248877057716 -0.5 Z"/><text text-anchor="middle" pointer-events="none" font-size="8px" fill="#000000" x="65.73082235822365" y="3" transform="rotate(180 65.73082235822365 0)" font-family="sans-serif">ORIGIN</text></g><g class="relationship" transform="translate(124.11646797827419 244.74849064636865) rotate(473.71516533341367)"><path class="outline" fill="#A5ABB6" stroke="none" d="M 25 0.5 L 48.11512229991041 0.5 L 48.11512229991041 -0.5 L 25 -0.5 Z M 108.03179023814283 0.5 L 131.14691253805324 0.5 L 131.14691253805324 3.5 L 138.14691253805324 0 L 131.14691253805324 -3.5 L 131.14691253805324 -0.5 L 108.03179023814283 -0.5 Z"/><text text-anchor="middle" pointer-events="none" font-size="8px" fill="#000000" x="78.07345626902662" y="3" transform="rotate(180 78.07345626902662 0)" font-family="sans-serif">DESTINATION</text></g><g class="relationship" transform="translate(-27.479879113288572 291.34245158035986) rotate(298.7843744813781)"><path class="outline" fill="#A5ABB6" stroke="none" d="M 25 0.5 L 77.78894916098639 0.5 L 77.78894916098639 -0.5 L 25 -0.5 Z M 112.57228198569342 0.5 L 165.3612311466798 0.5 L 165.3612311466798 3.5 L 172.3612311466798 0 L 165.3612311466798 -3.5 L 165.3612311466798 -0.5 L 112.57228198569342 -0.5 Z"/><text text-anchor="middle" pointer-events="none" font-size="8px" fill="#000000" x="95.1806155733399" y="3" font-family="sans-serif">ORIGIN</text></g><g class="relationship" transform="translate(-27.479879113288572 291.34245158035986) rotate(410.0849018867613)"><path class="outline" fill="#A5ABB6" stroke="none" d="M 25 0.5 L 33.540834814699394 0.5 L 33.540834814699394 -0.5 L 25 -0.5 Z M 93.45750275293182 0.5 L 101.99833756763121 0.5 L 101.99833756763121 3.5 L 108.99833756763121 0 L 101.99833756763121 -3.5 L 101.99833756763121 -0.5 L 93.45750275293182 -0.5 Z"/><text text-anchor="middle" pointer-events="none" font-size="8px" fill="#000000" x="63.499168783815605" y="3" font-family="sans-serif">DESTINATION</text></g><g class="relationship" transform="translate(234.89091943761767 152.90588033886698) rotate(191.66197143229942)"><path class="outline" fill="#A5ABB6" stroke="none" d="M 25 0.5 L 64.54114181212654 0.5 L 64.54114181212654 -0.5 L 25 -0.5 Z M 99.32447463683357 0.5 L 138.8656164489601 0.5 L 138.8656164489601 3.5 L 145.8656164489601 0 L 138.8656164489601 -3.5 L 138.8656164489601 -0.5 L 99.32447463683357 -0.5 Z"/><text text-anchor="middle" pointer-events="none" font-size="8px" fill="#000000" x="81.93280822448006" y="3" transform="rotate(180 81.93280822448006 0)" font-family="sans-serif">ORIGIN</text></g><g class="relationship" transform="translate(234.89091943761767 152.90588033886698) rotate(397.293204247343)"><path class="outline" fill="#A5ABB6" stroke="none" d="M 25 0.5 L 37.59774119132028 0.5 L 37.59774119132028 -0.5 L 25 -0.5 Z M 97.5144091295527 0.5 L 110.11215032087298 0.5 L 110.11215032087298 3.5 L 117.11215032087298 0 L 110.11215032087298 -3.5 L 110.11215032087298 -0.5 L 97.5144091295527 -0.5 Z"/><text text-anchor="middle" pointer-events="none" font-size="8px" fill="#000000" x="67.55607516043649" y="3" font-family="sans-serif">DESTINATION</text></g><g class="relationship" transform="translate(174.069938272281 -6.622529227438325) rotate(490.4378836445664)"><path class="outline" fill="#A5ABB6" stroke="none" d="M 25 0.5 L 61.21877532641571 0.5 L 61.21877532641571 -0.5 L 25 -0.5 Z M 96.00210815112274 0.5 L 132.22088347753845 0.5 L 132.22088347753845 3.5 L 139.22088347753845 0 L 132.22088347753845 -3.5 L 132.22088347753845 -0.5 L 96.00210815112274 -0.5 Z"/><text text-anchor="middle" pointer-events="none" font-size="8px" fill="#000000" x="78.61044173876923" y="3" transform="rotate(180 78.61044173876923 0)" font-family="sans-serif">ORIGIN</text></g><g class="relationship" transform="translate(174.069938272281 -6.622529227438325) rotate(332.10507643481606)"><path class="outline" fill="#A5ABB6" stroke="none" d="M 25 0.5 L 38.771372202428566 0.5 L 38.771372202428566 -0.5 L 25 -0.5 Z M 98.68804014066099 0.5 L 112.45941234308955 0.5 L 112.45941234308955 3.5 L 119.45941234308955 0 L 112.45941234308955 -3.5 L 112.45941234308955 -0.5 L 98.68804014066099 -0.5 Z"/><text text-anchor="middle" pointer-events="none" font-size="8px" fill="#000000" x="68.72970617154478" y="3" font-family="sans-serif">DESTINATION</text></g><g class="relationship" transform="translate(-60.522813924287966 130.2987045595869) rotate(354.6778420022217)"><path class="outline" fill="#A5ABB6" stroke="none" d="M 25 0.5 L 43.42323318451798 0.5 L 43.42323318451798 -0.5 L 25 -0.5 Z M 78.20656600922501 0.5 L 96.629799193743 0.5 L 96.629799193743 3.5 L 103.629799193743 0 L 96.629799193743 -3.5 L 96.629799193743 -0.5 L 78.20656600922501 -0.5 Z"/><text text-anchor="middle" pointer-events="none" font-size="8px" fill="#000000" x="60.8148995968715" y="3" font-family="sans-serif">ORIGIN</text></g><g class="relationship" transform="translate(-60.522813924287966 130.2987045595869) rotate(184.94576527951466)"><path class="outline" fill="#A5ABB6" stroke="none" d="M 25 0.5 L 45.867529476597255 0.5 L 45.867529476597255 -0.5 L 25 -0.5 Z M 105.78419741482968 0.5 L 126.65172689142693 0.5 L 126.65172689142693 3.5 L 133.65172689142693 0 L 126.65172689142693 -3.5 L 126.65172689142693 -0.5 L 105.78419741482968 -0.5 Z"/><text text-anchor="middle" pointer-events="none" font-size="8px" fill="#000000" x="75.82586344571347" y="3" transform="rotate(180 75.82586344571347 0)" font-family="sans-serif">DESTINATION</text></g><g class="relationship" transform="translate(92.36815259545921 295.53923559216764) rotate(262.0266885496699)"><path class="outline" fill="#A5ABB6" stroke="none" d="M 25 0.5 L 68.55890749200493 0.5 L 68.55890749200493 -0.5 L 25 -0.5 Z M 103.34224031671197 0.5 L 146.9011478087169 0.5 L 146.9011478087169 3.5 L 153.9011478087169 0 L 146.9011478087169 -3.5 L 146.9011478087169 -0.5 L 103.34224031671197 -0.5 Z"/><text text-anchor="middle" pointer-events="none" font-size="8px" fill="#000000" x="85.95057390435845" y="3" transform="rotate(180 85.95057390435845 0)" font-family="sans-serif">ORIGIN</text></g><g class="relationship" transform="translate(92.36815259545921 295.53923559216764) rotate(468.96057630990487)"><path class="outline" fill="#A5ABB6" stroke="none" d="M 25 0.5 L 26.850813579852897 0.5 L 26.850813579852897 -0.5 L 25 -0.5 Z M 70.38414640455993 0.5 L 72.23495998441282 0.5 L 72.23495998441282 3.5 L 79.23495998441282 0 L 72.23495998441282 -3.5 L 72.23495998441282 -0.5 L 70.38414640455993 -0.5 Z"/><text text-anchor="middle" pointer-events="none" font-size="8px" fill="#000000" x="48.61747999220641" y="3" transform="rotate(180 48.61747999220641 0)" font-family="sans-serif">DESTIN…</text></g><g class="relationship" transform="translate(121.72276156283688 -35.99553640816905) rotate(469.33739325197564)"><path class="outline" fill="#A5ABB6" stroke="none" d="M 25 0.5 L 60.90440496214627 0.5 L 60.90440496214627 -0.5 L 25 -0.5 Z M 95.6877377868533 0.5 L 131.59214274899958 0.5 L 131.59214274899958 3.5 L 138.59214274899958 0 L 131.59214274899958 -3.5 L 131.59214274899958 -0.5 L 95.6877377868533 -0.5 Z"/><text text-anchor="middle" pointer-events="none" font-size="8px" fill="#000000" x="78.29607137449979" y="3" transform="rotate(180 78.29607137449979 0)" font-family="sans-serif">ORIGIN</text></g><g class="relationship" transform="translate(121.72276156283688 -35.99553640816905) rotate(290.64153722802126)"><path class="outline" fill="#A5ABB6" stroke="none" d="M 25 0.5 L 44.95137993628782 0.5 L 44.95137993628782 -0.5 L 25 -0.5 Z M 104.86804787452024 0.5 L 124.81942781080807 0.5 L 124.81942781080807 3.5 L 131.81942781080807 0 L 124.81942781080807 -3.5 L 124.81942781080807 -0.5 L 104.86804787452024 -0.5 Z"/><text text-anchor="middle" pointer-events="none" font-size="8px" fill="#000000" x="74.90971390540403" y="3" font-family="sans-serif">DESTINATION</text></g><g class="relationship" transform="translate(-9.617733991609237 -54.1510806831131) rotate(425.90031415353417)"><path class="outline" fill="#A5ABB6" stroke="none" d="M 25 0.5 L 73.60425895026596 0.5 L 73.60425895026596 -0.5 L 25 -0.5 Z M 108.38759177497299 0.5 L 156.99185072523895 0.5 L 156.99185072523895 3.5 L 163.99185072523895 0 L 156.99185072523895 -3.5 L 156.99185072523895 -0.5 L 108.38759177497299 -0.5 Z"/><text text-anchor="middle" pointer-events="none" font-size="8px" fill="#000000" x="90.99592536261947" y="3" font-family="sans-serif">ORIGIN</text></g><g class="relationship" transform="translate(-9.617733991609237 -54.1510806831131) rotate(245.84956146848532)"><path class="outline" fill="#A5ABB6" stroke="none" d="M 25 0.5 L 25.834859566851364 0.5 L 25.834859566851364 -0.5 L 25 -0.5 Z M 69.3681923915584 0.5 L 70.20305195840976 0.5 L 70.20305195840976 3.5 L 77.20305195840976 0 L 70.20305195840976 -3.5 L 70.20305195840976 -0.5 L 69.3681923915584 -0.5 Z"/><text text-anchor="middle" pointer-events="none" font-size="8px" fill="#000000" x="47.60152597920488" y="3" transform="rotate(180 47.60152597920488 0)" font-family="sans-serif">DESTIN…</text></g><g class="relationship" transform="translate(-89.10644576213998 63.34845454761895) rotate(379.35143913397974)"><path class="outline" fill="#A5ABB6" stroke="none" d="M 25 0.5 L 62.128077867227475 0.5 L 62.128077867227475 -0.5 L 25 -0.5 Z M 96.9114106919345 0.5 L 134.03948855916198 0.5 L 134.03948855916198 3.5 L 141.03948855916198 0 L 134.03948855916198 -3.5 L 134.03948855916198 -0.5 L 96.9114106919345 -0.5 Z"/><text text-anchor="middle" pointer-events="none" font-size="8px" fill="#000000" x="79.51974427958099" y="3" font-family="sans-serif">ORIGIN</text></g><g class="relationship" transform="translate(-89.10644576213998 63.34845454761895) rotate(517.635671105113)"><path class="outline" fill="#A5ABB6" stroke="none" d="M 25 0.5 L 36.54586221660985 0.5 L 36.54586221660985 -0.5 L 25 -0.5 Z M 96.46253015484227 0.5 L 108.00839237145212 0.5 L 108.00839237145212 3.5 L 115.00839237145212 0 L 108.00839237145212 -3.5 L 108.00839237145212 -0.5 L 96.46253015484227 -0.5 Z"/><text text-anchor="middle" pointer-events="none" font-size="8px" fill="#000000" x="66.50419618572606" y="3" transform="rotate(180 66.50419618572606 0)" font-family="sans-serif">DESTINATION</text></g><g class="relationship" transform="translate(-118.47572310563997 115.56306767874081) rotate(360.86370559889735)"><path class="outline" fill="#A5ABB6" stroke="none" d="M 25 0.5 L 72.13298918758015 0.5 L 72.13298918758015 -0.5 L 25 -0.5 Z M 106.91632201228718 0.5 L 154.04931119986733 0.5 L 154.04931119986733 3.5 L 161.04931119986733 0 L 154.04931119986733 -3.5 L 154.04931119986733 -0.5 L 106.91632201228718 -0.5 Z"/><text text-anchor="middle" pointer-events="none" font-size="8px" fill="#000000" x="89.52465559993367" y="3" font-family="sans-serif">ORIGIN</text></g><g class="relationship" transform="translate(-118.47572310563997 115.56306767874081) rotate(539.3945805021758)"><path class="outline" fill="#A5ABB6" stroke="none" d="M 25 0.5 L 27.781853763686996 0.5 L 27.781853763686996 -0.5 L 25 -0.5 Z M 65.33185300074754 0.5 L 68.11370676443454 0.5 L 68.11370676443454 3.5 L 75.11370676443454 0 L 68.11370676443454 -3.5 L 68.11370676443454 -0.5 L 65.33185300074754 -0.5 Z"/><text text-anchor="middle" pointer-events="none" font-size="8px" fill="#000000" x="46.55685338221727" y="3" transform="rotate(180 46.55685338221727 0)" font-family="sans-serif">DESTI…</text></g><g class="relationship" transform="translate(-47.20098989091579 -7.438734546351509) rotate(407.6306856694795)"><path class="outline" fill="#A5ABB6" stroke="none" d="M 25 0.5 L 64.24877103694206 0.5 L 64.24877103694206 -0.5 L 25 -0.5 Z M 99.03210386164909 0.5 L 138.28087489859115 0.5 L 138.28087489859115 3.5 L 145.28087489859115 0 L 138.28087489859115 -3.5 L 138.28087489859115 -0.5 L 99.03210386164909 -0.5 Z"/><text text-anchor="middle" pointer-events="none" font-size="8px" fill="#000000" x="81.64043744929558" y="3" font-family="sans-serif">ORIGIN</text></g><g class="relationship" transform="translate(-47.20098989091579 -7.438734546351509) rotate(268.2684012458419)"><path class="outline" fill="#A5ABB6" stroke="none" d="M 25 0.5 L 36.55864490799789 0.5 L 36.55864490799789 -0.5 L 25 -0.5 Z M 96.47531284623031 0.5 L 108.0339577542282 0.5 L 108.0339577542282 3.5 L 115.0339577542282 0 L 108.0339577542282 -3.5 L 108.0339577542282 -0.5 L 96.47531284623031 -0.5 Z"/><text text-anchor="middle" pointer-events="none" font-size="8px" fill="#000000" x="66.5169788771141" y="3" transform="rotate(180 66.5169788771141 0)" font-family="sans-serif">DESTINATION</text></g><g class="relationship" transform="translate(217.37303936019288 34.77556024508898) rotate(510.84078271456156)"><path class="outline" fill="#A5ABB6" stroke="none" d="M 25 0.5 L 64.88978856300709 0.5 L 64.88978856300709 -0.5 L 25 -0.5 Z M 99.67312138771412 0.5 L 139.5629099507212 0.5 L 139.5629099507212 3.5 L 146.5629099507212 0 L 139.5629099507212 -3.5 L 139.5629099507212 -0.5 L 99.67312138771412 -0.5 Z"/><text text-anchor="middle" pointer-events="none" font-size="8px" fill="#000000" x="82.2814549753606" y="3" transform="rotate(180 82.2814549753606 0)" font-family="sans-serif">ORIGIN</text></g><g class="relationship" transform="translate(217.37303936019288 34.77556024508898) rotate(307.74572630411393)"><path class="outline" fill="#A5ABB6" stroke="none" d="M 25 0.5 L 35.45451994151212 0.5 L 35.45451994151212 -0.5 L 25 -0.5 Z M 95.37118787974454 0.5 L 105.82570782125666 0.5 L 105.82570782125666 3.5 L 112.82570782125666 0 L 105.82570782125666 -3.5 L 105.82570782125666 -0.5 L 95.37118787974454 -0.5 Z"/><text text-anchor="middle" pointer-events="none" font-size="8px" fill="#000000" x="65.41285391062833" y="3" font-family="sans-serif">DESTINATION</text></g><g class="relationship" transform="translate(22.019901942660063 -3.4143798609633063) rotate(429.49994019520204)"><path class="outline" fill="#A5ABB6" stroke="none" d="M 25 0.5 L 44.11613022684607 0.5 L 44.11613022684607 -0.5 L 25 -0.5 Z M 78.8994630515531 0.5 L 98.01559327839917 0.5 L 98.01559327839917 3.5 L 105.01559327839917 0 L 98.01559327839917 -3.5 L 98.01559327839917 -0.5 L 78.8994630515531 -0.5 Z"/><text text-anchor="middle" pointer-events="none" font-size="8px" fill="#000000" x="61.50779663919958" y="3" font-family="sans-serif">ORIGIN</text></g><g class="relationship" transform="translate(22.019901942660063 -3.4143798609633063) rotate(242.9736058217589)"><path class="outline" fill="#A5ABB6" stroke="none" d="M 25 0.5 L 47.364972760977935 0.5 L 47.364972760977935 -0.5 L 25 -0.5 Z M 107.28164069921036 0.5 L 129.6466134601883 0.5 L 129.6466134601883 3.5 L 136.6466134601883 0 L 129.6466134601883 -3.5 L 129.6466134601883 -0.5 L 107.28164069921036 -0.5 Z"/><text text-anchor="middle" pointer-events="none" font-size="8px" fill="#000000" x="77.32330673009415" y="3" transform="rotate(180 77.32330673009415 0)" font-family="sans-serif">DESTINATION</text></g><g class="relationship" transform="translate(32.40992994987879 293.4482269024716) rotate(281.3496966858421)"><path class="outline" fill="#A5ABB6" stroke="none" d="M 25 0.5 L 68.39472049968595 0.5 L 68.39472049968595 -0.5 L 25 -0.5 Z M 103.17805332439298 0.5 L 146.57277382407892 0.5 L 146.57277382407892 3.5 L 153.57277382407892 0 L 146.57277382407892 -3.5 L 146.57277382407892 -0.5 L 103.17805332439298 -0.5 Z"/><text text-anchor="middle" pointer-events="none" font-size="8px" fill="#000000" x="85.78638691203946" y="3" font-family="sans-serif">ORIGIN</text></g><g class="relationship" transform="translate(32.40992994987879 293.4482269024716) rotate(435.47049362399304)"><path class="outline" fill="#A5ABB6" stroke="none" d="M 25 0.5 L 26.731523233762104 0.5 L 26.731523233762104 -0.5 L 25 -0.5 Z M 70.26485605846914 0.5 L 71.99637929223124 0.5 L 71.99637929223124 3.5 L 78.99637929223124 0 L 71.99637929223124 -3.5 L 71.99637929223124 -0.5 L 70.26485605846914 -0.5 Z"/><text text-anchor="middle" pointer-events="none" font-size="8px" fill="#000000" x="48.49818964611562" y="3" font-family="sans-serif">DESTIN…</text></g><g class="relationship" transform="translate(212.87786570875556 208.6480967329571) rotate(211.84979768503013)"><path class="outline" fill="#A5ABB6" stroke="none" d="M 25 0.5 L 64.65079580043904 0.5 L 64.65079580043904 -0.5 L 25 -0.5 Z M 99.43412862514607 0.5 L 139.08492442558511 0.5 L 139.08492442558511 3.5 L 146.08492442558511 0 L 139.08492442558511 -3.5 L 139.08492442558511 -0.5 L 99.43412862514607 -0.5 Z"/><text text-anchor="middle" pointer-events="none" font-size="8px" fill="#000000" x="82.04246221279256" y="3" transform="rotate(180 82.04246221279256 0)" font-family="sans-serif">ORIGIN</text></g><g class="relationship" transform="translate(212.87786570875556 208.6480967329571) rotate(372.66907937079606)"><path class="outline" fill="#A5ABB6" stroke="none" d="M 25 0.5 L 35.76182312302224 0.5 L 35.76182312302224 -0.5 L 25 -0.5 Z M 95.67849106125466 0.5 L 106.4403141842769 0.5 L 106.4403141842769 3.5 L 113.4403141842769 0 L 106.4403141842769 -3.5 L 106.4403141842769 -0.5 L 95.67849106125466 -0.5 Z"/><text text-anchor="middle" pointer-events="none" font-size="8px" fill="#000000" x="65.72015709213845" y="3" font-family="sans-serif">DESTINATION</text></g><g class="relationship" transform="translate(-98.18397222564396 176.9193543664979) rotate(340.54257259635847)"><path class="outline" fill="#A5ABB6" stroke="none" d="M 25 0.5 L 66.99586649029604 0.5 L 66.99586649029604 -0.5 L 25 -0.5 Z M 101.77919931500307 0.5 L 143.7750658052991 0.5 L 143.7750658052991 3.5 L 150.7750658052991 0 L 143.7750658052991 -3.5 L 143.7750658052991 -0.5 L 101.77919931500307 -0.5 Z"/><text text-anchor="middle" pointer-events="none" font-size="8px" fill="#000000" x="84.38753290264955" y="3" font-family="sans-serif">ORIGIN</text></g><g class="relationship" transform="translate(-98.18397222564396 176.9193543664979) rotate(206.6025435621969)"><path class="outline" fill="#A5ABB6" stroke="none" d="M 25 0.5 L 33.86928162411607 0.5 L 33.86928162411607 -0.5 L 25 -0.5 Z M 93.78594956234849 0.5 L 102.65523118646456 0.5 L 102.65523118646456 3.5 L 109.65523118646456 0 L 102.65523118646456 -3.5 L 102.65523118646456 -0.5 L 93.78594956234849 -0.5 Z"/><text text-anchor="middle" pointer-events="none" font-size="8px" fill="#000000" x="63.82761559323228" y="3" transform="rotate(180 63.82761559323228 0)" font-family="sans-serif">DESTINATION</text></g><g class="relationship" transform="translate(4.250079623968077 240.59413488378578) rotate(297.3800930196357)"><path class="outline" fill="#A5ABB6" stroke="none" d="M 25 0.5 L 47.93152173203825 0.5 L 47.93152173203825 -0.5 L 25 -0.5 Z M 82.71485455674528 0.5 L 105.64637628878353 0.5 L 105.64637628878353 3.5 L 112.64637628878353 0 L 105.64637628878353 -3.5 L 105.64637628878353 -0.5 L 82.71485455674528 -0.5 Z"/><text text-anchor="middle" pointer-events="none" font-size="8px" fill="#000000" x="65.32318814439176" y="3" font-family="sans-serif">ORIGIN</text></g><g class="relationship" transform="translate(4.250079623968077 240.59413488378578) rotate(430.5383348424844)"><path class="outline" fill="#A5ABB6" stroke="none" d="M 25 0.5 L 47.95553774694582 0.5 L 47.95553774694582 -0.5 L 25 -0.5 Z M 107.87220568517824 0.5 L 130.82774343212407 0.5 L 130.82774343212407 3.5 L 137.82774343212407 0 L 130.82774343212407 -3.5 L 130.82774343212407 -0.5 L 107.87220568517824 -0.5 Z"/><text text-anchor="middle" pointer-events="none" font-size="8px" fill="#000000" x="77.91387171606203" y="3" font-family="sans-serif">DESTINATION</text></g><g class="relationship" transform="translate(64.16952848128497 242.69218660756624) rotate(271.5586556846615)"><path class="outline" fill="#A5ABB6" stroke="none" d="M 25 0.5 L 41.29365377761285 0.5 L 41.29365377761285 -0.5 L 25 -0.5 Z M 76.07698660231989 0.5 L 92.37064037993274 0.5 L 92.37064037993274 3.5 L 99.37064037993274 0 L 92.37064037993274 -3.5 L 92.37064037993274 -0.5 L 76.07698660231989 -0.5 Z"/><text text-anchor="middle" pointer-events="none" font-size="8px" fill="#000000" x="58.68532018996637" y="3" font-family="sans-serif">ORIGIN</text></g><g class="relationship" transform="translate(64.16952848128497 242.69218660756624) rotate(452.14405074491225)"><path class="outline" fill="#A5ABB6" stroke="none" d="M 25 0.5 L 42.30794141350657 0.5 L 42.30794141350657 -0.5 L 25 -0.5 Z M 102.22460935173899 0.5 L 119.53255076524556 0.5 L 119.53255076524556 3.5 L 126.53255076524556 0 L 119.53255076524556 -3.5 L 119.53255076524556 -0.5 L 102.22460935173899 -0.5 Z"/><text text-anchor="middle" pointer-events="none" font-size="8px" fill="#000000" x="72.26627538262278" y="3" transform="rotate(180 72.26627538262278 0)" font-family="sans-serif">DESTINATION</text></g></g><g class="layer nodes"><g class="node" transform="translate(67.5524495024603,118.36756300516379)"><circle class="outline" cx="0" cy="0" r="25" fill="#ECB5C9" stroke="#da7298" stroke-width="2px"/><text text-anchor="middle" pointer-events="none" font-family="sans-serif" dy="1.5625" font-size="25" fill="#2A2C34"/><text text-anchor="middle" pointer-events="none" x="0" y="5" font-size="10px" fill="#2A2C34" font-family="sans-serif"> LAX</text></g><g class="node" transform="translate(58.500390875769305,394.1186533174233)"><circle class="outline" cx="0" cy="0" r="25" fill="#ECB5C9" stroke="#da7298" stroke-width="2px"/><text text-anchor="middle" pointer-events="none" font-family="sans-serif" dy="1.5625" font-size="25" fill="#2A2C34"/><text text-anchor="middle" pointer-events="none" x="0" y="5" font-size="10px" fill="#2A2C34" font-family="sans-serif"> ABQ</text></g><g class="node" transform="translate(378.01511668823593,74.03178154196192)"><circle class="outline" cx="0" cy="0" r="25" fill="#ECB5C9" stroke="#da7298" stroke-width="2px"/><text text-anchor="middle" pointer-events="none" font-family="sans-serif" dy="1.5625" font-size="25" fill="#2A2C34"/><text text-anchor="middle" pointer-events="none" x="0" y="5" font-size="10px" fill="#2A2C34" font-family="sans-serif"> IAH</text></g><g class="node" transform="translate(-51.43246588430836,-147.4087453887827)"><circle class="outline" cx="0" cy="0" r="25" fill="#ECB5C9" stroke="#da7298" stroke-width="2px"/><text text-anchor="middle" pointer-events="none" font-family="sans-serif" dy="1.5625" font-size="25" fill="#2A2C34"/><text text-anchor="middle" pointer-events="none" x="0" y="5" font-size="10px" fill="#2A2C34" font-family="sans-serif"> FAT</text></g><g class="node" transform="translate(347.94757987331644,239.0107861221585)"><circle class="outline" cx="0" cy="0" r="25" fill="#ECB5C9" stroke="#da7298" stroke-width="2px"/><text text-anchor="middle" pointer-events="none" font-family="sans-serif" dy="1.5625" font-size="25" fill="#2A2C34"/><text text-anchor="middle" pointer-events="none" x="0" y="5" font-size="10px" fill="#2A2C34" font-family="sans-serif"> EWR</text></g><g class="node" transform="translate(301.7441904590517,-74.20808347581045)"><circle class="outline" cx="0" cy="0" r="25" fill="#ECB5C9" stroke="#da7298" stroke-width="2px"/><text text-anchor="middle" pointer-events="none" font-family="sans-serif" dy="1.5625" font-size="25" fill="#2A2C34"/><text text-anchor="middle" pointer-events="none" x="0" y="5" font-size="10px" fill="#2A2C34" font-family="sans-serif"> TUS</text></g><g class="node" transform="translate(-218.583840960959,116.62090584251743)"><circle class="outline" cx="0" cy="0" r="25" fill="#ECB5C9" stroke="#da7298" stroke-width="2px"/><text text-anchor="middle" pointer-events="none" font-family="sans-serif" dy="1.5625" font-size="25" fill="#2A2C34"/><text text-anchor="middle" pointer-events="none" x="0" y="5" font-size="10px" fill="#2A2C34" font-family="sans-serif"> SMF</text></g><g class="node" transform="translate(177.00477180214514,-182.74781844429364)"><circle class="outline" cx="0" cy="0" r="25" fill="#ECB5C9" stroke="#da7298" stroke-width="2px"/><text text-anchor="middle" pointer-events="none" font-family="sans-serif" dy="1.5625" font-size="25" fill="#2A2C34"/><text text-anchor="middle" pointer-events="none" x="0" y="5" font-size="10px" fill="#2A2C34" font-family="sans-serif"> LAS</text></g><g class="node" transform="translate(152.26198141789766,297.5915913633718)"><circle class="outline" cx="0" cy="0" r="25" fill="#4C8EDA" stroke="#2870c2" stroke-width="2px"/><text text-anchor="middle" pointer-events="none" font-family="sans-serif" dy="1.5625" font-size="25" fill="#FFFFFF"/><text text-anchor="middle" pointer-events="none" x="0" y="5" font-size="10px" fill="#FFFFFF" font-family="sans-serif"> 11/1/20…</text></g><g class="node" transform="translate(220.23076956075317,94.72888732198757)"><circle class="outline" cx="0" cy="0" r="25" fill="#4C8EDA" stroke="#2870c2" stroke-width="2px"/><text text-anchor="middle" pointer-events="none" font-family="sans-serif" dy="1.5625" font-size="25" fill="#FFFFFF"/><text text-anchor="middle" pointer-events="none" x="0" y="5" font-size="10px" fill="#FFFFFF" font-family="sans-serif"> 11/30/2…</text></g><g class="node" transform="translate(50.338214037906205,-56.27914659026009)"><circle class="outline" cx="0" cy="0" r="25" fill="#4C8EDA" stroke="#2870c2" stroke-width="2px"/><text text-anchor="middle" pointer-events="none" font-family="sans-serif" dy="1.5625" font-size="25" fill="#FFFFFF"/><text text-anchor="middle" pointer-events="none" x="0" y="5" font-size="10px" fill="#FFFFFF" font-family="sans-serif"> 11/3/20…</text></g><g class="node" transform="translate(124.11646797827419,244.74849064636865)"><circle class="outline" cx="0" cy="0" r="25" fill="#4C8EDA" stroke="#2870c2" stroke-width="2px"/><text text-anchor="middle" pointer-events="none" font-family="sans-serif" dy="1.5625" font-size="25" fill="#FFFFFF"/><text text-anchor="middle" pointer-events="none" x="0" y="5" font-size="10px" fill="#FFFFFF" font-family="sans-serif"> 11/2/20…</text></g><g class="node" transform="translate(-27.479879113288572,291.34245158035986)"><circle class="outline" cx="0" cy="0" r="25" fill="#4C8EDA" stroke="#2870c2" stroke-width="2px"/><text text-anchor="middle" pointer-events="none" font-family="sans-serif" dy="1.5625" font-size="25" fill="#FFFFFF"/><text text-anchor="middle" pointer-events="none" x="0" y="5" font-size="10px" fill="#FFFFFF" font-family="sans-serif"> 11/3/20…</text></g><g class="node" transform="translate(234.89091943761767,152.90588033886698)"><circle class="outline" cx="0" cy="0" r="25" fill="#4C8EDA" stroke="#2870c2" stroke-width="2px"/><text text-anchor="middle" pointer-events="none" font-family="sans-serif" dy="1.5625" font-size="25" fill="#FFFFFF"/><text text-anchor="middle" pointer-events="none" x="0" y="5" font-size="10px" fill="#FFFFFF" font-family="sans-serif"> 11/29/2…</text></g><g class="node" transform="translate(174.069938272281,-6.622529227438325)"><circle class="outline" cx="0" cy="0" r="25" fill="#4C8EDA" stroke="#2870c2" stroke-width="2px"/><text text-anchor="middle" pointer-events="none" font-family="sans-serif" dy="1.5625" font-size="25" fill="#FFFFFF"/><text text-anchor="middle" pointer-events="none" x="0" y="5" font-size="10px" fill="#FFFFFF" font-family="sans-serif"> 11/2/20…</text></g><g class="node" transform="translate(-60.522813924287966,130.2987045595869)"><circle class="outline" cx="0" cy="0" r="25" fill="#4C8EDA" stroke="#2870c2" stroke-width="2px"/><text text-anchor="middle" pointer-events="none" font-family="sans-serif" dy="1.5625" font-size="25" fill="#FFFFFF"/><text text-anchor="middle" pointer-events="none" x="0" y="5" font-size="10px" fill="#FFFFFF" font-family="sans-serif"> 11/4/20…</text></g><g class="node" transform="translate(92.36815259545921,295.53923559216764)"><circle class="outline" cx="0" cy="0" r="25" fill="#4C8EDA" stroke="#2870c2" stroke-width="2px"/><text text-anchor="middle" pointer-events="none" font-family="sans-serif" dy="1.5625" font-size="25" fill="#FFFFFF"/><text text-anchor="middle" pointer-events="none" x="0" y="5" font-size="10px" fill="#FFFFFF" font-family="sans-serif"> 11/4/20…</text></g><g class="node" transform="translate(121.72276156283688,-35.99553640816905)"><circle class="outline" cx="0" cy="0" r="25" fill="#4C8EDA" stroke="#2870c2" stroke-width="2px"/><text text-anchor="middle" pointer-events="none" font-family="sans-serif" dy="1.5625" font-size="25" fill="#FFFFFF"/><text text-anchor="middle" pointer-events="none" x="0" y="5" font-size="10px" fill="#FFFFFF" font-family="sans-serif"> 11/29/2…</text></g><g class="node" transform="translate(-9.617733991609237,-54.1510806831131)"><circle class="outline" cx="0" cy="0" r="25" fill="#4C8EDA" stroke="#2870c2" stroke-width="2px"/><text text-anchor="middle" pointer-events="none" font-family="sans-serif" dy="1.5625" font-size="25" fill="#FFFFFF"/><text text-anchor="middle" pointer-events="none" x="0" y="5" font-size="10px" fill="#FFFFFF" font-family="sans-serif"> 11/1/20…</text></g><g class="node" transform="translate(-89.10644576213998,63.34845454761895)"><circle class="outline" cx="0" cy="0" r="25" fill="#4C8EDA" stroke="#2870c2" stroke-width="2px"/><text text-anchor="middle" pointer-events="none" font-family="sans-serif" dy="1.5625" font-size="25" fill="#FFFFFF"/><text text-anchor="middle" pointer-events="none" x="0" y="5" font-size="10px" fill="#FFFFFF" font-family="sans-serif"> 11/1/20…</text></g><g class="node" transform="translate(-118.47572310563997,115.56306767874081)"><circle class="outline" cx="0" cy="0" r="25" fill="#4C8EDA" stroke="#2870c2" stroke-width="2px"/><text text-anchor="middle" pointer-events="none" font-family="sans-serif" dy="1.5625" font-size="25" fill="#FFFFFF"/><text text-anchor="middle" pointer-events="none" x="0" y="5" font-size="10px" fill="#FFFFFF" font-family="sans-serif"> 11/2/20…</text></g><g class="node" transform="translate(-47.20098989091579,-7.438734546351509)"><circle class="outline" cx="0" cy="0" r="25" fill="#4C8EDA" stroke="#2870c2" stroke-width="2px"/><text text-anchor="middle" pointer-events="none" font-family="sans-serif" dy="1.5625" font-size="25" fill="#FFFFFF"/><text text-anchor="middle" pointer-events="none" x="0" y="5" font-size="10px" fill="#FFFFFF" font-family="sans-serif"> 11/4/20…</text></g><g class="node" transform="translate(217.37303936019288,34.77556024508898)"><circle class="outline" cx="0" cy="0" r="25" fill="#4C8EDA" stroke="#2870c2" stroke-width="2px"/><text text-anchor="middle" pointer-events="none" font-family="sans-serif" dy="1.5625" font-size="25" fill="#FFFFFF"/><text text-anchor="middle" pointer-events="none" x="0" y="5" font-size="10px" fill="#FFFFFF" font-family="sans-serif"> 11/1/20…</text></g><g class="node" transform="translate(22.019901942660063,-3.4143798609633063)"><circle class="outline" cx="0" cy="0" r="25" fill="#4C8EDA" stroke="#2870c2" stroke-width="2px"/><text text-anchor="middle" pointer-events="none" font-family="sans-serif" dy="1.5625" font-size="25" fill="#FFFFFF"/><text text-anchor="middle" pointer-events="none" x="0" y="5" font-size="10px" fill="#FFFFFF" font-family="sans-serif"> 11/2/20…</text></g><g class="node" transform="translate(32.40992994987879,293.4482269024716)"><circle class="outline" cx="0" cy="0" r="25" fill="#4C8EDA" stroke="#2870c2" stroke-width="2px"/><text text-anchor="middle" pointer-events="none" font-family="sans-serif" dy="1.5625" font-size="25" fill="#FFFFFF"/><text text-anchor="middle" pointer-events="none" x="0" y="5" font-size="10px" fill="#FFFFFF" font-family="sans-serif"> 11/1/20…</text></g><g class="node" transform="translate(212.87786570875556,208.6480967329571)"><circle class="outline" cx="0" cy="0" r="25" fill="#4C8EDA" stroke="#2870c2" stroke-width="2px"/><text text-anchor="middle" pointer-events="none" font-family="sans-serif" dy="1.5625" font-size="25" fill="#FFFFFF"/><text text-anchor="middle" pointer-events="none" x="0" y="5" font-size="10px" fill="#FFFFFF" font-family="sans-serif"> 11/30/2…</text></g><g class="node" transform="translate(-98.18397222564396,176.9193543664979)"><circle class="outline" cx="0" cy="0" r="25" fill="#4C8EDA" stroke="#2870c2" stroke-width="2px"/><text text-anchor="middle" pointer-events="none" font-family="sans-serif" dy="1.5625" font-size="25" fill="#FFFFFF"/><text text-anchor="middle" pointer-events="none" x="0" y="5" font-size="10px" fill="#FFFFFF" font-family="sans-serif"> 11/3/20…</text></g><g class="node" transform="translate(4.250079623968077,240.59413488378578)"><circle class="outline" cx="0" cy="0" r="25" fill="#4C8EDA" stroke="#2870c2" stroke-width="2px"/><text text-anchor="middle" pointer-events="none" font-family="sans-serif" dy="1.5625" font-size="25" fill="#FFFFFF"/><text text-anchor="middle" pointer-events="none" x="0" y="5" font-size="10px" fill="#FFFFFF" font-family="sans-serif"> 11/3/20…</text></g><g class="node" transform="translate(64.16952848128497,242.69218660756624)"><circle class="outline" cx="0" cy="0" r="25" fill="#4C8EDA" stroke="#2870c2" stroke-width="2px"/><text text-anchor="middle" pointer-events="none" font-family="sans-serif" dy="1.5625" font-size="25" fill="#FFFFFF"/><text text-anchor="middle" pointer-events="none" x="0" y="5" font-size="10px" fill="#FFFFFF" font-family="sans-serif"> 11/2/20…</text></g></g></svg>