<svg xmlns="http://www.w3.org/2000/svg" width="393.361328125" height="412.01031494140625" viewBox="-95.52699279785156 -115.90593719482422 393.361328125 412.01031494140625"><title>Neo4j Graph Visualization</title><desc>Created using Neo4j (http://www.neo4j.com/)</desc><g class="layer relationships"><g class="relationship" transform="translate(98.66648573203881 -86.9059399199367) rotate(385.213866750211)"><path class="outline" fill="#A5ABB6" stroke="none" d="M 24.018736134675446,-6.953439040707552 L 24.277555179777966,-5.987513214418485 A 107.79901956176931 107.79901956176931 0 0 1 39.65569961508501,-8.930889612100799 L 39.53953626850204,-9.924119734937719 A 108.79901956176931 108.79901956176931 0 0 0 24.018736134675446,-6.953439040707552 Z M 61.40050562552099,-10.269091090810875 L 61.3157391342702,-9.272690246792251 A 107.79901956176931 107.79901956176931 0 0 1 76.77909791740498,-6.816000189897315 L 76.09445986972129,-3.895166277525051 L 83.70848338755421,-5.705317064030746 L 77.69194864764991,-10.710445406393665 L 77.00731059996622,-7.789611494021402 A 108.79901956176931 108.79901956176931 0 0 0 61.40050562552099,-10.269091090810875"/><text text-anchor="middle" pointer-events="none" font-size="8px" fill="#000000" x="50.46922264446331" y="-7.147194156684051" font-family="sans-serif">trek</text></g><g class="relationship" transform="translate(196.4207951897725 -40.87735299240594) rotate(410.4372789513504)"><path class="outline" fill="#A5ABB6" stroke="none" d="M 21.40063509461097,-12.933012701892217 L 21.90063509461097,-12.06698729810778 A 66.38212209502865 66.38212209502865 0 0 1 27.943355768301608,-15.155224893811905 L 27.534385106969633,-16.06777242581761 A 67.38212209502865 67.38212209502865 0 0 0 21.40063509461097,-12.933012701892217 Z M 79.01081865475368,-17.572239702824277 L 78.65584137340751,-16.637364775506143 A 66.38212209502865 66.38212209502865 0 0 1 84.86860938054421,-13.90731014651658 L 83.52290458991736,-11.226064425497349 L 91.3491335280269,-11.214206588557124 L 86.66288243471335,-17.482304441208885 L 85.3171776440865,-14.801058720189655 A 67.38212209502865 67.38212209502865 0 0 0 79.01081865475368,-17.572239702824277"/><text text-anchor="middle" pointer-events="none" font-size="8px" fill="#000000" x="53.13781141986915" y="-18.431958955686483" font-family="sans-serif">twowheeler</text></g><g class="relationship" transform="translate(268.8343312461536 46.771625624397785) rotate(498.9346301294761)"><path class="outline" fill="#A5ABB6" stroke="none" d="M 21.40063509461097,12.933012701892217 L 21.90063509461097,12.06698729810778 A 66.72512170690617 66.72512170690617 0 0 0 42.57777667422609,19.789519559786513 L 42.387662082460196,20.77128146676685 A 67.72512170690617 67.72512170690617 0 0 1 21.40063509461097,12.933012701892217 Z M 64.24441869048204,21.408304199119527 L 64.11180582075127,20.417136288631212 A 66.72512170690617 66.72512170690617 0 0 0 85.20361846103154,13.911974647024559 L 83.85747977681231,11.230946739141366 L 91.6837066934622,11.217822368493561 L 86.99847003999051,17.486678524202148 L 85.65233135577128,14.805650616318955 A 67.72512170690617 67.72512170690617 0 0 1 64.24441869048204,21.408304199119527"/><text text-anchor="middle" pointer-events="none" font-size="8px" fill="#000000" x="53.30472815523728" y="24.477924483847602" transform="rotate(180 53.30472815523728 21.477924483847602)" font-family="sans-serif">trek</text></g><g class="relationship" transform="translate(182.86351941998907 121.67728843236637) rotate(474.21849802100905)"><path class="outline" fill="#A5ABB6" stroke="none" d="M 25 0.5 L 46.368024910162255 0.5 L 46.368024910162255 -0.5 L 25 -0.5 Z M 68.16802510089713 0.5 L 89.53605001105937 0.5 L 89.53605001105937 3.5 L 96.53605001105937 0 L 89.53605001105937 -3.5 L 89.53605001105937 -0.5 L 68.16802510089713 -0.5 Z"/><text text-anchor="middle" pointer-events="none" font-size="8px" fill="#000000" x="57.26802500552969" y="3" transform="rotate(180 57.26802500552969 0)" font-family="sans-serif">trek</text></g><g class="relationship" transform="translate(98.66648573203881 -86.9059399199367) rotate(385.213866750211)"><path class="outline" fill="#A5ABB6" stroke="none" d="M 24.018736134675446,6.953439040707552 L 24.277555179777966,5.987513214418485 A 107.79901956176931 107.79901956176931 0 0 0 38.56885535522305,8.798179167676764 L 38.44260987371641,9.790178199127482 A 108.79901956176931 108.79901956176931 0 0 1 24.018736134675446,6.953439040707552 Z M 62.501112058806385,10.169827151720824 L 62.40622960844384,9.174338668305168 A 107.79901956176931 107.79901956176931 0 0 0 76.77909791740498,6.816000189897315 L 76.09445986972129,3.895166277525051 L 83.70848338755421,5.705317064030746 L 77.69194864764991,10.710445406393665 L 77.00731059996622,7.789611494021402 A 108.79901956176931 108.79901956176931 0 0 1 62.501112058806385,10.169827151720824"/><text text-anchor="middle" pointer-events="none" font-size="8px" fill="#000000" x="50.469222644463365" y="13.147194156684051" font-family="sans-serif">road</text></g><g class="relationship" transform="translate(196.4207951897725 -40.87735299240594) rotate(410.4372789513504)"><path class="outline" fill="#A5ABB6" stroke="none" d="M 25 0.5 L 42.446423839559486 0.5 L 42.446423839559486 -0.5 L 25 -0.5 Z M 64.24642403029435 0.5 L 81.69284786985384 0.5 L 81.69284786985384 3.5 L 88.69284786985384 0 L 81.69284786985384 -3.5 L 81.69284786985384 -0.5 L 64.24642403029435 -0.5 Z"/><text text-anchor="middle" pointer-events="none" font-size="8px" fill="#000000" x="53.34642393492692" y="3" font-family="sans-serif">trek</text></g><g class="relationship" transform="translate(196.4207951897725 -40.87735299240594) rotate(410.4372789513504)"><path class="outline" fill="#A5ABB6" stroke="none" d="M 21.40063509461097,12.933012701892217 L 21.90063509461097,12.06698729810778 A 66.38212209502865 66.38212209502865 0 0 0 41.34211434111633,19.520935775379513 L 41.13498655780555,20.49924967254175 A 67.38212209502865 67.38212209502865 0 0 1 21.40063509461097,12.933012701892217 Z M 65.17462148485932,21.201839996041272 L 65.02498349440668,20.21309914434488 A 66.38212209502865 66.38212209502865 0 0 0 84.86860938054421,13.90731014651658 L 83.52290458991736,11.226064425497349 L 91.3491335280269,11.214206588557124 L 86.66288243471335,17.482304441208885 L 85.3171776440865,14.801058720189655 A 67.38212209502865 67.38212209502865 0 0 1 65.17462148485932,21.201839996041272"/><text text-anchor="middle" pointer-events="none" font-size="8px" fill="#000000" x="53.13781141986915" y="24.431958955686483" font-family="sans-serif">road</text></g><g class="relationship" transform="translate(268.8343312461536 46.771625624397785) rotate(498.9346301294761)"><path class="outline" fill="#A5ABB6" stroke="none" d="M 25 0.5 L 41.51280296291107 0.5 L 41.51280296291107 -0.5 L 25 -0.5 Z M 65.51280296291107 0.5 L 82.02560592582213 0.5 L 82.02560592582213 3.5 L 89.02560592582213 0 L 82.02560592582213 -3.5 L 82.02560592582213 -0.5 L 65.51280296291107 -0.5 Z"/><text text-anchor="middle" pointer-events="none" font-size="8px" fill="#000000" x="53.51280296291107" y="3" transform="rotate(180 53.51280296291107 0)" font-family="sans-serif">road</text></g><g class="relationship" transform="translate(268.8343312461536 46.771625624397785) rotate(498.9346301294761)"><path class="outline" fill="#A5ABB6" stroke="none" d="M 21.40063509461097,-12.933012701892217 L 21.90063509461097,-12.06698729810778 A 66.72512170690617 66.72512170690617 0 0 1 28.101383035381904,-15.227852612404085 L 27.694312771321663,-16.141249459408677 A 67.72512170690617 67.72512170690617 0 0 0 21.40063509461097,-12.933012701892217 Z M 79.18248532917771,-17.641890060156072 L 78.82930339641383,-16.706335399877382 A 66.72512170690617 66.72512170690617 0 0 1 85.20361846103154,-13.911974647024559 L 83.85747977681231,-11.230946739141366 L 91.6837066934622,-11.217822368493561 L 86.99847003999051,-17.486678524202148 L 85.65233135577128,-14.805650616318955 A 67.72512170690617 67.72512170690617 0 0 0 79.18248532917771,-17.641890060156072"/><text text-anchor="middle" pointer-events="none" font-size="8px" fill="#000000" x="53.30472815523728" y="-18.477924483847602" transform="rotate(180 53.30472815523728 -21.477924483847602)" font-family="sans-serif">twowheeler</text></g><g class="relationship" transform="translate(98.66648573203881 -86.9059399199367) rotate(448.1562230999872)"><path class="outline" fill="#A5ABB6" stroke="none" d="M 21.40063509461097,12.933012701892217 L 21.90063509461097,12.06698729810778 A 64.34514826762911 64.34514826762911 0 0 0 40.36017948912447,19.2093845531271 L 40.147062725724304,20.186411290303646 A 65.34514826762911 65.34514826762911 0 0 1 21.40063509461097,12.933012701892217 Z M 64.1837050421827,20.900693704257193 L 64.02898053574576,19.91273604974571 A 64.34514826762911 64.34514826762911 0 0 0 82.88006987234785,13.879076411932987 L 81.53699142341304,11.19651415170362 L 89.36322822103882,11.192320407790014 L 84.67084113759424,17.45582609223881 L 83.32776268865943,14.773263832009443 A 65.34514826762911 65.34514826762911 0 0 1 64.1837050421827,20.900693704257193"/><text text-anchor="middle" pointer-events="none" font-size="8px" fill="#000000" x="52.14709529004157" y="24.158990287354" font-family="sans-serif">road</text></g><g class="relationship" transform="translate(102.26094524135257 24.754133998382276) rotate(410.25264270743287)"><path class="outline" fill="#A5ABB6" stroke="none" d="M 25 0.5 L 48.62950257928591 0.5 L 48.62950257928591 -0.5 L 25 -0.5 Z M 70.42950277002078 0.5 L 94.05900534930669 0.5 L 94.05900534930669 3.5 L 101.05900534930669 0 L 94.05900534930669 -3.5 L 94.05900534930669 -0.5 L 70.42950277002078 -0.5 Z"/><text text-anchor="middle" pointer-events="none" font-size="8px" fill="#000000" x="59.529502674653344" y="3" font-family="sans-serif">trek</text></g><g class="relationship" transform="translate(98.66648573203881 -86.9059399199367) rotate(448.1562230999872)"><path class="outline" fill="#A5ABB6" stroke="none" d="M 25 0.5 L 41.45895676610769 0.5 L 41.45895676610769 -0.5 L 25 -0.5 Z M 63.25895695684255 0.5 L 79.71791372295024 0.5 L 79.71791372295024 3.5 L 86.71791372295024 0 L 79.71791372295024 -3.5 L 79.71791372295024 -0.5 L 63.25895695684255 -0.5 Z"/><text text-anchor="middle" pointer-events="none" font-size="8px" fill="#000000" x="52.35895686147512" y="3" font-family="sans-serif">trek</text></g><g class="relationship" transform="translate(98.66648573203881 -86.9059399199367) rotate(448.1562230999872)"><path class="outline" fill="#A5ABB6" stroke="none" d="M 21.40063509461097,-12.933012701892217 L 21.90063509461097,-12.06698729810778 A 64.34514826762911 64.34514826762911 0 0 1 21.97351411693092,-12.10900052621956 L 21.47464674346582,-12.975678865450462 A 65.34514826762911 65.34514826762911 0 0 0 21.40063509461097,-12.933012701892217 Z M 83.25134810649557,-14.811459869915403 L 82.80482468966028,-13.916687922312136 A 64.34514826762911 64.34514826762911 0 0 1 82.88006987234785,-13.879076411932987 L 81.53699142341304,-11.19651415170362 L 89.36322822103882,-11.192320407790014 L 84.67084113759424,-17.45582609223881 L 83.32776268865943,-14.773263832009443 A 65.34514826762911 65.34514826762911 0 0 0 83.25134810649557,-14.811459869915403"/><text text-anchor="middle" pointer-events="none" font-size="8px" fill="#000000" x="52.14709529004158" y="-18.158990287354" font-family="sans-serif">PublicTransp…</text></g><g class="relationship" transform="translate(102.26094524135257 24.754133998382276) rotate(517.8522739471175)"><path class="outline" fill="#A5ABB6" stroke="none" d="M 24.018736134675446,-6.953439040707552 L 24.277555179777966,-5.987513214418485 A 138.63969019197856 138.63969019197856 0 0 1 47.39004278963904,-10.12216603043396 L 47.297932769764834,-11.117914866355335 A 139.63969019197856 139.63969019197856 0 0 0 24.018736134675446,-6.953439040707552 Z M 69.15178869968638,-11.421751724817938 L 69.08739696923531,-10.423827025730105 A 138.63969019197856 138.63969019197856 0 0 1 92.30589812285947,-6.933319669468018 L 91.61030184729572,-4.015076050196002 L 99.23106594708814,-5.79663562969793 L 93.23335982361115,-10.824311161830707 L 92.5377635480474,-7.90606754255869 A 139.63969019197856 139.63969019197856 0 0 0 69.15178869968638,-11.421751724817938"/><text text-anchor="middle" pointer-events="none" font-size="8px" fill="#000000" x="58.225858045769506" y="-8.198100418999502" transform="rotate(180 58.225858045769506 -11.198100418999502)" font-family="sans-serif">trek</text></g><g class="relationship" transform="translate(-12.172688823230228 71.33188916511952) rotate(423.4467883088662)"><path class="outline" fill="#A5ABB6" stroke="none" d="M 24.018736134675446,-6.953439040707552 L 24.277555179777966,-5.987513214418485 A 113.1368705738585 113.1368705738585 0 0 1 40.988945745415265,-9.142033767871496 L 40.87783620015018,-10.135841932937069 A 114.1368705738585 114.1368705738585 0 0 0 24.018736134675446,-6.953439040707552 Z M 62.73759652286114,-10.472943221772837 L 62.657183729965,-9.476181573865645 A 113.1368705738585 113.1368705738585 0 0 1 79.45789706208348,-6.8384541255865425 L 78.77116165187293,-3.9181126256309367 L 86.38648313034831,-5.722795085087874 L 80.37354427569754,-10.732242792194016 L 79.686808865487,-7.81190129223841 A 114.1368705738585 114.1368705738585 0 0 0 62.73759652286114,-10.472943221772837"/><text text-anchor="middle" pointer-events="none" font-size="8px" fill="#000000" x="51.80733613240485" y="-7.329049015306012" font-family="sans-serif">trek</text></g><g class="relationship" transform="translate(37.32352597222072 170.37547889701224) rotate(393.00144126626947)"><path class="outline" fill="#A5ABB6" stroke="none" d="M 24.018736134675446,6.953439040707552 L 24.277555179777966,5.987513214418485 A 119.85090403885629 119.85090403885629 0 0 0 42.66944396057115,9.404227550151873 L 42.56408131972596,10.398661416185277 A 120.85090403885629 120.85090403885629 0 0 1 24.018736134675446,6.953439040707552 Z M 64.42227946651762,10.726341901018657 L 64.34677297509911,9.729196590768609 A 119.85090403885629 119.85090403885629 0 0 0 82.83281521479589,6.8653264664058495 L 82.14356976309499,3.9455763559837895 L 89.7604397143975,5.743712097507443 L 83.75180915039708,10.758326613635264 L 83.06256369869618,7.838576503213203 A 120.85090403885629 120.85090403885629 0 0 1 64.42227946651762,10.726341901018657"/><text text-anchor="middle" pointer-events="none" font-size="8px" fill="#000000" x="53.49325069020913" y="13.55781243316649" font-family="sans-serif">trek</text></g><g class="relationship" transform="translate(102.26094524135257 24.754133998382276) rotate(517.8522739471175)"><path class="outline" fill="#A5ABB6" stroke="none" d="M 24.018736134675446,6.953439040707552 L 24.277555179777966,5.987513214418485 A 138.63969019197856 138.63969019197856 0 0 0 32.29313077558136,7.881992057145794 L 32.09212760978948,8.861582648842983 A 139.63969019197856 139.63969019197856 0 0 1 24.018736134675446,6.953439040707552 Z M 84.4144445333799,9.58902628407725 L 84.24075253297903,8.604226259200743 A 138.63969019197856 138.63969019197856 0 0 0 92.30589812285947,6.933319669468018 L 91.61030184729572,4.015076050196002 L 99.23106594708814,5.79663562969793 L 93.23335982361115,10.824311161830707 L 92.5377635480474,7.90606754255869 A 139.63969019197856 139.63969019197856 0 0 1 84.4144445333799,9.58902628407725"/><text text-anchor="middle" pointer-events="none" font-size="8px" fill="#000000" x="58.225858045769506" y="14.198100418999502" transform="rotate(180 58.225858045769506 11.198100418999502)" font-family="sans-serif">twowheeler</text></g><g class="relationship" transform="translate(-12.172688823230228 71.33188916511952) rotate(423.4467883088662)"><path class="outline" fill="#A5ABB6" stroke="none" d="M 24.018736134675446,6.953439040707552 L 24.277555179777966,5.987513214418485 A 113.1368705738585 113.1368705738585 0 0 0 25.985905612467082,6.431011496958746 L 25.742186423176587,7.400857338714829 A 114.1368705738585 114.1368705738585 0 0 1 24.018736134675446,6.953439040707552 Z M 77.95038201627521,8.205964520239505 L 77.7366837616617,7.229064803802288 A 113.1368705738585 113.1368705738585 0 0 0 79.45789706208348,6.8384541255865425 L 78.77116165187293,3.9181126256309367 L 86.38648313034831,5.722795085087874 L 80.37354427569754,10.732242792194016 L 79.686808865487,7.81190129223841 A 114.1368705738585 114.1368705738585 0 0 1 77.95038201627521,8.205964520239505"/><text text-anchor="middle" pointer-events="none" font-size="8px" fill="#000000" x="51.807336132404885" y="13.329049015306012" font-family="sans-serif">twowheeler</text></g><g class="relationship" transform="translate(37.32352597222072 170.37547889701224) rotate(393.00144126626947)"><path class="outline" fill="#A5ABB6" stroke="none" d="M 24.018736134675446,-6.953439040707552 L 24.277555179777966,-5.987513214418485 A 119.85090403885629 119.85090403885629 0 0 1 27.636276075828743,-6.835650084296972 L 27.405481190602078,-7.808652510271955 A 120.85090403885629 120.85090403885629 0 0 0 24.018736134675446,-6.953439040707552 Z M 79.65170496657163,-8.591885776923249 L 79.45018017499082,-7.612402362883827 A 119.85090403885629 119.85090403885629 0 0 1 82.83281521479589,-6.8653264664058495 L 82.14356976309499,-3.9455763559837895 L 89.7604397143975,-5.743712097507443 L 83.75180915039708,-10.758326613635264 L 83.06256369869618,-7.838576503213203 A 120.85090403885629 120.85090403885629 0 0 0 79.65170496657163,-8.591885776923249"/><text text-anchor="middle" pointer-events="none" font-size="8px" fill="#000000" x="53.49325069020911" y="-7.5578124331664895" font-family="sans-serif">twowheeler</text></g><g class="relationship" transform="translate(102.26094524135257 24.754133998382276) rotate(325.1226547130464)"><path class="outline" fill="#A5ABB6" stroke="none" d="M 25 0.5 L 42.98808539920835 0.5 L 42.98808539920835 -0.5 L 25 -0.5 Z M 64.78808558994322 0.5 L 82.77617098915157 0.5 L 82.77617098915157 3.5 L 89.77617098915157 0 L 82.77617098915157 -3.5 L 82.77617098915157 -0.5 L 64.78808558994322 -0.5 Z"/><text text-anchor="middle" pointer-events="none" font-size="8px" fill="#000000" x="53.88808549457578" y="3" font-family="sans-serif">trek</text></g><g class="relationship" transform="translate(-12.172688823230228 71.33188916511952) rotate(477.3133369148846)"><path class="outline" fill="#A5ABB6" stroke="none" d="M 24.018736134675446,-6.953439040707552 L 24.277555179777966,-5.987513214418485 A 128.53107009907748 128.53107009907748 0 0 1 44.84727517532977,-9.738469070170098 L 44.74849307677796,-10.733578158162828 A 129.53107009907748 129.53107009907748 0 0 0 24.018736134675446,-6.953439040707552 Z M 66.60466222341587,-11.049808297513124 L 66.53471129806908,-10.052257863678761 A 128.53107009907748 128.53107009907748 0 0 1 87.20434096078145,-6.8979813803117604 L 86.5120453875222,-3.978952973590502 L 94.13078983867426,-5.769129777160394 L 88.12740172512711,-10.790019255940106 L 87.43510615186787,-7.870990849218847 A 129.53107009907748 129.53107009907748 0 0 0 66.60466222341587,-11.049808297513124"/><text text-anchor="middle" pointer-events="none" font-size="8px" fill="#000000" x="55.677128816889514" y="-7.853599469058992" transform="rotate(180 55.677128816889514 -10.853599469058992)" font-family="sans-serif">trek</text></g><g class="relationship" transform="translate(-66.52699333456304 176.5813063121655) rotate(356.5802252155311)"><path class="outline" fill="#A5ABB6" stroke="none" d="M 21.40063509461097,12.933012701892217 L 21.90063509461097,12.06698729810778 A 56.399286496557956 56.399286496557956 0 0 0 37.6082042478114,18.222205161022288 L 37.386710770303644,19.197367013958264 A 57.399286496557956 57.399286496557956 0 0 1 21.40063509461097,12.933012701892217 Z M 59.23298119899612,19.89185718344403 L 59.07387289968557,18.904596048236883 A 56.399286496557956 56.399286496557956 0 0 0 75.14067818797922,13.759481523702494 L 73.80872517577484,11.07137788483741 L 81.63491218069846,11.099608435036465 L 76.91661553758505,17.343619708855936 L 75.58466252538066,14.655516069990853 A 57.399286496557956 57.399286496557956 0 0 1 59.23298119899612,19.89185718344403"/><text text-anchor="middle" pointer-events="none" font-size="8px" fill="#000000" x="48.2923705346082" y="23.094329609830623" font-family="sans-serif">trek</text></g><g class="relationship" transform="translate(-12.172688823230228 71.33188916511952) rotate(477.3133369148846)"><path class="outline" fill="#A5ABB6" stroke="none" d="M 24.018736134675446,6.953439040707552 L 24.277555179777966,5.987513214418485 A 128.53107009907748 128.53107009907748 0 0 0 29.781457475234827,7.3329887646122245 L 29.56546000075499,8.309382686663326 A 129.53107009907748 129.53107009907748 0 0 1 24.018736134675446,6.953439040707552 Z M 81.85147489070278,9.065892835527308 L 81.66381620106728,8.083658537508612 A 128.53107009907748 128.53107009907748 0 0 0 87.20434096078145,6.8979813803117604 L 86.5120453875222,3.978952973590502 L 94.13078983867426,5.769129777160394 L 88.12740172512711,10.790019255940106 L 87.43510615186787,7.870990849218847 A 129.53107009907748 129.53107009907748 0 0 1 81.85147489070278,9.065892835527308"/><text text-anchor="middle" pointer-events="none" font-size="8px" fill="#000000" x="55.67712881688953" y="13.853599469058992" transform="rotate(180 55.67712881688953 10.853599469058992)" font-family="sans-serif">twowheeler</text></g><g class="relationship" transform="translate(-66.52699333456304 176.5813063121655) rotate(356.5802252155311)"><path class="outline" fill="#A5ABB6" stroke="none" d="M 25 0.5 L 25.959555475716442 0.5 L 25.959555475716442 -0.5 L 25 -0.5 Z M 71.07622036219105 0.5 L 72.0357758379075 0.5 L 72.0357758379075 3.5 L 79.0357758379075 0 L 72.0357758379075 -3.5 L 72.0357758379075 -0.5 L 71.07622036219105 -0.5 Z"/><text text-anchor="middle" pointer-events="none" font-size="8px" fill="#000000" x="48.51788791895375" y="3" font-family="sans-serif">twowhe…</text></g><g class="relationship" transform="translate(-66.52699333456304 176.5813063121655) rotate(356.5802252155311)"><path class="outline" fill="#A5ABB6" stroke="none" d="M 21.40063509461097,-12.933012701892217 L 21.90063509461097,-12.06698729810778 A 56.399286496557956 56.399286496557956 0 0 1 36.54735297462753,-17.970441114264396 L 36.30704983942582,-18.941139009189605 A 57.399286496557956 57.399286496557956 0 0 0 21.40063509461097,-12.933012701892217 Z M 60.326736595553776,-19.704721808400457 L 60.148573087314396,-18.720720911890787 A 56.399286496557956 56.399286496557956 0 0 1 75.14067818797922,-13.759481523702494 L 73.80872517577484,-11.07137788483741 L 81.63491218069846,-11.099608435036465 L 76.91661553758505,-17.343619708855936 L 75.58466252538066,-14.655516069990853 A 57.399286496557956 57.399286496557956 0 0 0 60.326736595553776,-19.704721808400457"/><text text-anchor="middle" pointer-events="none" font-size="8px" fill="#000000" x="48.2923705346082" y="-17.094329609830623" font-family="sans-serif">road</text></g><g class="relationship" transform="translate(-66.52699333456304 176.5813063121655) rotate(407.29125036322995)"><path class="outline" fill="#A5ABB6" stroke="none" d="M 25 0.5 L 47.19616110716211 0.5 L 47.19616110716211 -0.5 L 25 -0.5 Z M 68.99616129789698 0.5 L 91.19232240505909 0.5 L 91.19232240505909 3.5 L 98.19232240505909 0 L 91.19232240505909 -3.5 L 91.19232240505909 -0.5 L 68.99616129789698 -0.5 Z"/><text text-anchor="middle" pointer-events="none" font-size="8px" fill="#000000" x="58.096161202529544" y="3" font-family="sans-serif">trek</text></g><g class="relationship" transform="translate(17.030896108501075 267.10438299083734) rotate(343.39381183994806)"><path class="outline" fill="#A5ABB6" stroke="none" d="M 25 0.5 L 46.11205906988155 0.5 L 46.11205906988155 -0.5 L 25 -0.5 Z M 67.91205926061642 0.5 L 89.02411833049797 0.5 L 89.02411833049797 3.5 L 96.02411833049797 0 L 89.02411833049797 -3.5 L 89.02411833049797 -0.5 L 67.91205926061642 -0.5 Z"/><text text-anchor="middle" pointer-events="none" font-size="8px" fill="#000000" x="57.012059165248985" y="3" font-family="sans-serif">trek</text></g></g><g class="layer nodes"><g class="node" transform="translate(98.66648573203881,-86.9059399199367)"><circle class="outline" cx="0" cy="0" r="25" fill="#F16667" stroke="#eb2728" stroke-width="2px"/><text text-anchor="middle" pointer-events="none" font-family="sans-serif" dy="1.5625" font-size="25" fill="#FFFFFF"/><text text-anchor="middle" pointer-events="none" x="0" y="5" font-size="10px" fill="#FFFFFF" font-family="sans-serif"> Darjeeli…</text></g><g class="node" transform="translate(133.00730583291656,232.516674117469)"><circle class="outline" cx="0" cy="0" r="25" fill="#D9C8AE" stroke="#c0a378" stroke-width="2px"/><text text-anchor="middle" pointer-events="none" font-family="sans-serif" dy="1.5625" font-size="25" fill="#2A2C34"/><text text-anchor="middle" pointer-events="none" x="0" y="5" font-size="10px" fill="#2A2C34" font-family="sans-serif"> Sandak…</text></g><g class="node" transform="translate(196.4207951897725,-40.87735299240594)"><circle class="outline" cx="0" cy="0" r="25" fill="#8DCC93" stroke="#5db665" stroke-width="2px"/><text text-anchor="middle" pointer-events="none" font-family="sans-serif" dy="1.5625" font-size="25" fill="#2A2C34"/><text text-anchor="middle" pointer-events="none" x="0" y="5" font-size="10px" fill="#2A2C34" font-family="sans-serif"> Tumbling</text></g><g class="node" transform="translate(268.8343312461536,46.771625624397785)"><circle class="outline" cx="0" cy="0" r="25" fill="#8DCC93" stroke="#5db665" stroke-width="2px"/><text text-anchor="middle" pointer-events="none" font-family="sans-serif" dy="1.5625" font-size="25" fill="#2A2C34"/><text text-anchor="middle" pointer-events="none" x="0" y="5" font-size="10px" fill="#2A2C34" font-family="sans-serif"> Gairibus</text></g><g class="node" transform="translate(182.86351941998907,121.67728843236637)"><circle class="outline" cx="0" cy="0" r="25" fill="#8DCC93" stroke="#5db665" stroke-width="2px"/><text text-anchor="middle" pointer-events="none" font-family="sans-serif" dy="1.5625" font-size="25" fill="#2A2C34"/><text text-anchor="middle" pointer-events="none" x="0" y="5" font-size="10px" fill="#2A2C34" font-family="sans-serif"> BhikeB…</text></g><g class="node" transform="translate(102.26094524135257,24.754133998382276)"><circle class="outline" cx="0" cy="0" r="25" fill="#F16667" stroke="#eb2728" stroke-width="2px"/><text text-anchor="middle" pointer-events="none" font-family="sans-serif" dy="1.5625" font-size="25" fill="#FFFFFF"/><text text-anchor="middle" pointer-events="none" x="0" y="5" font-size="10px" fill="#FFFFFF" font-family="sans-serif"> Rimbik</text></g><g class="node" transform="translate(-12.172688823230228,71.33188916511952)"><circle class="outline" cx="0" cy="0" r="25" fill="#8DCC93" stroke="#5db665" stroke-width="2px"/><text text-anchor="middle" pointer-events="none" font-family="sans-serif" dy="1.5625" font-size="25" fill="#2A2C34"/><text text-anchor="middle" pointer-events="none" x="0" y="5" font-size="10px" fill="#2A2C34" font-family="sans-serif"> Sirikhola</text></g><g class="node" transform="translate(37.32352597222072,170.37547889701224)"><circle class="outline" cx="0" cy="0" r="25" fill="#8DCC93" stroke="#5db665" stroke-width="2px"/><text text-anchor="middle" pointer-events="none" font-family="sans-serif" dy="1.5625" font-size="25" fill="#2A2C34"/><text text-anchor="middle" pointer-events="none" x="0" y="5" font-size="10px" fill="#2A2C34" font-family="sans-serif"> Gurdum</text></g><g class="node" transform="translate(-66.52699333456304,176.5813063121655)"><circle class="outline" cx="0" cy="0" r="25" fill="#8DCC93" stroke="#5db665" stroke-width="2px"/><text text-anchor="middle" pointer-events="none" font-family="sans-serif" dy="1.5625" font-size="25" fill="#2A2C34"/><text text-anchor="middle" pointer-events="none" x="0" y="5" font-size="10px" fill="#2A2C34" font-family="sans-serif"> Ramm…</text></g><g class="node" transform="translate(17.030896108501075,267.10438299083734)"><circle class="outline" cx="0" cy="0" r="25" fill="#D9C8AE" stroke="#c0a378" stroke-width="2px"/><text text-anchor="middle" pointer-events="none" font-family="sans-serif" dy="1.5625" font-size="25" fill="#2A2C34"/><text text-anchor="middle" pointer-events="none" x="0" y="5" font-size="10px" fill="#2A2C34" font-family="sans-serif"> Sabarg…</text></g></g></svg>