<svg xmlns="http://www.w3.org/2000/svg" width="267.6865539550781" height="289.6310729980469" viewBox="-30.44972038269043 -40.535064697265625 267.6865539550781 289.6310729980469"><title>Neo4j Graph Visualization</title><desc>Created using Neo4j (http://www.neo4j.com/)</desc><g class="layer relationships"><g class="relationship" transform="translate(115.2162361756062 -11.535063570114751) rotate(390.92168444936294)"><path class="outline" fill="#A5ABB6" stroke="none" d="M 25 0.5 L 33.324322568977266 0.5 L 33.324322568977266 -0.5 L 25 -0.5 Z M 68.1076553936843 0.5 L 76.43197796266156 0.5 L 76.43197796266156 3.5 L 83.43197796266156 0 L 76.43197796266156 -3.5 L 76.43197796266156 -0.5 L 68.1076553936843 -0.5 Z"/><text text-anchor="middle" pointer-events="none" font-size="8px" fill="#000000" x="50.71598898133078" y="3" font-family="sans-serif">ORIGIN</text></g><g class="relationship" transform="translate(115.2162361756062 -11.535063570114751) rotate(509.15013623206283)"><path class="outline" fill="#A5ABB6" stroke="none" d="M 25 0.5 L 25.88230681223493 0.5 L 25.88230681223493 -0.5 L 25 -0.5 Z M 74.88230681223493 0.5 L 75.76461362446986 0.5 L 75.76461362446986 3.5 L 82.76461362446986 0 L 75.76461362446986 -3.5 L 75.76461362446986 -0.5 L 74.88230681223493 -0.5 Z"/><text text-anchor="middle" pointer-events="none" font-size="8px" fill="#000000" x="50.38230681223493" y="3" transform="rotate(180 50.38230681223493 0)" font-family="sans-serif">DESTINA…</text></g><g class="relationship" transform="translate(-1.4497211385070905 148.7212541854708) rotate(282.9525195660568)"><path class="outline" fill="#A5ABB6" stroke="none" d="M 25 0.5 L 32.976794217100604 0.5 L 32.976794217100604 -0.5 L 25 -0.5 Z M 67.76012704180764 0.5 L 75.73692125890824 0.5 L 75.73692125890824 3.5 L 82.73692125890824 0 L 75.73692125890824 -3.5 L 75.73692125890824 -0.5 L 67.76012704180764 -0.5 Z"/><text text-anchor="middle" pointer-events="none" font-size="8px" fill="#000000" x="50.36846062945412" y="3" font-family="sans-serif">ORIGIN</text></g><g class="relationship" transform="translate(-1.4497211385070905 148.7212541854708) rotate(401.1840839715886)"><path class="outline" fill="#A5ABB6" stroke="none" d="M 25 0.5 L 26.196558153252575 0.5 L 26.196558153252575 -0.5 L 25 -0.5 Z M 75.19655815325257 0.5 L 76.39311630650515 0.5 L 76.39311630650515 3.5 L 83.39311630650515 0 L 76.39311630650515 -3.5 L 76.39311630650515 -0.5 L 75.19655815325257 -0.5 Z"/><text text-anchor="middle" pointer-events="none" font-size="8px" fill="#000000" x="50.696558153252575" y="3" font-family="sans-serif">DESTINA…</text></g></g><g class="layer nodes"><g class="node" transform="translate(208.23682990228664,44.18443918817429)"><circle class="outline" cx="0" cy="0" r="25" fill="#ECB5C9" stroke="#da7298" stroke-width="2px"/><text text-anchor="middle" pointer-events="none" font-family="sans-serif" dy="1.5625" font-size="25" fill="#2A2C34"/><text text-anchor="middle" pointer-events="none" x="0" y="5" font-size="10px" fill="#2A2C34" font-family="sans-serif"> MSN</text></g><g class="node" transform="translate(80.12670572280788,220.0959993211004)"><circle class="outline" cx="0" cy="0" r="25" fill="#ECB5C9" stroke="#da7298" stroke-width="2px"/><text text-anchor="middle" pointer-events="none" font-family="sans-serif" dy="1.5625" font-size="25" fill="#2A2C34"/><text text-anchor="middle" pointer-events="none" x="0" y="5" font-size="10px" fill="#2A2C34" font-family="sans-serif"> GRR</text></g><g class="node" transform="translate(115.2162361756062,-11.535063570114751)"><circle class="outline" cx="0" cy="0" r="25" fill="#4C8EDA" stroke="#2870c2" stroke-width="2px"/><text text-anchor="middle" pointer-events="none" font-family="sans-serif" dy="1.5625" font-size="25" fill="#FFFFFF"/><text text-anchor="middle" pointer-events="none" x="0" y="5" font-size="10px" fill="#FFFFFF" font-family="sans-serif"> 11/30/2…</text></g><g class="node" transform="translate(22.69881233342319,43.72557554342737)"><circle class="outline" cx="0" cy="0" r="25" fill="#ECB5C9" stroke="#da7298" stroke-width="2px"/><text text-anchor="middle" pointer-events="none" font-family="sans-serif" dy="1.5625" font-size="25" fill="#2A2C34"/><text text-anchor="middle" pointer-events="none" x="0" y="5" font-size="10px" fill="#2A2C34" font-family="sans-serif"> ORD</text></g><g class="node" transform="translate(-1.4497211385070905,148.7212541854708)"><circle class="outline" cx="0" cy="0" r="25" fill="#4C8EDA" stroke="#2870c2" stroke-width="2px"/><text text-anchor="middle" pointer-events="none" font-family="sans-serif" dy="1.5625" font-size="25" fill="#FFFFFF"/><text text-anchor="middle" pointer-events="none" x="0" y="5" font-size="10px" fill="#FFFFFF" font-family="sans-serif"> 11/24/2…</text></g></g></svg>