<svg xmlns="http://www.w3.org/2000/svg" width="363.0802001953125" height="364.562255859375" viewBox="-89.75965118408203 -76.47499084472656 363.0802001953125 364.562255859375"><title>Neo4j Graph Visualization</title><desc>Created using Neo4j (http://www.neo4j.com/)</desc><g class="layer relationships"><g class="relationship" transform="translate(135.2177188789304 259.08725931032365) rotate(330.2157325576138)"><path class="outline" fill="#A5ABB6" stroke="none" d="M 21.40063509461097,12.933012701892217 L 21.90063509461097,12.06698729810778 A 57.544769002691524 57.544769002691524 0 0 0 24.351150497058754,13.403619305902097 L 23.89373500030584,14.292872398857241 A 58.544769002691524 58.544769002691524 0 0 1 21.40063509461097,12.933012701892217 Z M 74.12540771534293,15.873860861996171 L 73.72481875549397,14.957602991499485 A 57.544769002691524 57.544769002691524 0 0 0 76.25453883465926,13.777718597602345 L 74.92088924241712,11.090456279719628 L 82.74709250842594,11.11374660201781 L 78.0327382909821,17.360735021445965 L 76.69908869873996,14.673472703563249 A 58.544769002691524 58.544769002691524 0 0 1 74.12540771534293,15.873860861996171"/><text text-anchor="middle" pointer-events="none" font-size="8px" fill="#000000" x="48.847026437045635" y="23.247796006362385" font-family="sans-serif">PRODUCED</text></g><g class="relationship" transform="translate(135.2177188789304 259.08725931032365) rotate(330.2157325576138)"><path class="outline" fill="#A5ABB6" stroke="none" d="M 25 0.5 L 25.653806547840496 0.5 L 25.653806547840496 -0.5 L 25 -0.5 Z M 72.48713860960808 0.5 L 73.14094515744857 0.5 L 73.14094515744857 3.5 L 80.14094515744857 0 L 73.14094515744857 -3.5 L 73.14094515744857 -0.5 L 72.48713860960808 -0.5 Z"/><text text-anchor="middle" pointer-events="none" font-size="8px" fill="#000000" x="49.070472578724285" y="3" font-family="sans-serif">DIRECTED</text></g><g class="relationship" transform="translate(135.2177188789304 259.08725931032365) rotate(330.2157325576138)"><path class="outline" fill="#A5ABB6" stroke="none" d="M 21.40063509461097,-12.933012701892217 L 21.90063509461097,-12.06698729810778 A 57.544769002691524 57.544769002691524 0 0 1 31.529875499856132,-16.499061239864716 L 31.197210264981262,-17.44210622368344 A 58.544769002691524 58.544769002691524 0 0 0 21.40063509461097,-12.933012701892217 Z M 66.63834651511687,-18.55757828550123 L 66.36564363847853,-17.59547998435255 A 57.544769002691524 57.544769002691524 0 0 1 76.25453883465926,-13.777718597602345 L 74.92088924241712,-11.090456279719628 L 82.74709250842594,-11.11374660201781 L 78.0327382909821,-17.360735021445965 L 76.69908869873996,-14.673472703563249 A 58.544769002691524 58.544769002691524 0 0 0 66.63834651511687,-18.55757828550123"/><text text-anchor="middle" pointer-events="none" font-size="8px" fill="#000000" x="48.84702643704562" y="-17.247796006362385" font-family="sans-serif">WROTE</text></g><g class="relationship" transform="translate(244.32056098867614 16.995868331463566) rotate(203.16704434778802)"><path class="outline" fill="#A5ABB6" stroke="none" d="M 24.018736134675446,6.953439040707552 L 24.277555179777966,5.987513214418485 A 99.5813717399934 99.5813717399934 0 0 0 25.381422972088675,6.27652544610244 L 25.13368901020024,7.245353544439325 A 100.5813717399934 100.5813717399934 0 0 1 24.018736134675446,6.953439040707552 Z M 71.76647754882492,8.008536283412994 L 71.55057905341131,7.032120470514556 A 99.5813717399934 99.5813717399934 0 0 0 72.66331298354353,6.779384692089367 L 71.98209514536005,3.8577512008826718 L 79.59399410272307,5.67681531819569 L 73.57160343445484,10.674896013698294 L 72.89038559627136,7.753262522491599 A 100.5813717399934 100.5813717399934 0 0 1 71.76647754882492,8.008536283412994"/><text text-anchor="middle" pointer-events="none" font-size="8px" fill="#000000" x="48.41341863992407" y="12.867266002785655" transform="rotate(180 48.41341863992407 9.867266002785655)" font-family="sans-serif">DIRECTED</text></g><g class="relationship" transform="translate(244.32056098867614 16.995868331463566) rotate(203.16704434778802)"><path class="outline" fill="#A5ABB6" stroke="none" d="M 24.018736134675446,-6.953439040707552 L 24.277555179777966,-5.987513214418485 A 99.5813717399934 99.5813717399934 0 0 1 30.774870918581396,-7.497176583496596 L 30.581298170304027,-8.478262507931532 A 100.5813717399934 100.5813717399934 0 0 0 24.018736134675446,-6.953439040707552 Z M 66.28144150578566,-9.062523797602395 L 66.12007632949617,-8.075629031236161 A 99.5813717399934 99.5813717399934 0 0 1 72.66331298354353,-6.779384692089367 L 71.98209514536005,-3.8577512008826718 L 79.59399410272307,-5.67681531819569 L 73.57160343445484,-10.674896013698294 L 72.89038559627136,-7.753262522491599 A 100.5813717399934 100.5813717399934 0 0 0 66.28144150578566,-9.062523797602395"/><text text-anchor="middle" pointer-events="none" font-size="8px" fill="#000000" x="48.41341863992403" y="-6.867266002785655" transform="rotate(180 48.41341863992403 -9.867266002785655)" font-family="sans-serif">WROTE</text></g><g class="relationship" transform="translate(47.61689150275416 -47.47499542207228) rotate(373.12262310060487)"><path class="outline" fill="#A5ABB6" stroke="none" d="M 24.018736134675446,6.953439040707552 L 24.277555179777966,5.987513214418485 A 99.41203109735675 99.41203109735675 0 0 0 25.340149152524447,6.265951473341261 L 25.092018893889893,7.234678150350803 A 100.41203109735675 100.41203109735675 0 0 1 24.018736134675446,6.953439040707552 Z M 71.72374196938291,7.998426652730259 L 71.50746848510065,7.0220938303810385 A 99.41203109735675 99.41203109735675 0 0 0 72.57861077810745,6.778602551109951 L 71.8974659994869,3.8569520260543 L 79.50931946634073,5.676206488504604 L 73.48680381626819,10.674136584517486 L 72.80565903764764,7.752486059461835 A 100.41203109735675 100.41203109735675 0 0 1 71.72374196938291,7.998426652730259"/><text text-anchor="middle" pointer-events="none" font-size="8px" fill="#000000" x="48.37111203042695" y="12.861498084295903" font-family="sans-serif">DIRECTED</text></g><g class="relationship" transform="translate(47.61689150275416 -47.47499542207228) rotate(373.12262310060487)"><path class="outline" fill="#A5ABB6" stroke="none" d="M 24.018736134675446,-6.953439040707552 L 24.277555179777966,-5.987513214418485 A 99.41203109735675 99.41203109735675 0 0 1 30.733106619305328,-7.488544038650488 L 30.539224899879265,-8.46956895111316 A 100.41203109735675 100.41203109735675 0 0 0 24.018736134675446,-6.953439040707552 Z M 66.23901760871935,-9.054270982657073 L 66.07736630766277,-8.067423042563604 A 99.41203109735675 99.41203109735675 0 0 1 72.57861077810745,-6.778602551109951 L 71.8974659994869,-3.8569520260543 L 79.50931946634073,-5.676206488504604 L 73.48680381626819,-10.674136584517486 L 72.80565903764764,-7.752486059461835 A 100.41203109735675 100.41203109735675 0 0 0 66.23901760871935,-9.054270982657073"/><text text-anchor="middle" pointer-events="none" font-size="8px" fill="#000000" x="48.37111203042692" y="-6.861498084295903" font-family="sans-serif">WROTE</text></g><g class="relationship" transform="translate(-60.75965014754883 94.80518213042785) rotate(432.30155293111784)"><path class="outline" fill="#A5ABB6" stroke="none" d="M 21.40063509461097,12.933012701892217 L 21.90063509461097,12.06698729810778 A 57.14493710315776 57.14493710315776 0 0 0 31.342116053757305,16.425481943017907 L 31.007335956652685,17.367778226881228 A 58.14493710315776 58.14493710315776 0 0 1 21.40063509461097,12.933012701892217 Z M 66.44261656733967,18.48694930041718 L 66.16796646508197,17.525405062573782 A 57.14493710315776 57.14493710315776 0 0 0 75.86566897377698,13.771393298542709 L 74.53260781657863,11.083839029105707 L 82.35880579532969,11.108842976652767 L 77.64308385004142,17.354798991125374 L 76.31002269284308,14.667244721688373 A 58.14493710315776 58.14493710315776 0 0 1 66.44261656733967,18.48694930041718"/><text text-anchor="middle" pointer-events="none" font-size="8px" fill="#000000" x="48.653380707952536" y="23.19422770250928" font-family="sans-serif">WROTE</text></g><g class="relationship" transform="translate(-60.75965014754883 94.80518213042785) rotate(432.30155293111784)"><path class="outline" fill="#A5ABB6" stroke="none" d="M 25 0.5 L 25.460879656101888 0.5 L 25.460879656101888 -0.5 L 25 -0.5 Z M 72.29421171786947 0.5 L 72.75509137397135 0.5 L 72.75509137397135 3.5 L 79.75509137397135 0 L 72.75509137397135 -3.5 L 72.75509137397135 -0.5 L 72.29421171786947 -0.5 Z"/><text text-anchor="middle" pointer-events="none" font-size="8px" fill="#000000" x="48.87754568698568" y="3" font-family="sans-serif">DIRECTED</text></g><g class="relationship" transform="translate(-60.75965014754883 94.80518213042785) rotate(432.30155293111784)"><path class="outline" fill="#A5ABB6" stroke="none" d="M 21.40063509461097,-12.933012701892217 L 21.90063509461097,-12.06698729810778 A 57.14493710315776 57.14493710315776 0 0 1 24.172330618262748,-13.31078240921169 L 23.71208384293689,-14.198573435186923 A 58.14493710315776 58.14493710315776 0 0 0 21.40063509461097,-12.933012701892217 Z M 73.92331870310505,-15.784421230196969 L 73.52001247860417,-14.869356156402297 A 57.14493710315776 57.14493710315776 0 0 1 75.86566897377698,-13.771393298542709 L 74.53260781657863,-11.083839029105707 L 82.35880579532969,-11.108842976652767 L 77.64308385004142,-17.354798991125374 L 76.31002269284308,-14.667244721688373 A 58.14493710315776 58.14493710315776 0 0 0 73.92331870310505,-15.784421230196969"/><text text-anchor="middle" pointer-events="none" font-size="8px" fill="#000000" x="48.653380707952536" y="-17.19422770250928" font-family="sans-serif">PRODUCED</text></g></g><g class="layer nodes"><g class="node" transform="translate(135.2177188789304,259.08725931032365)"><circle class="outline" cx="0" cy="0" r="25" fill="#F79767" stroke="#f36924" stroke-width="2px"/><text text-anchor="middle" pointer-events="none" font-family="sans-serif" dy="1.5625" font-size="25" fill="#FFFFFF"/><text text-anchor="middle" pointer-events="none" x="0" y="5" font-size="10px" fill="#FFFFFF" font-family="sans-serif"> Cameron</text></g><g class="node" transform="translate(226.46974307885674,206.86000179073272)"><circle class="outline" cx="0" cy="0" r="25" fill="#57C7E3" stroke="#23b3d7" stroke-width="2px"/><text text-anchor="middle" pointer-events="none" font-family="sans-serif" dy="1.5625" font-size="25" fill="#2A2C34"/><text text-anchor="middle" pointer-events="none" font-family="sans-serif" dy="1.5625" font-size="25" fill="#2A2C34"/><text text-anchor="middle" pointer-events="none" x="0" y="0" font-size="10px" fill="#2A2C34" font-family="sans-serif"> Jerry</text><text text-anchor="middle" pointer-events="none" x="0" y="10" font-size="10px" fill="#2A2C34" font-family="sans-serif"> Maguire</text></g><g class="node" transform="translate(244.32056098867614,16.995868331463566)"><circle class="outline" cx="0" cy="0" r="25" fill="#F79767" stroke="#f36924" stroke-width="2px"/><text text-anchor="middle" pointer-events="none" font-family="sans-serif" dy="1.5625" font-size="25" fill="#FFFFFF"/><text text-anchor="middle" pointer-events="none" font-family="sans-serif" dy="1.5625" font-size="25" fill="#FFFFFF"/><text text-anchor="middle" pointer-events="none" x="0" y="0" font-size="10px" fill="#FFFFFF" font-family="sans-serif"> Lana</text><text text-anchor="middle" pointer-events="none" x="0" y="10" font-size="10px" fill="#FFFFFF" font-family="sans-serif"> Wacho…</text></g><g class="node" transform="translate(148.76123386167856,-23.89586651304109)"><circle class="outline" cx="0" cy="0" r="25" fill="#57C7E3" stroke="#23b3d7" stroke-width="2px"/><text text-anchor="middle" pointer-events="none" font-family="sans-serif" dy="1.5625" font-size="25" fill="#2A2C34"/><text text-anchor="middle" pointer-events="none" font-family="sans-serif" dy="1.5625" font-size="25" fill="#2A2C34"/><text text-anchor="middle" pointer-events="none" x="0" y="0" font-size="10px" fill="#2A2C34" font-family="sans-serif"> Speed</text><text text-anchor="middle" pointer-events="none" x="0" y="10" font-size="10px" fill="#2A2C34" font-family="sans-serif"> Racer</text></g><g class="node" transform="translate(47.61689150275416,-47.47499542207228)"><circle class="outline" cx="0" cy="0" r="25" fill="#F79767" stroke="#f36924" stroke-width="2px"/><text text-anchor="middle" pointer-events="none" font-family="sans-serif" dy="1.5625" font-size="25" fill="#FFFFFF"/><text text-anchor="middle" pointer-events="none" font-family="sans-serif" dy="1.5625" font-size="25" fill="#FFFFFF"/><text text-anchor="middle" pointer-events="none" x="0" y="0" font-size="10px" fill="#FFFFFF" font-family="sans-serif"> Lilly</text><text text-anchor="middle" pointer-events="none" x="0" y="10" font-size="10px" fill="#FFFFFF" font-family="sans-serif"> Wacho…</text></g><g class="node" transform="translate(-60.75965014754883,94.80518213042785)"><circle class="outline" cx="0" cy="0" r="25" fill="#F79767" stroke="#f36924" stroke-width="2px"/><text text-anchor="middle" pointer-events="none" font-family="sans-serif" dy="1.5625" font-size="25" fill="#FFFFFF"/><text text-anchor="middle" pointer-events="none" font-family="sans-serif" dy="1.5625" font-size="25" fill="#FFFFFF"/><text text-anchor="middle" pointer-events="none" x="0" y="0" font-size="10px" fill="#FFFFFF" font-family="sans-serif"> Nancy</text><text text-anchor="middle" pointer-events="none" x="0" y="10" font-size="10px" fill="#FFFFFF" font-family="sans-serif"> Meyers</text></g><g class="node" transform="translate(-28.913343932036515,194.6021858389406)"><circle class="outline" cx="0" cy="0" r="25" fill="#57C7E3" stroke="#23b3d7" stroke-width="2px"/><text text-anchor="middle" pointer-events="none" font-family="sans-serif" dy="1.5625" font-size="25" fill="#2A2C34"/><text text-anchor="middle" pointer-events="none" x="0" y="5" font-size="10px" fill="#2A2C34" font-family="sans-serif"> Someth…</text></g></g></svg>