<svg xmlns="http://www.w3.org/2000/svg" width="776.3472290039062" height="393.8418273925781" viewBox="-718.7987670898438 -120.54080200195312 776.3472290039062 393.8418273925781"><title>Neo4j Graph Visualization</title><desc>Created using Neo4j (http://www.neo4j.com/)</desc><g class="layer relationships"><g class="relationship" transform="translate(-109.68682547688894 244.30100762587517) rotate(180.3107314991596)"><path class="outline" fill="#A5ABB6" stroke="none" d="M 25 0.5 L 134.2705982018356 0.5 L 134.2705982018356 -0.5 L 25 -0.5 Z M 181.1039302636032 0.5 L 290.3745284654388 0.5 L 290.3745284654388 3.5 L 297.3745284654388 0 L 290.3745284654388 -3.5 L 290.3745284654388 -0.5 L 181.1039302636032 -0.5 Z"/><text text-anchor="middle" pointer-events="none" font-size="8px" fill="#000000" x="157.6872642327194" y="3" transform="rotate(180 157.6872642327194 0)" font-family="sans-serif">DIRECTED</text></g><g class="relationship" transform="translate(-689.7987973461798 89.85674894905293) rotate(390.64405829877154)"><path class="outline" fill="#A5ABB6" stroke="none" d="M 25 0.5 L 123.60575497655284 0.5 L 123.60575497655284 -0.5 L 25 -0.5 Z M 168.97241986302745 0.5 L 267.5781748395803 0.5 L 267.5781748395803 3.5 L 274.5781748395803 0 L 267.5781748395803 -3.5 L 267.5781748395803 -0.5 L 168.97241986302745 -0.5 Z"/><text text-anchor="middle" pointer-events="none" font-size="8px" fill="#000000" x="146.28908741979015" y="3" font-family="sans-serif">ACTED_IN</text></g><g class="relationship" transform="translate(-689.7987973461798 89.85674894905293) rotate(372.9271627734674)"><path class="outline" fill="#A5ABB6" stroke="none" d="M 25 0.5 L 107.58457136394512 0.5 L 107.58457136394512 -0.5 L 25 -0.5 Z M 152.95123625041973 0.5 L 235.53580761436484 0.5 L 235.53580761436484 3.5 L 242.53580761436484 0 L 235.53580761436484 -3.5 L 235.53580761436484 -0.5 L 152.95123625041973 -0.5 Z"/><text text-anchor="middle" pointer-events="none" font-size="8px" fill="#000000" x="130.26790380718242" y="3" font-family="sans-serif">ACTED_IN</text></g><g class="relationship" transform="translate(-689.7987973461798 89.85674894905293) rotate(338.48640873441855)"><path class="outline" fill="#A5ABB6" stroke="none" d="M 25 0.5 L 117.86568401538864 0.5 L 117.86568401538864 -0.5 L 25 -0.5 Z M 163.23234890186325 0.5 L 256.0980329172519 0.5 L 256.0980329172519 3.5 L 263.0980329172519 0 L 256.0980329172519 -3.5 L 256.0980329172519 -0.5 L 163.23234890186325 -0.5 Z"/><text text-anchor="middle" pointer-events="none" font-size="8px" fill="#000000" x="140.54901645862594" y="3" font-family="sans-serif">ACTED_IN</text></g><g class="relationship" transform="translate(-689.7987973461798 89.85674894905293) rotate(353.8170984581534)"><path class="outline" fill="#A5ABB6" stroke="none" d="M 25 0.5 L 110.77578893706075 0.5 L 110.77578893706075 -0.5 L 25 -0.5 Z M 156.14245382353536 0.5 L 241.91824276059612 0.5 L 241.91824276059612 3.5 L 248.91824276059612 0 L 241.91824276059612 -3.5 L 241.91824276059612 -0.5 L 156.14245382353536 -0.5 Z"/><text text-anchor="middle" pointer-events="none" font-size="8px" fill="#000000" x="133.45912138029806" y="3" font-family="sans-serif">ACTED_IN</text></g><g class="relationship" transform="translate(-689.7987973461798 89.85674894905293) rotate(326.20530448861183)"><path class="outline" fill="#A5ABB6" stroke="none" d="M 25 0.5 L 136.87982444375706 0.5 L 136.87982444375706 -0.5 L 25 -0.5 Z M 182.24648933023167 0.5 L 294.1263137739887 0.5 L 294.1263137739887 3.5 L 301.1263137739887 0 L 294.1263137739887 -3.5 L 294.1263137739887 -0.5 L 182.24648933023167 -0.5 Z"/><text text-anchor="middle" pointer-events="none" font-size="8px" fill="#000000" x="159.56315688699436" y="3" font-family="sans-serif">ACTED_IN</text></g><g class="relationship" transform="translate(28.54845421029637 -19.303721336189838) rotate(519.7283059631573)"><path class="outline" fill="#A5ABB6" stroke="none" d="M 24.018736134675446,6.953439040707552 L 24.277555179777966,5.987513214418485 A 846.9887860095341 846.9887860095341 0 0 0 214.66241834616275,34.35708598889994 L 214.62837779436632,35.356506441379 A 847.9887860095341 847.9887860095341 0 0 1 24.018736134675446,6.953439040707552 Z M 266.1504877044775,35.54524547440985 L 266.12377024772456,34.545602449373064 A 846.9887860095341 846.9887860095341 0 0 0 456.7113713621012,7.5716319637962055 L 455.9561654223178,4.668243600432497 L 463.61181186658047,6.293382831528764 L 457.7183126151458,11.44281644828115 L 456.9631066753624,8.539428084917441 A 847.9887860095341 847.9887860095341 0 0 1 266.1504877044775,35.54524547440985"/><text text-anchor="middle" pointer-events="none" font-size="8px" fill="#000000" x="240.38983060210364" y="38.34226986159911" transform="rotate(180 240.38983060210364 35.34226986159911)" font-family="sans-serif">PRODUCED</text></g><g class="relationship" transform="translate(28.54845421029637 -19.303721336189838) rotate(519.7283059631573)"><path class="outline" fill="#A5ABB6" stroke="none" d="M 24.018736134675446,-6.953439040707552 L 24.277555179777966,-5.987513214418485 A 846.9887860095341 846.9887860095341 0 0 1 222.54599403694408,-34.58886061848625 L 222.52126125382298,-35.58855471641766 A 847.9887860095341 847.9887860095341 0 0 0 24.018736134675446,-6.953439040707552 Z M 258.2561159943445,-35.7194608835174 L 258.2387080613027,-34.7196124130644 A 846.9887860095341 846.9887860095341 0 0 1 456.7113713621012,-7.5716319637962055 L 455.9561654223178,-4.668243600432497 L 463.61181186658047,-6.293382831528764 L 457.7183126151458,-11.44281644828115 L 456.9631066753624,-8.539428084917441 A 847.9887860095341 847.9887860095341 0 0 0 258.2561159943445,-35.7194608835174"/><text text-anchor="middle" pointer-events="none" font-size="8px" fill="#000000" x="240.38983060210344" y="-32.34226986159911" transform="rotate(180 240.38983060210344 -35.34226986159911)" font-family="sans-serif">WROTE</text></g><g class="relationship" transform="translate(28.54845421029637 -19.303721336189838) rotate(510.38154157013247)"><path class="outline" fill="#A5ABB6" stroke="none" d="M 25 0.5 L 238.0011543831617 0.5 L 238.0011543831617 -0.5 L 25 -0.5 Z M 284.83448644492927 0.5 L 497.83564082809096 0.5 L 497.83564082809096 3.5 L 504.83564082809096 0 L 497.83564082809096 -3.5 L 497.83564082809096 -0.5 L 284.83448644492927 -0.5 Z"/><text text-anchor="middle" pointer-events="none" font-size="8px" fill="#000000" x="261.4178204140455" y="3" transform="rotate(180 261.4178204140455 0)" font-family="sans-serif">DIRECTED</text></g><g class="relationship" transform="translate(28.54845421029637 -19.303721336189838) rotate(539.5535977616099)"><path class="outline" fill="#A5ABB6" stroke="none" d="M 25 0.5 L 198.2505854627474 0.5 L 198.2505854627474 -0.5 L 25 -0.5 Z M 245.083917524515 0.5 L 418.3345029872624 0.5 L 418.3345029872624 3.5 L 425.3345029872624 0 L 418.3345029872624 -3.5 L 418.3345029872624 -0.5 L 245.083917524515 -0.5 Z"/><text text-anchor="middle" pointer-events="none" font-size="8px" fill="#000000" x="221.6672514936312" y="3" transform="rotate(180 221.6672514936312 0)" font-family="sans-serif">DIRECTED</text></g><g class="relationship" transform="translate(28.54845421029637 -19.303721336189838) rotate(529.8738475011562)"><path class="outline" fill="#A5ABB6" stroke="none" d="M 25 0.5 L 199.62331521337788 0.5 L 199.62331521337788 -0.5 L 25 -0.5 Z M 246.45664727514546 0.5 L 421.07996248852334 0.5 L 421.07996248852334 3.5 L 428.07996248852334 0 L 421.07996248852334 -3.5 L 421.07996248852334 -0.5 L 246.45664727514546 -0.5 Z"/><text text-anchor="middle" pointer-events="none" font-size="8px" fill="#000000" x="223.03998124426167" y="3" transform="rotate(180 223.03998124426167 0)" font-family="sans-serif">DIRECTED</text></g><g class="relationship" transform="translate(28.54845421029637 -19.303721336189838) rotate(189.17332691168895)"><path class="outline" fill="#A5ABB6" stroke="none" d="M 25 0.5 L 199.64317848848268 0.5 L 199.64317848848268 -0.5 L 25 -0.5 Z M 246.47651055025025 0.5 L 421.11968903873293 0.5 L 421.11968903873293 3.5 L 428.11968903873293 0 L 421.11968903873293 -3.5 L 421.11968903873293 -0.5 L 246.47651055025025 -0.5 Z"/><text text-anchor="middle" pointer-events="none" font-size="8px" fill="#000000" x="223.05984451936646" y="3" transform="rotate(180 223.05984451936646 0)" font-family="sans-serif">DIRECTED</text></g><g class="relationship" transform="translate(-244.81701003369238 7.035898114063087) rotate(502.2444792972543)"><path class="outline" fill="#A5ABB6" stroke="none" d="M 24.018736134675446,6.953439040707552 L 24.277555179777966,5.987513214418485 A 353.03580780376944 353.03580780376944 0 0 0 87.29943169048633,16.87673249476046 L 87.21912676524822,17.873502838913225 A 354.03580780376944 354.03580780376944 0 0 1 24.018736134675446,6.953439040707552 Z M 138.74490439188767,18.262832263819064 L 138.6796709944734,17.26496223026669 A 353.03580780376944 353.03580780376944 0 0 0 201.85890042039438,7.329320096354552 L 201.12632072729625,4.420140316199977 L 208.76908318960474,6.10483077581796 L 202.83567334452525,11.208226469893983 L 202.10309365142712,8.29904668973941 A 354.03580780376944 354.03580780376944 0 0 1 138.74490439188767,18.262832263819064"/><text text-anchor="middle" pointer-events="none" font-size="8px" fill="#000000" x="112.9787010787181" y="21.506824820200393" transform="rotate(180 112.9787010787181 18.506824820200393)" font-family="sans-serif">PRODUCED</text></g><g class="relationship" transform="translate(-244.81701003369238 7.035898114063087) rotate(502.2444792972543)"><path class="outline" fill="#A5ABB6" stroke="none" d="M 24.018736134675446,-6.953439040707552 L 24.277555179777966,-5.987513214418485 A 353.03580780376944 353.03580780376944 0 0 1 95.16089631809808,-17.421856270907426 L 95.10285957204698,-18.420170718417694 A 354.03580780376944 354.03580780376944 0 0 0 24.018736134675446,-6.953439040707552 Z M 130.85381096362212,-18.690305357548766 L 130.8108665360079,-17.691227895018017 A 353.03580780376944 353.03580780376944 0 0 1 201.85890042039438,-7.329320096354552 L 201.12632072729625,-4.420140316199977 L 208.76908318960474,-6.10483077581796 L 202.83567334452525,-11.208226469893983 L 202.10309365142712,-8.29904668973941 A 354.03580780376944 354.03580780376944 0 0 0 130.85381096362212,-18.690305357548766"/><text text-anchor="middle" pointer-events="none" font-size="8px" fill="#000000" x="112.97870107871806" y="-15.506824820200393" transform="rotate(180 112.97870107871806 -18.506824820200393)" font-family="sans-serif">WROTE</text></g><g class="relationship" transform="translate(-244.81701003369238 7.035898114063087) rotate(488.48525939180377)"><path class="outline" fill="#A5ABB6" stroke="none" d="M 25 0.5 L 123.52171546363647 0.5 L 123.52171546363647 -0.5 L 25 -0.5 Z M 170.35504752540405 0.5 L 268.8767629890405 0.5 L 268.8767629890405 3.5 L 275.8767629890405 0 L 268.8767629890405 -3.5 L 268.8767629890405 -0.5 L 170.35504752540405 -0.5 Z"/><text text-anchor="middle" pointer-events="none" font-size="8px" fill="#000000" x="146.93838149452026" y="3" transform="rotate(180 146.93838149452026 0)" font-family="sans-serif">DIRECTED</text></g><g class="relationship" transform="translate(-244.81701003369238 7.035898114063087) rotate(187.35176237532812)"><path class="outline" fill="#A5ABB6" stroke="none" d="M 25 0.5 L 62.29440161777488 0.5 L 62.29440161777488 -0.5 L 25 -0.5 Z M 109.12773367954246 0.5 L 146.42213529731734 0.5 L 146.42213529731734 3.5 L 153.42213529731734 0 L 146.42213529731734 -3.5 L 146.42213529731734 -0.5 L 109.12773367954246 -0.5 Z"/><text text-anchor="middle" pointer-events="none" font-size="8px" fill="#000000" x="85.71106764865867" y="3" transform="rotate(180 85.71106764865867 0)" font-family="sans-serif">DIRECTED</text></g><g class="relationship" transform="translate(-244.81701003369238 7.035898114063087) rotate(522.8385007146057)"><path class="outline" fill="#A5ABB6" stroke="none" d="M 25 0.5 L 63.43449515099482 0.5 L 63.43449515099482 -0.5 L 25 -0.5 Z M 110.2678272127624 0.5 L 148.70232236375722 0.5 L 148.70232236375722 3.5 L 155.70232236375722 0 L 148.70232236375722 -3.5 L 148.70232236375722 -0.5 L 110.2678272127624 -0.5 Z"/><text text-anchor="middle" pointer-events="none" font-size="8px" fill="#000000" x="86.85116118187861" y="3" transform="rotate(180 86.85116118187861 0)" font-family="sans-serif">DIRECTED</text></g><g class="relationship" transform="translate(-244.81701003369238 7.035898114063087) rotate(209.53875208683849)"><path class="outline" fill="#A5ABB6" stroke="none" d="M 25 0.5 L 73.05724346954676 0.5 L 73.05724346954676 -0.5 L 25 -0.5 Z M 119.89057553131434 0.5 L 167.9478190008611 0.5 L 167.9478190008611 3.5 L 174.9478190008611 0 L 167.9478190008611 -3.5 L 167.9478190008611 -0.5 L 119.89057553131434 -0.5 Z"/><text text-anchor="middle" pointer-events="none" font-size="8px" fill="#000000" x="96.47390950043055" y="3" transform="rotate(180 96.47390950043055 0)" font-family="sans-serif">DIRECTED</text></g><g class="relationship" transform="translate(-104.85176302379315 155.86273225000593) rotate(181.08766069217245)"><path class="outline" fill="#A5ABB6" stroke="none" d="M 25 0.5 L 135.20847306923704 0.5 L 135.20847306923704 -0.5 L 25 -0.5 Z M 182.04180513100462 0.5 L 292.25027820024167 0.5 L 292.25027820024167 3.5 L 299.25027820024167 0 L 292.25027820024167 -3.5 L 292.25027820024167 -0.5 L 182.04180513100462 -0.5 Z"/><text text-anchor="middle" pointer-events="none" font-size="8px" fill="#000000" x="158.62513910012083" y="3" transform="rotate(180 158.62513910012083 0)" font-family="sans-serif">DIRECTED</text></g></g><g class="layer nodes"><g class="node" transform="translate(-109.68682547688894,244.30100762587517)"><circle class="outline" cx="0" cy="0" r="25" fill="#F79767" stroke="#f36924" stroke-width="2px"/><text text-anchor="middle" pointer-events="none" font-family="sans-serif" dy="1.5625" font-size="25" fill="#FFFFFF"/><text text-anchor="middle" pointer-events="none" font-family="sans-serif" dy="1.5625" font-size="25" fill="#FFFFFF"/><text text-anchor="middle" pointer-events="none" x="0" y="0" font-size="10px" fill="#FFFFFF" font-family="sans-serif"> Tom</text><text text-anchor="middle" pointer-events="none" x="0" y="10" font-size="10px" fill="#FFFFFF" font-family="sans-serif"> Tykwer</text></g><g class="node" transform="translate(-689.7987973461798,89.85674894905293)"><circle class="outline" cx="0" cy="0" r="25" fill="#F79767" stroke="#f36924" stroke-width="2px"/><text text-anchor="middle" pointer-events="none" font-family="sans-serif" dy="1.5625" font-size="25" fill="#FFFFFF"/><text text-anchor="middle" pointer-events="none" font-family="sans-serif" dy="1.5625" font-size="25" fill="#FFFFFF"/><text text-anchor="middle" pointer-events="none" x="0" y="0" font-size="10px" fill="#FFFFFF" font-family="sans-serif"> Hugo</text><text text-anchor="middle" pointer-events="none" x="0" y="10" font-size="10px" fill="#FFFFFF" font-family="sans-serif"> Weavi…</text></g><g class="node" transform="translate(-432.0566131060695,242.55268636505366)"><circle class="outline" cx="0" cy="0" r="25" fill="#57C7E3" stroke="#23b3d7" stroke-width="2px"/><text text-anchor="middle" pointer-events="none" font-family="sans-serif" dy="1.5625" font-size="25" fill="#2A2C34"/><text text-anchor="middle" pointer-events="none" font-family="sans-serif" dy="1.5625" font-size="25" fill="#2A2C34"/><text text-anchor="middle" pointer-events="none" x="0" y="0" font-size="10px" fill="#2A2C34" font-family="sans-serif"> Cloud</text><text text-anchor="middle" pointer-events="none" x="0" y="10" font-size="10px" fill="#2A2C34" font-family="sans-serif"> Atlas</text></g><g class="node" transform="translate(28.54845421029637,-19.303721336189838)"><circle class="outline" cx="0" cy="0" r="25" fill="#F79767" stroke="#f36924" stroke-width="2px"/><text text-anchor="middle" pointer-events="none" font-family="sans-serif" dy="1.5625" font-size="25" fill="#FFFFFF"/><text text-anchor="middle" pointer-events="none" font-family="sans-serif" dy="1.5625" font-size="25" fill="#FFFFFF"/><text text-anchor="middle" pointer-events="none" x="0" y="0" font-size="10px" fill="#FFFFFF" font-family="sans-serif"> Lana</text><text text-anchor="middle" pointer-events="none" x="0" y="10" font-size="10px" fill="#FFFFFF" font-family="sans-serif"> Wacho…</text></g><g class="node" transform="translate(-244.81701003369238,7.035898114063087)"><circle class="outline" cx="0" cy="0" r="25" fill="#F79767" stroke="#f36924" stroke-width="2px"/><text text-anchor="middle" pointer-events="none" font-family="sans-serif" dy="1.5625" font-size="25" fill="#FFFFFF"/><text text-anchor="middle" pointer-events="none" font-family="sans-serif" dy="1.5625" font-size="25" fill="#FFFFFF"/><text text-anchor="middle" pointer-events="none" x="0" y="0" font-size="10px" fill="#FFFFFF" font-family="sans-serif"> Lilly</text><text text-anchor="middle" pointer-events="none" x="0" y="10" font-size="10px" fill="#FFFFFF" font-family="sans-serif"> Wacho…</text></g><g class="node" transform="translate(-104.85176302379315,155.86273225000593)"><circle class="outline" cx="0" cy="0" r="25" fill="#F79767" stroke="#f36924" stroke-width="2px"/><text text-anchor="middle" pointer-events="none" font-family="sans-serif" dy="1.5625" font-size="25" fill="#FFFFFF"/><text text-anchor="middle" pointer-events="none" font-family="sans-serif" dy="1.5625" font-size="25" fill="#FFFFFF"/><text text-anchor="middle" pointer-events="none" x="0" y="0" font-size="10px" fill="#FFFFFF" font-family="sans-serif"> James</text><text text-anchor="middle" pointer-events="none" x="0" y="10" font-size="10px" fill="#FFFFFF" font-family="sans-serif"> Marshall</text></g><g class="node" transform="translate(-429.0436188875337,149.70777452815292)"><circle class="outline" cx="0" cy="0" r="25" fill="#57C7E3" stroke="#23b3d7" stroke-width="2px"/><text text-anchor="middle" pointer-events="none" font-family="sans-serif" dy="1.5625" font-size="25" fill="#2A2C34"/><text text-anchor="middle" pointer-events="none" font-family="sans-serif" dy="1.5625" font-size="25" fill="#2A2C34"/><text text-anchor="middle" pointer-events="none" x="0" y="0" font-size="10px" fill="#2A2C34" font-family="sans-serif"> V for</text><text text-anchor="middle" pointer-events="none" x="0" y="10" font-size="10px" fill="#2A2C34" font-family="sans-serif"> Vendet…</text></g><g class="node" transform="translate(-421.7723806031776,-15.795115675744345)"><circle class="outline" cx="0" cy="0" r="25" fill="#57C7E3" stroke="#23b3d7" stroke-width="2px"/><text text-anchor="middle" pointer-events="none" font-family="sans-serif" dy="1.5625" font-size="25" fill="#2A2C34"/><text text-anchor="middle" pointer-events="none" font-family="sans-serif" dy="1.5625" font-size="25" fill="#2A2C34"/><text text-anchor="middle" pointer-events="none" font-family="sans-serif" dy="1.5625" font-size="25" fill="#2A2C34"/><text text-anchor="middle" pointer-events="none" x="0" y="-5" font-size="10px" fill="#2A2C34" font-family="sans-serif"> The</text><text text-anchor="middle" pointer-events="none" x="0" y="5" font-size="10px" fill="#2A2C34" font-family="sans-serif"> Matrix</text><text text-anchor="middle" pointer-events="none" x="0" y="15" font-size="10px" fill="#2A2C34" font-family="sans-serif"> Revol…</text></g><g class="node" transform="translate(-417.47389609519166,60.35502229293239)"><circle class="outline" cx="0" cy="0" r="25" fill="#57C7E3" stroke="#23b3d7" stroke-width="2px"/><text text-anchor="middle" pointer-events="none" font-family="sans-serif" dy="1.5625" font-size="25" fill="#2A2C34"/><text text-anchor="middle" pointer-events="none" font-family="sans-serif" dy="1.5625" font-size="25" fill="#2A2C34"/><text text-anchor="middle" pointer-events="none" font-family="sans-serif" dy="1.5625" font-size="25" fill="#2A2C34"/><text text-anchor="middle" pointer-events="none" x="0" y="-5" font-size="10px" fill="#2A2C34" font-family="sans-serif"> The</text><text text-anchor="middle" pointer-events="none" x="0" y="5" font-size="10px" fill="#2A2C34" font-family="sans-serif"> Matrix</text><text text-anchor="middle" pointer-events="none" x="0" y="15" font-size="10px" fill="#2A2C34" font-family="sans-serif"> Reloa…</text></g><g class="node" transform="translate(-418.7761004883082,-91.54079878436167)"><circle class="outline" cx="0" cy="0" r="25" fill="#57C7E3" stroke="#23b3d7" stroke-width="2px"/><text text-anchor="middle" pointer-events="none" font-family="sans-serif" dy="1.5625" font-size="25" fill="#2A2C34"/><text text-anchor="middle" pointer-events="none" font-family="sans-serif" dy="1.5625" font-size="25" fill="#2A2C34"/><text text-anchor="middle" pointer-events="none" x="0" y="0" font-size="10px" fill="#2A2C34" font-family="sans-serif"> The</text><text text-anchor="middle" pointer-events="none" x="0" y="10" font-size="10px" fill="#2A2C34" font-family="sans-serif"> Matrix</text></g></g></svg>