<svg xmlns="http://www.w3.org/2000/svg" width="366.92919921875" height="483.3994140625" viewBox="-79.05355834960938 -175.72666931152344 366.92919921875 483.3994140625"><title>Neo4j Graph Visualization</title><desc>Created using Neo4j (http://www.neo4j.com/)</desc><g class="layer relationships"><g class="relationship" transform="translate(158.02590329174913 -43.040800987063484) rotate(329.8448020071128)"><path class="outline" fill="#A5ABB6" stroke="none" d="M 25 0.5 L 32.13371220370426 0.5 L 32.13371220370426 -0.5 L 25 -0.5 Z M 77.50037709017887 0.5 L 84.63408929388314 0.5 L 84.63408929388314 3.5 L 91.63408929388314 0 L 84.63408929388314 -3.5 L 84.63408929388314 -0.5 L 77.50037709017887 -0.5 Z"/><text text-anchor="middle" pointer-events="none" font-size="8px" fill="#000000" x="54.81704464694157" y="3" font-family="sans-serif">ACTED_IN</text></g><g class="relationship" transform="translate(158.02590329174913 -43.040800987063484) rotate(241.73950637214875)"><path class="outline" fill="#A5ABB6" stroke="none" d="M 25 0.5 L 32.67531505869735 0.5 L 32.67531505869735 -0.5 L 25 -0.5 Z M 78.04197994517196 0.5 L 85.71729500386931 0.5 L 85.71729500386931 3.5 L 92.71729500386931 0 L 85.71729500386931 -3.5 L 85.71729500386931 -0.5 L 78.04197994517196 -0.5 Z"/><text text-anchor="middle" pointer-events="none" font-size="8px" fill="#000000" x="55.358647501934655" y="3" transform="rotate(180 55.358647501934655 0)" font-family="sans-serif">ACTED_IN</text></g><g class="relationship" transform="translate(158.02590329174913 -43.040800987063484) rotate(448.5240109591853)"><path class="outline" fill="#A5ABB6" stroke="none" d="M 25 0.5 L 42.282576614870365 0.5 L 42.282576614870365 -0.5 L 25 -0.5 Z M 87.64924150134497 0.5 L 104.93181811621534 0.5 L 104.93181811621534 3.5 L 111.93181811621534 0 L 104.93181811621534 -3.5 L 104.93181811621534 -0.5 L 87.64924150134497 -0.5 Z"/><text text-anchor="middle" pointer-events="none" font-size="8px" fill="#000000" x="64.96590905810767" y="3" font-family="sans-serif">ACTED_IN</text></g><g class="relationship" transform="translate(158.02590329174913 -43.040800987063484) rotate(473.26480044409084)"><path class="outline" fill="#A5ABB6" stroke="none" d="M 25 0.5 L 27.145816468773845 0.5 L 27.145816468773845 -0.5 L 25 -0.5 Z M 72.51248135524845 0.5 L 74.6582978240223 0.5 L 74.6582978240223 3.5 L 81.6582978240223 0 L 74.6582978240223 -3.5 L 74.6582978240223 -0.5 L 72.51248135524845 -0.5 Z"/><text text-anchor="middle" pointer-events="none" font-size="8px" fill="#000000" x="49.82914891201115" y="3" transform="rotate(180 49.82914891201115 0)" font-family="sans-serif">ACTED_IN</text></g><g class="relationship" transform="translate(158.02590329174913 -43.040800987063484) rotate(506.3062294640852)"><path class="outline" fill="#A5ABB6" stroke="none" d="M 25 0.5 L 25.891238303205185 0.5 L 25.891238303205185 -0.5 L 25 -0.5 Z M 71.2579031896798 0.5 L 72.14914149288498 0.5 L 72.14914149288498 3.5 L 79.14914149288498 0 L 72.14914149288498 -3.5 L 72.14914149288498 -0.5 L 71.2579031896798 -0.5 Z"/><text text-anchor="middle" pointer-events="none" font-size="8px" fill="#000000" x="48.57457074644249" y="3" transform="rotate(180 48.57457074644249 0)" font-family="sans-serif">ACTED_IN</text></g><g class="relationship" transform="translate(17.211859679794326 82.63060526155105) rotate(364.44282610188424)"><path class="outline" fill="#A5ABB6" stroke="none" d="M 25 0.5 L 46.20475238708012 0.5 L 46.20475238708012 -0.5 L 25 -0.5 Z M 91.57141727355473 0.5 L 112.77616966063485 0.5 L 112.77616966063485 3.5 L 119.77616966063485 0 L 112.77616966063485 -3.5 L 112.77616966063485 -0.5 L 91.57141727355473 -0.5 Z"/><text text-anchor="middle" pointer-events="none" font-size="8px" fill="#000000" x="68.88808483031742" y="3" font-family="sans-serif">ACTED_IN</text></g><g class="relationship" transform="translate(17.211859679794326 82.63060526155105) rotate(344.3289585033874)"><path class="outline" fill="#A5ABB6" stroke="none" d="M 25 0.5 L 25.0646490300946 0.5 L 25.0646490300946 -0.5 L 25 -0.5 Z M 70.43131391656921 0.5 L 70.49596294666381 0.5 L 70.49596294666381 3.5 L 77.49596294666381 0 L 70.49596294666381 -3.5 L 70.49596294666381 -0.5 L 70.43131391656921 -0.5 Z"/><text text-anchor="middle" pointer-events="none" font-size="8px" fill="#000000" x="47.747981473331905" y="3" font-family="sans-serif">ACTED_IN</text></g><g class="relationship" transform="translate(17.211859679794326 82.63060526155105) rotate(308.57998581642914)"><path class="outline" fill="#A5ABB6" stroke="none" d="M 25 0.5 L 25.02517975272663 0.5 L 25.02517975272663 -0.5 L 25 -0.5 Z M 54.825178989787176 0.5 L 54.850358742513805 0.5 L 54.850358742513805 3.5 L 61.850358742513805 0 L 54.850358742513805 -3.5 L 54.850358742513805 -0.5 L 54.825178989787176 -0.5 Z"/><text text-anchor="middle" pointer-events="none" font-size="8px" fill="#000000" x="39.9251793712569" y="3" font-family="sans-serif">ACT…</text></g><g class="relationship" transform="translate(210.15555683133613 16.175166651536102) rotate(482.0364315309213)"><path class="outline" fill="#A5ABB6" stroke="none" d="M 25 0.5 L 27.411851194209675 0.5 L 27.411851194209675 -0.5 L 25 -0.5 Z M 57.21185043127022 0.5 L 59.623701625479896 0.5 L 59.623701625479896 3.5 L 66.6237016254799 0 L 59.623701625479896 -3.5 L 59.623701625479896 -0.5 L 57.21185043127022 -0.5 Z"/><text text-anchor="middle" pointer-events="none" font-size="8px" fill="#000000" x="42.31185081273995" y="3" transform="rotate(180 42.31185081273995 0)" font-family="sans-serif">ACT…</text></g><g class="relationship" transform="translate(210.15555683133613 16.175166651536102) rotate(517.6417617856987)"><path class="outline" fill="#A5ABB6" stroke="none" d="M 25 0.5 L 26.95148222486388 0.5 L 26.95148222486388 -0.5 L 25 -0.5 Z M 67.9681486372174 0.5 L 69.91963086208128 0.5 L 69.91963086208128 3.5 L 76.91963086208128 0 L 69.91963086208128 -3.5 L 69.91963086208128 -0.5 L 67.9681486372174 -0.5 Z"/><text text-anchor="middle" pointer-events="none" font-size="8px" fill="#000000" x="47.45981543104064" y="3" transform="rotate(180 47.45981543104064 0)" font-family="sans-serif">ACTED…</text></g><g class="relationship" transform="translate(210.15555683133613 16.175166651536102) rotate(180.59398553929407)"><path class="outline" fill="#A5ABB6" stroke="none" d="M 25 0.5 L 43.21201836466058 0.5 L 43.21201836466058 -0.5 L 25 -0.5 Z M 88.57868325113519 0.5 L 106.79070161579577 0.5 L 106.79070161579577 3.5 L 113.79070161579577 0 L 106.79070161579577 -3.5 L 106.79070161579577 -0.5 L 88.57868325113519 -0.5 Z"/><text text-anchor="middle" pointer-events="none" font-size="8px" fill="#000000" x="65.89535080789788" y="3" transform="rotate(180 65.89535080789788 0)" font-family="sans-serif">ACTED_IN</text></g><g class="relationship" transform="translate(74.51322020917378 156.1572798210462) rotate(487.6777914623569)"><path class="outline" fill="#A5ABB6" stroke="none" d="M 25 0.5 L 34.898591043603076 0.5 L 34.898591043603076 -0.5 L 25 -0.5 Z M 80.26525593007769 0.5 L 90.16384697368076 0.5 L 90.16384697368076 3.5 L 97.16384697368076 0 L 90.16384697368076 -3.5 L 90.16384697368076 -0.5 L 80.26525593007769 -0.5 Z"/><text text-anchor="middle" pointer-events="none" font-size="8px" fill="#000000" x="57.58192348684038" y="3" transform="rotate(180 57.58192348684038 0)" font-family="sans-serif">ACTED_IN</text></g><g class="relationship" transform="translate(74.51322020917378 156.1572798210462) rotate(397.89615617973914)"><path class="outline" fill="#A5ABB6" stroke="none" d="M 25 0.5 L 36.581336921984736 0.5 L 36.581336921984736 -0.5 L 25 -0.5 Z M 81.94800180845934 0.5 L 93.52933873044408 0.5 L 93.52933873044408 3.5 L 100.52933873044408 0 L 93.52933873044408 -3.5 L 93.52933873044408 -0.5 L 81.94800180845934 -0.5 Z"/><text text-anchor="middle" pointer-events="none" font-size="8px" fill="#000000" x="59.26466936522204" y="3" font-family="sans-serif">ACTED_IN</text></g><g class="relationship" transform="translate(74.51322020917378 156.1572798210462) rotate(531.8761522543673)"><path class="outline" fill="#A5ABB6" stroke="none" d="M 25 0.5 L 36.73141362454199 0.5 L 36.73141362454199 -0.5 L 25 -0.5 Z M 82.09807851101661 0.5 L 93.8294921355586 0.5 L 93.8294921355586 3.5 L 100.8294921355586 0 L 93.8294921355586 -3.5 L 93.8294921355586 -0.5 L 82.09807851101661 -0.5 Z"/><text text-anchor="middle" pointer-events="none" font-size="8px" fill="#000000" x="59.4147460677793" y="3" transform="rotate(180 59.4147460677793 0)" font-family="sans-serif">ACTED_IN</text></g><g class="relationship" transform="translate(74.51322020917378 156.1572798210462) rotate(443.5497960308613)"><path class="outline" fill="#A5ABB6" stroke="none" d="M 25 0.5 L 35.46463714506342 0.5 L 35.46463714506342 -0.5 L 25 -0.5 Z M 80.83130203153803 0.5 L 91.29593917660145 0.5 L 91.29593917660145 3.5 L 98.29593917660145 0 L 91.29593917660145 -3.5 L 91.29593917660145 -0.5 L 80.83130203153803 -0.5 Z"/><text text-anchor="middle" pointer-events="none" font-size="8px" fill="#000000" x="58.147969588300725" y="3" font-family="sans-serif">ACTED_IN</text></g><g class="relationship" transform="translate(74.51322020917378 156.1572798210462) rotate(324.4011590549003)"><path class="outline" fill="#A5ABB6" stroke="none" d="M 25 0.5 L 27.339256102499164 0.5 L 27.339256102499164 -0.5 L 25 -0.5 Z M 72.70592098897377 0.5 L 75.04517709147294 0.5 L 75.04517709147294 3.5 L 82.04517709147294 0 L 75.04517709147294 -3.5 L 75.04517709147294 -0.5 L 72.70592098897377 -0.5 Z"/><text text-anchor="middle" pointer-events="none" font-size="8px" fill="#000000" x="50.02258854573647" y="3" font-family="sans-serif">ACTED_IN</text></g><g class="relationship" transform="translate(74.51322020917378 156.1572798210462) rotate(292.23915436268146)"><path class="outline" fill="#A5ABB6" stroke="none" d="M 25 0.5 L 28.48981115729641 0.5 L 28.48981115729641 -0.5 L 25 -0.5 Z M 73.85647604377101 0.5 L 77.34628720106743 0.5 L 77.34628720106743 3.5 L 84.34628720106743 0 L 77.34628720106743 -3.5 L 77.34628720106743 -0.5 L 73.85647604377101 -0.5 Z"/><text text-anchor="middle" pointer-events="none" font-size="8px" fill="#000000" x="51.17314360053371" y="3" font-family="sans-serif">ACTED_IN</text></g><g class="relationship" transform="translate(74.51322020917378 156.1572798210462) rotate(268.7276910005175)"><path class="outline" fill="#A5ABB6" stroke="none" d="M 25 0.5 L 44.54457053656138 0.5 L 44.54457053656138 -0.5 L 25 -0.5 Z M 89.91123542303599 0.5 L 109.45580595959737 0.5 L 109.45580595959737 3.5 L 116.45580595959737 0 L 109.45580595959737 -3.5 L 109.45580595959737 -0.5 L 89.91123542303599 -0.5 Z"/><text text-anchor="middle" pointer-events="none" font-size="8px" fill="#000000" x="67.22790297979869" y="3" transform="rotate(180 67.22790297979869 0)" font-family="sans-serif">ACTED_IN</text></g></g><g class="layer nodes"><g class="node" transform="translate(71.3723133973377,14.736348753263215)"><circle class="outline" cx="0" cy="0" r="25" fill="#57C7E3" stroke="#23b3d7" stroke-width="2px"/><text text-anchor="middle" pointer-events="none" font-family="sans-serif" dy="1.5625" font-size="25" fill="#2A2C34"/><text text-anchor="middle" pointer-events="none" font-family="sans-serif" dy="1.5625" font-size="25" fill="#2A2C34"/><text text-anchor="middle" pointer-events="none" x="0" y="0" font-size="10px" fill="#2A2C34" font-family="sans-serif"> The</text><text text-anchor="middle" pointer-events="none" x="0" y="10" font-size="10px" fill="#2A2C34" font-family="sans-serif"> Matrix</text></g><g class="node" transform="translate(158.02590329174913,-43.040800987063484)"><circle class="outline" cx="0" cy="0" r="25" fill="#F79767" stroke="#f36924" stroke-width="2px"/><text text-anchor="middle" pointer-events="none" font-family="sans-serif" dy="1.5625" font-size="25" fill="#FFFFFF"/><text text-anchor="middle" pointer-events="none" font-family="sans-serif" dy="1.5625" font-size="25" fill="#FFFFFF"/><text text-anchor="middle" pointer-events="none" x="0" y="0" font-size="10px" fill="#FFFFFF" font-family="sans-serif"> Hugo</text><text text-anchor="middle" pointer-events="none" x="0" y="10" font-size="10px" fill="#FFFFFF" font-family="sans-serif"> Weavi…</text></g><g class="node" transform="translate(258.87565289550685,-101.63123357014719)"><circle class="outline" cx="0" cy="0" r="25" fill="#57C7E3" stroke="#23b3d7" stroke-width="2px"/><text text-anchor="middle" pointer-events="none" font-family="sans-serif" dy="1.5625" font-size="25" fill="#2A2C34"/><text text-anchor="middle" pointer-events="none" font-family="sans-serif" dy="1.5625" font-size="25" fill="#2A2C34"/><text text-anchor="middle" pointer-events="none" x="0" y="0" font-size="10px" fill="#2A2C34" font-family="sans-serif"> Cloud</text><text text-anchor="middle" pointer-events="none" x="0" y="10" font-size="10px" fill="#2A2C34" font-family="sans-serif"> Atlas</text></g><g class="node" transform="translate(102.28900156751483,-146.72666949965802)"><circle class="outline" cx="0" cy="0" r="25" fill="#57C7E3" stroke="#23b3d7" stroke-width="2px"/><text text-anchor="middle" pointer-events="none" font-family="sans-serif" dy="1.5625" font-size="25" fill="#2A2C34"/><text text-anchor="middle" pointer-events="none" font-family="sans-serif" dy="1.5625" font-size="25" fill="#2A2C34"/><text text-anchor="middle" pointer-events="none" x="0" y="0" font-size="10px" fill="#2A2C34" font-family="sans-serif"> V for</text><text text-anchor="middle" pointer-events="none" x="0" y="10" font-size="10px" fill="#2A2C34" font-family="sans-serif"> Vendet…</text></g><g class="node" transform="translate(161.55299570996846,93.84558413463378)"><circle class="outline" cx="0" cy="0" r="25" fill="#57C7E3" stroke="#23b3d7" stroke-width="2px"/><text text-anchor="middle" pointer-events="none" font-family="sans-serif" dy="1.5625" font-size="25" fill="#2A2C34"/><text text-anchor="middle" pointer-events="none" font-family="sans-serif" dy="1.5625" font-size="25" fill="#2A2C34"/><text text-anchor="middle" pointer-events="none" font-family="sans-serif" dy="1.5625" font-size="25" fill="#2A2C34"/><text text-anchor="middle" pointer-events="none" x="0" y="-5" font-size="10px" fill="#2A2C34" font-family="sans-serif"> The</text><text text-anchor="middle" pointer-events="none" x="0" y="5" font-size="10px" fill="#2A2C34" font-family="sans-serif"> Matrix</text><text text-anchor="middle" pointer-events="none" x="0" y="15" font-size="10px" fill="#2A2C34" font-family="sans-serif"> Revol…</text></g><g class="node" transform="translate(115.89788273400013,54.94502645039667)"><circle class="outline" cx="0" cy="0" r="25" fill="#57C7E3" stroke="#23b3d7" stroke-width="2px"/><text text-anchor="middle" pointer-events="none" font-family="sans-serif" dy="1.5625" font-size="25" fill="#2A2C34"/><text text-anchor="middle" pointer-events="none" font-family="sans-serif" dy="1.5625" font-size="25" fill="#2A2C34"/><text text-anchor="middle" pointer-events="none" font-family="sans-serif" dy="1.5625" font-size="25" fill="#2A2C34"/><text text-anchor="middle" pointer-events="none" x="0" y="-5" font-size="10px" fill="#2A2C34" font-family="sans-serif"> The</text><text text-anchor="middle" pointer-events="none" x="0" y="5" font-size="10px" fill="#2A2C34" font-family="sans-serif"> Matrix</text><text text-anchor="middle" pointer-events="none" x="0" y="15" font-size="10px" fill="#2A2C34" font-family="sans-serif"> Reloa…</text></g><g class="node" transform="translate(17.211859679794326,82.63060526155105)"><circle class="outline" cx="0" cy="0" r="25" fill="#F79767" stroke="#f36924" stroke-width="2px"/><text text-anchor="middle" pointer-events="none" font-family="sans-serif" dy="1.5625" font-size="25" fill="#FFFFFF"/><text text-anchor="middle" pointer-events="none" x="0" y="5" font-size="10px" fill="#FFFFFF" font-family="sans-serif"> Lauren…</text></g><g class="node" transform="translate(210.15555683133613,16.175166651536102)"><circle class="outline" cx="0" cy="0" r="25" fill="#F79767" stroke="#f36924" stroke-width="2px"/><text text-anchor="middle" pointer-events="none" font-family="sans-serif" dy="1.5625" font-size="25" fill="#FFFFFF"/><text text-anchor="middle" pointer-events="none" x="0" y="5" font-size="10px" fill="#FFFFFF" font-family="sans-serif"> Carrie-…</text></g><g class="node" transform="translate(74.51322020917378,156.1572798210462)"><circle class="outline" cx="0" cy="0" r="25" fill="#F79767" stroke="#f36924" stroke-width="2px"/><text text-anchor="middle" pointer-events="none" font-family="sans-serif" dy="1.5625" font-size="25" fill="#FFFFFF"/><text text-anchor="middle" pointer-events="none" font-family="sans-serif" dy="1.5625" font-size="25" fill="#FFFFFF"/><text text-anchor="middle" pointer-events="none" x="0" y="0" font-size="10px" fill="#FFFFFF" font-family="sans-serif"> Keanu</text><text text-anchor="middle" pointer-events="none" x="0" y="10" font-size="10px" fill="#FFFFFF" font-family="sans-serif"> Reeves</text></g><g class="node" transform="translate(-0.1558037735227643,252.8451403045649)"><circle class="outline" cx="0" cy="0" r="25" fill="#57C7E3" stroke="#23b3d7" stroke-width="2px"/><text text-anchor="middle" pointer-events="none" font-family="sans-serif" dy="1.5625" font-size="25" fill="#2A2C34"/><text text-anchor="middle" pointer-events="none" x="0" y="5" font-size="10px" fill="#2A2C34" font-family="sans-serif"> Someth…</text></g><g class="node" transform="translate(173.57159651615447,233.26144939395044)"><circle class="outline" cx="0" cy="0" r="25" fill="#57C7E3" stroke="#23b3d7" stroke-width="2px"/><text text-anchor="middle" pointer-events="none" font-family="sans-serif" dy="1.5625" font-size="25" fill="#2A2C34"/><text text-anchor="middle" pointer-events="none" font-family="sans-serif" dy="1.5625" font-size="25" fill="#2A2C34"/><text text-anchor="middle" pointer-events="none" x="0" y="0" font-size="10px" fill="#2A2C34" font-family="sans-serif"> The</text><text text-anchor="middle" pointer-events="none" x="0" y="10" font-size="10px" fill="#2A2C34" font-family="sans-serif"> Replac…</text></g><g class="node" transform="translate(-50.053563638096335,173.93865921186077)"><circle class="outline" cx="0" cy="0" r="25" fill="#57C7E3" stroke="#23b3d7" stroke-width="2px"/><text text-anchor="middle" pointer-events="none" font-family="sans-serif" dy="1.5625" font-size="25" fill="#2A2C34"/><text text-anchor="middle" pointer-events="none" font-family="sans-serif" dy="1.5625" font-size="25" fill="#2A2C34"/><text text-anchor="middle" pointer-events="none" x="0" y="0" font-size="10px" fill="#2A2C34" font-family="sans-serif"> Johnny</text><text text-anchor="middle" pointer-events="none" x="0" y="10" font-size="10px" fill="#2A2C34" font-family="sans-serif"> Mnem…</text></g><g class="node" transform="translate(88.36424325236351,278.6727391643357)"><circle class="outline" cx="0" cy="0" r="25" fill="#57C7E3" stroke="#23b3d7" stroke-width="2px"/><text text-anchor="middle" pointer-events="none" font-family="sans-serif" dy="1.5625" font-size="25" fill="#2A2C34"/><text text-anchor="middle" pointer-events="none" font-family="sans-serif" dy="1.5625" font-size="25" fill="#2A2C34"/><text text-anchor="middle" pointer-events="none" font-family="sans-serif" dy="1.5625" font-size="25" fill="#2A2C34"/><text text-anchor="middle" pointer-events="none" x="0" y="-5" font-size="10px" fill="#2A2C34" font-family="sans-serif"> The</text><text text-anchor="middle" pointer-events="none" x="0" y="5" font-size="10px" fill="#2A2C34" font-family="sans-serif"> Devil's</text><text text-anchor="middle" pointer-events="none" x="0" y="15" font-size="10px" fill="#2A2C34" font-family="sans-serif"> Advo…</text></g></g></svg>