<svg xmlns="http://www.w3.org/2000/svg" width="509.5303955078125" height="533.7835083007812" viewBox="-183.0074005126953 -161.35479736328125 509.5303955078125 533.7835083007812"><title>Neo4j Graph Visualization</title><desc>Created using Neo4j (http://www.neo4j.com/)</desc><g class="layer relationships"><g class="relationship" transform="translate(223.9770369357909 279.8655028662444) rotate(250.0868540546188)"><path class="outline" fill="#A5ABB6" stroke="none" d="M 25 0.5 L 34.845588164048515 0.5 L 34.845588164048515 -0.5 L 25 -0.5 Z M 80.21225305052312 0.5 L 90.05784121457164 0.5 L 90.05784121457164 3.5 L 97.05784121457164 0 L 90.05784121457164 -3.5 L 90.05784121457164 -0.5 L 80.21225305052312 -0.5 Z"/><text text-anchor="middle" pointer-events="none" font-size="8px" fill="#000000" x="57.52892060728582" y="3" transform="rotate(180 57.52892060728582 0)" font-family="sans-serif">ACTED_IN</text></g><g class="relationship" transform="translate(54.48650872481065 111.71972387256646) rotate(382.65287895174947)"><path class="outline" fill="#A5ABB6" stroke="none" d="M 25 0.5 L 43.12234517559662 0.5 L 43.12234517559662 -0.5 L 25 -0.5 Z M 88.48901006207123 0.5 L 106.61135523766785 0.5 L 106.61135523766785 3.5 L 113.61135523766785 0 L 106.61135523766785 -3.5 L 106.61135523766785 -0.5 L 88.48901006207123 -0.5 Z"/><text text-anchor="middle" pointer-events="none" font-size="8px" fill="#000000" x="65.80567761883393" y="3" font-family="sans-serif">ACTED_IN</text></g><g class="relationship" transform="translate(54.48650872481065 111.71972387256646) rotate(293.19713814638163)"><path class="outline" fill="#A5ABB6" stroke="none" d="M 25 0.5 L 39.8257511850114 0.5 L 39.8257511850114 -0.5 L 25 -0.5 Z M 85.19241607148601 0.5 L 100.0181672564974 0.5 L 100.0181672564974 3.5 L 107.0181672564974 0 L 100.0181672564974 -3.5 L 100.0181672564974 -0.5 L 85.19241607148601 -0.5 Z"/><text text-anchor="middle" pointer-events="none" font-size="8px" fill="#000000" x="62.5090836282487" y="3" font-family="sans-serif">ACTED_IN</text></g><g class="relationship" transform="translate(54.48650872481065 111.71972387256646) rotate(523.6790125990899)"><path class="outline" fill="#A5ABB6" stroke="none" d="M 25 0.5 L 31.02921835061054 0.5 L 31.02921835061054 -0.5 L 25 -0.5 Z M 76.39588323708514 0.5 L 82.42510158769569 0.5 L 82.42510158769569 3.5 L 89.42510158769569 0 L 82.42510158769569 -3.5 L 82.42510158769569 -0.5 L 76.39588323708514 -0.5 Z"/><text text-anchor="middle" pointer-events="none" font-size="8px" fill="#000000" x="53.712550793847846" y="3" transform="rotate(180 53.712550793847846 0)" font-family="sans-serif">ACTED_IN</text></g><g class="relationship" transform="translate(54.48650872481065 111.71972387256646) rotate(192.9878926603825)"><path class="outline" fill="#A5ABB6" stroke="none" d="M 25 0.5 L 34.44599209649472 0.5 L 34.44599209649472 -0.5 L 25 -0.5 Z M 79.81265698296933 0.5 L 89.25864907946405 0.5 L 89.25864907946405 3.5 L 96.25864907946405 0 L 89.25864907946405 -3.5 L 89.25864907946405 -0.5 L 79.81265698296933 -0.5 Z"/><text text-anchor="middle" pointer-events="none" font-size="8px" fill="#000000" x="57.129324539732025" y="3" transform="rotate(180 57.129324539732025 0)" font-family="sans-serif">ACTED_IN</text></g><g class="relationship" transform="translate(54.48650872481065 111.71972387256646) rotate(491.1322213549201)"><path class="outline" fill="#A5ABB6" stroke="none" d="M 25 0.5 L 48.725320697097075 0.5 L 48.725320697097075 -0.5 L 25 -0.5 Z M 94.09198558357168 0.5 L 117.81730628066876 0.5 L 117.81730628066876 3.5 L 124.81730628066876 0 L 117.81730628066876 -3.5 L 117.81730628066876 -0.5 L 94.09198558357168 -0.5 Z"/><text text-anchor="middle" pointer-events="none" font-size="8px" fill="#000000" x="71.40865314033438" y="3" transform="rotate(180 71.40865314033438 0)" font-family="sans-serif">ACTED_IN</text></g><g class="relationship" transform="translate(297.5230558147607 211.2893122403613) rotate(201.85994199678305)"><path class="outline" fill="#A5ABB6" stroke="none" d="M 25 0.5 L 35.83516804663133 0.5 L 35.83516804663133 -0.5 L 25 -0.5 Z M 81.20183293310595 0.5 L 92.03700097973727 0.5 L 92.03700097973727 3.5 L 99.03700097973727 0 L 92.03700097973727 -3.5 L 92.03700097973727 -0.5 L 81.20183293310595 -0.5 Z"/><text text-anchor="middle" pointer-events="none" font-size="8px" fill="#000000" x="58.518500489868636" y="3" transform="rotate(180 58.518500489868636 0)" font-family="sans-serif">ACTED_IN</text></g><g class="relationship" transform="translate(296.6584182099575 118.16376997524107) rotate(517.6644354879104)"><path class="outline" fill="#A5ABB6" stroke="none" d="M 25 0.5 L 35.57716319607777 0.5 L 35.57716319607777 -0.5 L 25 -0.5 Z M 80.94382808255239 0.5 L 91.52099127863015 0.5 L 91.52099127863015 3.5 L 98.52099127863015 0 L 91.52099127863015 -3.5 L 91.52099127863015 -0.5 L 80.94382808255239 -0.5 Z"/><text text-anchor="middle" pointer-events="none" font-size="8px" fill="#000000" x="58.260495639315074" y="3" transform="rotate(180 58.260495639315074 0)" font-family="sans-serif">ACTED_IN</text></g><g class="relationship" transform="translate(227.2682366847935 -25.24991079350907) rotate(532.6289946138025)"><path class="outline" fill="#A5ABB6" stroke="none" d="M 25 0.5 L 34.71002734923665 0.5 L 34.71002734923665 -0.5 L 25 -0.5 Z M 80.07669223571125 0.5 L 89.7867195849479 0.5 L 89.7867195849479 3.5 L 96.7867195849479 0 L 89.7867195849479 -3.5 L 89.7867195849479 -0.5 L 80.07669223571125 -0.5 Z"/><text text-anchor="middle" pointer-events="none" font-size="8px" fill="#000000" x="57.39335979247395" y="3" transform="rotate(180 57.39335979247395 0)" font-family="sans-serif">ACTED_IN</text></g><g class="relationship" transform="translate(187.8854348933688 -103.46114206140044) rotate(490.9399045907028)"><path class="outline" fill="#A5ABB6" stroke="none" d="M 25 0.5 L 35.926836474154776 0.5 L 35.926836474154776 -0.5 L 25 -0.5 Z M 81.29350136062939 0.5 L 92.22033783478416 0.5 L 92.22033783478416 3.5 L 99.22033783478416 0 L 92.22033783478416 -3.5 L 92.22033783478416 -0.5 L 81.29350136062939 -0.5 Z"/><text text-anchor="middle" pointer-events="none" font-size="8px" fill="#000000" x="58.61016891739208" y="3" transform="rotate(180 58.61016891739208 0)" font-family="sans-serif">ACTED_IN</text></g><g class="relationship" transform="translate(102.45469817951746 -132.3547981075159) rotate(448.11777389990334)"><path class="outline" fill="#A5ABB6" stroke="none" d="M 25 0.5 L 35.2144752945366 0.5 L 35.2144752945366 -0.5 L 25 -0.5 Z M 80.58114018101121 0.5 L 90.7956154755478 0.5 L 90.7956154755478 3.5 L 97.7956154755478 0 L 90.7956154755478 -3.5 L 90.7956154755478 -0.5 L 80.58114018101121 -0.5 Z"/><text text-anchor="middle" pointer-events="none" font-size="8px" fill="#000000" x="57.8978077377739" y="3" font-family="sans-serif">ACTED_IN</text></g><g class="relationship" transform="translate(18.42187161125856 -92.93200524908693) rotate(403.4091451980655)"><path class="outline" fill="#A5ABB6" stroke="none" d="M 25 0.5 L 34.42940587769495 0.5 L 34.42940587769495 -0.5 L 25 -0.5 Z M 79.79607076416956 0.5 L 89.2254766418645 0.5 L 89.2254766418645 3.5 L 96.2254766418645 0 L 89.2254766418645 -3.5 L 89.2254766418645 -0.5 L 79.79607076416956 -0.5 Z"/><text text-anchor="middle" pointer-events="none" font-size="8px" fill="#000000" x="57.11273832093225" y="3" font-family="sans-serif">ACTED_IN</text></g><g class="relationship" transform="translate(33.26518516087669 176.28666143262913) rotate(200.09490149904627)"><path class="outline" fill="#A5ABB6" stroke="none" d="M 25 0.5 L 26.242703473781887 0.5 L 26.242703473781887 -0.5 L 25 -0.5 Z M 61.092703855251614 0.5 L 62.3354073290335 0.5 L 62.3354073290335 3.5 L 69.3354073290335 0 L 62.3354073290335 -3.5 L 62.3354073290335 -0.5 L 61.092703855251614 -0.5 Z"/><text text-anchor="middle" pointer-events="none" font-size="8px" fill="#000000" x="43.66770366451675" y="3" transform="rotate(180 43.66770366451675 0)" font-family="sans-serif">ACTE…</text></g><g class="relationship" transform="translate(33.26518516087669 176.28666143262913) rotate(223.44743426781048)"><path class="outline" fill="#A5ABB6" stroke="none" d="M 25 0.5 L 40.57595736537655 0.5 L 40.57595736537655 -0.5 L 25 -0.5 Z M 85.94262225185116 0.5 L 101.51857961722772 0.5 L 101.51857961722772 3.5 L 108.51857961722772 0 L 101.51857961722772 -3.5 L 101.51857961722772 -0.5 L 85.94262225185116 -0.5 Z"/><text text-anchor="middle" pointer-events="none" font-size="8px" fill="#000000" x="63.25928980861386" y="3" transform="rotate(180 63.25928980861386 0)" font-family="sans-serif">ACTED_IN</text></g><g class="relationship" transform="translate(33.26518516087669 176.28666143262913) rotate(508.024312192543)"><path class="outline" fill="#A5ABB6" stroke="none" d="M 25 0.5 L 27.179872695978524 0.5 L 27.179872695978524 -0.5 L 25 -0.5 Z M 56.97987193303907 0.5 L 59.159744629017595 0.5 L 59.159744629017595 3.5 L 66.1597446290176 0 L 59.159744629017595 -3.5 L 59.159744629017595 -0.5 L 56.97987193303907 -0.5 Z"/><text text-anchor="middle" pointer-events="none" font-size="8px" fill="#000000" x="42.0798723145088" y="3" transform="rotate(180 42.0798723145088 0)" font-family="sans-serif">ACT…</text></g><g class="relationship" transform="translate(-142.81468863960137 197.048377550982) rotate(328.70952144452383)"><path class="outline" fill="#A5ABB6" stroke="none" d="M 25 0.5 L 25.005975853313878 0.5 L 25.005975853313878 -0.5 L 25 -0.5 Z M 70.3726407397885 0.5 L 70.37861659310236 0.5 L 70.37861659310236 3.5 L 77.37861659310236 0 L 70.37861659310236 -3.5 L 70.37861659310236 -0.5 L 70.3726407397885 -0.5 Z"/><text text-anchor="middle" pointer-events="none" font-size="8px" fill="#000000" x="47.68930829655118" y="3" font-family="sans-serif">ACTED_IN</text></g><g class="relationship" transform="translate(-142.81468863960137 197.048377550982) rotate(305.1072974341803)"><path class="outline" fill="#A5ABB6" stroke="none" d="M 25 0.5 L 42.62499451851899 0.5 L 42.62499451851899 -0.5 L 25 -0.5 Z M 87.9916594049936 0.5 L 105.61665392351259 0.5 L 105.61665392351259 3.5 L 112.61665392351259 0 L 105.61665392351259 -3.5 L 105.61665392351259 -0.5 L 87.9916594049936 -0.5 Z"/><text text-anchor="middle" pointer-events="none" font-size="8px" fill="#000000" x="65.3083269617563" y="3" font-family="sans-serif">ACTED_IN</text></g><g class="relationship" transform="translate(-142.81468863960137 197.048377550982) rotate(375.5681615470533)"><path class="outline" fill="#A5ABB6" stroke="none" d="M 25 0.5 L 25.07293230630534 0.5 L 25.07293230630534 -0.5 L 25 -0.5 Z M 70.43959719277996 0.5 L 70.51252949908529 0.5 L 70.51252949908529 3.5 L 77.51252949908529 0 L 70.51252949908529 -3.5 L 70.51252949908529 -0.5 L 70.43959719277996 -0.5 Z"/><text text-anchor="middle" pointer-events="none" font-size="8px" fill="#000000" x="47.756264749542645" y="3" font-family="sans-serif">ACTED_IN</text></g><g class="relationship" transform="translate(-154.00739893077522 137.6166346998853) rotate(363.6290442616325)"><path class="outline" fill="#A5ABB6" stroke="none" d="M 25 0.5 L 25.430733867266035 0.5 L 25.430733867266035 -0.5 L 25 -0.5 Z M 66.44740027961956 0.5 L 66.87813414688559 0.5 L 66.87813414688559 3.5 L 73.87813414688559 0 L 66.87813414688559 -3.5 L 66.87813414688559 -0.5 L 66.44740027961956 -0.5 Z"/><text text-anchor="middle" pointer-events="none" font-size="8px" fill="#000000" x="45.93906707344279" y="3" font-family="sans-serif">ACTED…</text></g><g class="relationship" transform="translate(-154.00739893077522 137.6166346998853) rotate(329.5299376205537)"><path class="outline" fill="#A5ABB6" stroke="none" d="M 25 0.5 L 26.222951674281184 0.5 L 26.222951674281184 -0.5 L 25 -0.5 Z M 71.58961656075579 0.5 L 72.81256823503698 0.5 L 72.81256823503698 3.5 L 79.81256823503698 0 L 72.81256823503698 -3.5 L 72.81256823503698 -0.5 L 71.58961656075579 -0.5 Z"/><text text-anchor="middle" pointer-events="none" font-size="8px" fill="#000000" x="48.90628411751849" y="3" font-family="sans-serif">ACTED_IN</text></g><g class="relationship" transform="translate(-154.00739893077522 137.6166346998853) rotate(398.3371443435765)"><path class="outline" fill="#A5ABB6" stroke="none" d="M 25 0.5 L 43.90070131675863 0.5 L 43.90070131675863 -0.5 L 25 -0.5 Z M 89.26736620323324 0.5 L 108.16806751999187 0.5 L 108.16806751999187 3.5 L 115.16806751999187 0 L 108.16806751999187 -3.5 L 108.16806751999187 -0.5 L 89.26736620323324 -0.5 Z"/><text text-anchor="middle" pointer-events="none" font-size="8px" fill="#000000" x="66.58403375999593" y="3" font-family="sans-serif">ACTED_IN</text></g><g class="relationship" transform="translate(-21.4935532897811 343.42871273448156) rotate(259.2491205977493)"><path class="outline" fill="#A5ABB6" stroke="none" d="M 25 0.5 L 34.31229226611094 0.5 L 34.31229226611094 -0.5 L 25 -0.5 Z M 79.67895715258555 0.5 L 88.99124941869648 0.5 L 88.99124941869648 3.5 L 95.99124941869648 0 L 88.99124941869648 -3.5 L 88.99124941869648 -0.5 L 79.67895715258555 -0.5 Z"/><text text-anchor="middle" pointer-events="none" font-size="8px" fill="#000000" x="56.99562470934824" y="3" transform="rotate(180 56.99562470934824 0)" font-family="sans-serif">ACTED_IN</text></g></g><g class="layer nodes"><g class="node" transform="translate(223.9770369357909,279.8655028662444)"><circle class="outline" cx="0" cy="0" r="25" fill="#F79767" stroke="#f36924" stroke-width="2px"/><text text-anchor="middle" pointer-events="none" font-family="sans-serif" dy="1.5625" font-size="25" fill="#FFFFFF"/><text text-anchor="middle" pointer-events="none" font-family="sans-serif" dy="1.5625" font-size="25" fill="#FFFFFF"/><text text-anchor="middle" pointer-events="none" x="0" y="0" font-size="10px" fill="#FFFFFF" font-family="sans-serif"> Tom</text><text text-anchor="middle" pointer-events="none" x="0" y="10" font-size="10px" fill="#FFFFFF" font-family="sans-serif"> Hanks</text></g><g class="node" transform="translate(54.48650872481065,111.71972387256646)"><circle class="outline" cx="0" cy="0" r="25" fill="#F79767" stroke="#f36924" stroke-width="2px"/><text text-anchor="middle" pointer-events="none" font-family="sans-serif" dy="1.5625" font-size="25" fill="#FFFFFF"/><text text-anchor="middle" pointer-events="none" font-family="sans-serif" dy="1.5625" font-size="25" fill="#FFFFFF"/><text text-anchor="middle" pointer-events="none" x="0" y="0" font-size="10px" fill="#FFFFFF" font-family="sans-serif"> Hugo</text><text text-anchor="middle" pointer-events="none" x="0" y="10" font-size="10px" fill="#FFFFFF" font-family="sans-serif"> Weavi…</text></g><g class="node" transform="translate(182.40471221050674,165.10549929837626)"><circle class="outline" cx="0" cy="0" r="25" fill="#57C7E3" stroke="#23b3d7" stroke-width="2px"/><text text-anchor="middle" pointer-events="none" font-family="sans-serif" dy="1.5625" font-size="25" fill="#2A2C34"/><text text-anchor="middle" pointer-events="none" font-family="sans-serif" dy="1.5625" font-size="25" fill="#2A2C34"/><text text-anchor="middle" pointer-events="none" x="0" y="0" font-size="10px" fill="#2A2C34" font-family="sans-serif"> Cloud</text><text text-anchor="middle" pointer-events="none" x="0" y="10" font-size="10px" fill="#2A2C34" font-family="sans-serif"> Atlas</text></g><g class="node" transform="translate(297.5230558147607,211.2893122403613)"><circle class="outline" cx="0" cy="0" r="25" fill="#F79767" stroke="#f36924" stroke-width="2px"/><text text-anchor="middle" pointer-events="none" font-family="sans-serif" dy="1.5625" font-size="25" fill="#FFFFFF"/><text text-anchor="middle" pointer-events="none" font-family="sans-serif" dy="1.5625" font-size="25" fill="#FFFFFF"/><text text-anchor="middle" pointer-events="none" x="0" y="0" font-size="10px" fill="#FFFFFF" font-family="sans-serif"> Jim</text><text text-anchor="middle" pointer-events="none" x="0" y="10" font-size="10px" fill="#FFFFFF" font-family="sans-serif"> Broadb…</text></g><g class="node" transform="translate(296.6584182099575,118.16376997524107)"><circle class="outline" cx="0" cy="0" r="25" fill="#F79767" stroke="#f36924" stroke-width="2px"/><text text-anchor="middle" pointer-events="none" font-family="sans-serif" dy="1.5625" font-size="25" fill="#FFFFFF"/><text text-anchor="middle" pointer-events="none" font-family="sans-serif" dy="1.5625" font-size="25" fill="#FFFFFF"/><text text-anchor="middle" pointer-events="none" x="0" y="0" font-size="10px" fill="#FFFFFF" font-family="sans-serif"> Halle</text><text text-anchor="middle" pointer-events="none" x="0" y="10" font-size="10px" fill="#FFFFFF" font-family="sans-serif"> Berry</text></g><g class="node" transform="translate(227.2682366847935,-25.24991079350907)"><circle class="outline" cx="0" cy="0" r="25" fill="#F79767" stroke="#f36924" stroke-width="2px"/><text text-anchor="middle" pointer-events="none" font-family="sans-serif" dy="1.5625" font-size="25" fill="#FFFFFF"/><text text-anchor="middle" pointer-events="none" font-family="sans-serif" dy="1.5625" font-size="25" fill="#FFFFFF"/><text text-anchor="middle" pointer-events="none" x="0" y="0" font-size="10px" fill="#FFFFFF" font-family="sans-serif"> John</text><text text-anchor="middle" pointer-events="none" x="0" y="10" font-size="10px" fill="#FFFFFF" font-family="sans-serif"> Hurt</text></g><g class="node" transform="translate(106.48793665809133,-9.625436635235985)"><circle class="outline" cx="0" cy="0" r="25" fill="#57C7E3" stroke="#23b3d7" stroke-width="2px"/><text text-anchor="middle" pointer-events="none" font-family="sans-serif" dy="1.5625" font-size="25" fill="#2A2C34"/><text text-anchor="middle" pointer-events="none" font-family="sans-serif" dy="1.5625" font-size="25" fill="#2A2C34"/><text text-anchor="middle" pointer-events="none" x="0" y="0" font-size="10px" fill="#2A2C34" font-family="sans-serif"> V for</text><text text-anchor="middle" pointer-events="none" x="0" y="10" font-size="10px" fill="#2A2C34" font-family="sans-serif"> Vendet…</text></g><g class="node" transform="translate(187.8854348933688,-103.46114206140044)"><circle class="outline" cx="0" cy="0" r="25" fill="#F79767" stroke="#f36924" stroke-width="2px"/><text text-anchor="middle" pointer-events="none" font-family="sans-serif" dy="1.5625" font-size="25" fill="#FFFFFF"/><text text-anchor="middle" pointer-events="none" font-family="sans-serif" dy="1.5625" font-size="25" fill="#FFFFFF"/><text text-anchor="middle" pointer-events="none" x="0" y="0" font-size="10px" fill="#FFFFFF" font-family="sans-serif"> Stephen</text><text text-anchor="middle" pointer-events="none" x="0" y="10" font-size="10px" fill="#FFFFFF" font-family="sans-serif"> Rea</text></g><g class="node" transform="translate(102.45469817951746,-132.3547981075159)"><circle class="outline" cx="0" cy="0" r="25" fill="#F79767" stroke="#f36924" stroke-width="2px"/><text text-anchor="middle" pointer-events="none" font-family="sans-serif" dy="1.5625" font-size="25" fill="#FFFFFF"/><text text-anchor="middle" pointer-events="none" font-family="sans-serif" dy="1.5625" font-size="25" fill="#FFFFFF"/><text text-anchor="middle" pointer-events="none" x="0" y="0" font-size="10px" fill="#FFFFFF" font-family="sans-serif"> Natalie</text><text text-anchor="middle" pointer-events="none" x="0" y="10" font-size="10px" fill="#FFFFFF" font-family="sans-serif"> Portman</text></g><g class="node" transform="translate(18.42187161125856,-92.93200524908693)"><circle class="outline" cx="0" cy="0" r="25" fill="#F79767" stroke="#f36924" stroke-width="2px"/><text text-anchor="middle" pointer-events="none" font-family="sans-serif" dy="1.5625" font-size="25" fill="#FFFFFF"/><text text-anchor="middle" pointer-events="none" font-family="sans-serif" dy="1.5625" font-size="25" fill="#FFFFFF"/><text text-anchor="middle" pointer-events="none" x="0" y="0" font-size="10px" fill="#FFFFFF" font-family="sans-serif"> Ben</text><text text-anchor="middle" pointer-events="none" x="0" y="10" font-size="10px" fill="#FFFFFF" font-family="sans-serif"> Miles</text></g><g class="node" transform="translate(33.26518516087669,176.28666143262913)"><circle class="outline" cx="0" cy="0" r="25" fill="#F79767" stroke="#f36924" stroke-width="2px"/><text text-anchor="middle" pointer-events="none" font-family="sans-serif" dy="1.5625" font-size="25" fill="#FFFFFF"/><text text-anchor="middle" pointer-events="none" x="0" y="5" font-size="10px" fill="#FFFFFF" font-family="sans-serif"> Lauren…</text></g><g class="node" transform="translate(-55.32753812984659,143.87526751215722)"><circle class="outline" cx="0" cy="0" r="25" fill="#57C7E3" stroke="#23b3d7" stroke-width="2px"/><text text-anchor="middle" pointer-events="none" font-family="sans-serif" dy="1.5625" font-size="25" fill="#2A2C34"/><text text-anchor="middle" pointer-events="none" font-family="sans-serif" dy="1.5625" font-size="25" fill="#2A2C34"/><text text-anchor="middle" pointer-events="none" font-family="sans-serif" dy="1.5625" font-size="25" fill="#2A2C34"/><text text-anchor="middle" pointer-events="none" x="0" y="-5" font-size="10px" fill="#2A2C34" font-family="sans-serif"> The</text><text text-anchor="middle" pointer-events="none" x="0" y="5" font-size="10px" fill="#2A2C34" font-family="sans-serif"> Matrix</text><text text-anchor="middle" pointer-events="none" x="0" y="15" font-size="10px" fill="#2A2C34" font-family="sans-serif"> Revol…</text></g><g class="node" transform="translate(-142.81468863960137,197.048377550982)"><circle class="outline" cx="0" cy="0" r="25" fill="#F79767" stroke="#f36924" stroke-width="2px"/><text text-anchor="middle" pointer-events="none" font-family="sans-serif" dy="1.5625" font-size="25" fill="#FFFFFF"/><text text-anchor="middle" pointer-events="none" x="0" y="5" font-size="10px" fill="#FFFFFF" font-family="sans-serif"> Carrie-…</text></g><g class="node" transform="translate(-154.00739893077522,137.6166346998853)"><circle class="outline" cx="0" cy="0" r="25" fill="#F79767" stroke="#f36924" stroke-width="2px"/><text text-anchor="middle" pointer-events="none" font-family="sans-serif" dy="1.5625" font-size="25" fill="#FFFFFF"/><text text-anchor="middle" pointer-events="none" font-family="sans-serif" dy="1.5625" font-size="25" fill="#FFFFFF"/><text text-anchor="middle" pointer-events="none" x="0" y="0" font-size="10px" fill="#FFFFFF" font-family="sans-serif"> Keanu</text><text text-anchor="middle" pointer-events="none" x="0" y="10" font-size="10px" fill="#FFFFFF" font-family="sans-serif"> Reeves</text></g><g class="node" transform="translate(-63.67005043477865,84.4674303150862)"><circle class="outline" cx="0" cy="0" r="25" fill="#57C7E3" stroke="#23b3d7" stroke-width="2px"/><text text-anchor="middle" pointer-events="none" font-family="sans-serif" dy="1.5625" font-size="25" fill="#2A2C34"/><text text-anchor="middle" pointer-events="none" font-family="sans-serif" dy="1.5625" font-size="25" fill="#2A2C34"/><text text-anchor="middle" pointer-events="none" font-family="sans-serif" dy="1.5625" font-size="25" fill="#2A2C34"/><text text-anchor="middle" pointer-events="none" x="0" y="-5" font-size="10px" fill="#2A2C34" font-family="sans-serif"> The</text><text text-anchor="middle" pointer-events="none" x="0" y="5" font-size="10px" fill="#2A2C34" font-family="sans-serif"> Matrix</text><text text-anchor="middle" pointer-events="none" x="0" y="15" font-size="10px" fill="#2A2C34" font-family="sans-serif"> Reloa…</text></g><g class="node" transform="translate(-21.4935532897811,343.42871273448156)"><circle class="outline" cx="0" cy="0" r="25" fill="#F79767" stroke="#f36924" stroke-width="2px"/><text text-anchor="middle" pointer-events="none" font-family="sans-serif" dy="1.5625" font-size="25" fill="#FFFFFF"/><text text-anchor="middle" pointer-events="none" font-family="sans-serif" dy="1.5625" font-size="25" fill="#FFFFFF"/><text text-anchor="middle" pointer-events="none" x="0" y="0" font-size="10px" fill="#FFFFFF" font-family="sans-serif"> Emil</text><text text-anchor="middle" pointer-events="none" x="0" y="10" font-size="10px" fill="#FFFFFF" font-family="sans-serif"> Eifrem</text></g><g class="node" transform="translate(-44.06315389022467,224.56115801649437)"><circle class="outline" cx="0" cy="0" r="25" fill="#57C7E3" stroke="#23b3d7" stroke-width="2px"/><text text-anchor="middle" pointer-events="none" font-family="sans-serif" dy="1.5625" font-size="25" fill="#2A2C34"/><text text-anchor="middle" pointer-events="none" font-family="sans-serif" dy="1.5625" font-size="25" fill="#2A2C34"/><text text-anchor="middle" pointer-events="none" x="0" y="0" font-size="10px" fill="#2A2C34" font-family="sans-serif"> The</text><text text-anchor="middle" pointer-events="none" x="0" y="10" font-size="10px" fill="#2A2C34" font-family="sans-serif"> Matrix</text></g></g></svg>