<svg xmlns="http://www.w3.org/2000/svg" width="310.6396484375" height="177.69296264648438" viewBox="-202.9101104736328 7.7453460693359375 310.6396484375 177.69296264648438"><title>Neo4j Graph Visualization</title><desc>Created using Neo4j (http://www.neo4j.com/)</desc><g class="layer relationships"><g class="relationship" transform="translate(-173.91011528913867 98.652847272674) rotate(336.0365872713953)"><path class="outline" fill="#A5ABB6" stroke="none" d="M 25 0.5 L 50.0286745624166 0.5 L 50.0286745624166 -0.5 L 25 -0.5 Z M 95.3953394488912 0.5 L 120.4240140113078 0.5 L 120.4240140113078 3.5 L 127.4240140113078 0 L 120.4240140113078 -3.5 L 120.4240140113078 -0.5 L 95.3953394488912 -0.5 Z"/><text text-anchor="middle" pointer-events="none" font-size="8px" fill="#000000" x="72.7120070056539" y="3" font-family="sans-serif">ACTED_IN</text></g><g class="relationship" transform="translate(-173.91011528913867 98.652847272674) rotate(359.1285831173109)"><path class="outline" fill="#A5ABB6" stroke="none" d="M 25 0.5 L 41.43740819658167 0.5 L 41.43740819658167 -0.5 L 25 -0.5 Z M 86.80407308305628 0.5 L 103.24148127963795 0.5 L 103.24148127963795 3.5 L 110.24148127963795 0 L 103.24148127963795 -3.5 L 103.24148127963795 -0.5 L 86.80407308305628 -0.5 Z"/><text text-anchor="middle" pointer-events="none" font-size="8px" fill="#000000" x="64.12074063981898" y="3" font-family="sans-serif">ACTED_IN</text></g><g class="relationship" transform="translate(-173.91011528913867 98.652847272674) rotate(382.51483508494505)"><path class="outline" fill="#A5ABB6" stroke="none" d="M 25 0.5 L 49.269850713692506 0.5 L 49.269850713692506 -0.5 L 25 -0.5 Z M 94.63651560016712 0.5 L 118.90636631385962 0.5 L 118.90636631385962 3.5 L 125.90636631385962 0 L 118.90636631385962 -3.5 L 118.90636631385962 -0.5 L 94.63651560016712 -0.5 Z"/><text text-anchor="middle" pointer-events="none" font-size="8px" fill="#000000" x="71.95318315692981" y="3" font-family="sans-serif">ACTED_IN</text></g><g class="relationship" transform="translate(78.7295495615286 96.8266344644046) rotate(207.9250709130045)"><path class="outline" fill="#A5ABB6" stroke="none" d="M 25 0.5 L 37.96270000239622 0.5 L 37.96270000239622 -0.5 L 25 -0.5 Z M 83.32936488887083 0.5 L 96.29206489126705 0.5 L 96.29206489126705 3.5 L 103.29206489126705 0 L 96.29206489126705 -3.5 L 96.29206489126705 -0.5 L 83.32936488887083 -0.5 Z"/><text text-anchor="middle" pointer-events="none" font-size="8px" fill="#000000" x="60.64603244563352" y="3" transform="rotate(180 60.64603244563352 0)" font-family="sans-serif">ACTED_IN</text></g><g class="relationship" transform="translate(78.7295495615286 96.8266344644046) rotate(180.11253243106393)"><path class="outline" fill="#A5ABB6" stroke="none" d="M 25 0.5 L 32.52369332139751 0.5 L 32.52369332139751 -0.5 L 25 -0.5 Z M 77.89035820787211 0.5 L 85.41405152926963 0.5 L 85.41405152926963 3.5 L 92.41405152926963 0 L 85.41405152926963 -3.5 L 85.41405152926963 -0.5 L 77.89035820787211 -0.5 Z"/><text text-anchor="middle" pointer-events="none" font-size="8px" fill="#000000" x="55.207025764634814" y="3" transform="rotate(180 55.207025764634814 0)" font-family="sans-serif">ACTED_IN</text></g><g class="relationship" transform="translate(78.7295495615286 96.8266344644046) rotate(512.2358572224412)"><path class="outline" fill="#A5ABB6" stroke="none" d="M 25 0.5 L 37.80062906869087 0.5 L 37.80062906869087 -0.5 L 25 -0.5 Z M 83.16729395516548 0.5 L 95.96792302385634 0.5 L 95.96792302385634 3.5 L 102.96792302385634 0 L 95.96792302385634 -3.5 L 95.96792302385634 -0.5 L 83.16729395516548 -0.5 Z"/><text text-anchor="middle" pointer-events="none" font-size="8px" fill="#000000" x="60.48396151192817" y="3" transform="rotate(180 60.48396151192817 0)" font-family="sans-serif">ACTED_IN</text></g></g><g class="layer nodes"><g class="node" transform="translate(-173.91011528913867,98.652847272674)"><circle class="outline" cx="0" cy="0" r="25" fill="#F79767" stroke="#f36924" stroke-width="2px"/><text text-anchor="middle" pointer-events="none" font-family="sans-serif" dy="1.5625" font-size="25" fill="#FFFFFF"/><text text-anchor="middle" pointer-events="none" font-family="sans-serif" dy="1.5625" font-size="25" fill="#FFFFFF"/><text text-anchor="middle" pointer-events="none" x="0" y="0" font-size="10px" fill="#FFFFFF" font-family="sans-serif"> Hugo</text><text text-anchor="middle" pointer-events="none" x="0" y="10" font-size="10px" fill="#FFFFFF" font-family="sans-serif"> Weavi…</text></g><g class="node" transform="translate(78.7295495615286,96.8266344644046)"><circle class="outline" cx="0" cy="0" r="25" fill="#F79767" stroke="#f36924" stroke-width="2px"/><text text-anchor="middle" pointer-events="none" font-family="sans-serif" dy="1.5625" font-size="25" fill="#FFFFFF"/><text text-anchor="middle" pointer-events="none" font-family="sans-serif" dy="1.5625" font-size="25" fill="#FFFFFF"/><text text-anchor="middle" pointer-events="none" x="0" y="0" font-size="10px" fill="#FFFFFF" font-family="sans-serif"> Keanu</text><text text-anchor="middle" pointer-events="none" x="0" y="10" font-size="10px" fill="#FFFFFF" font-family="sans-serif"> Reeves</text></g><g class="node" transform="translate(-34.624289087178454,36.745346381774745)"><circle class="outline" cx="0" cy="0" r="25" fill="#57C7E3" stroke="#23b3d7" stroke-width="2px"/><text text-anchor="middle" pointer-events="none" font-family="sans-serif" dy="1.5625" font-size="25" fill="#2A2C34"/><text text-anchor="middle" pointer-events="none" font-family="sans-serif" dy="1.5625" font-size="25" fill="#2A2C34"/><text text-anchor="middle" pointer-events="none" font-family="sans-serif" dy="1.5625" font-size="25" fill="#2A2C34"/><text text-anchor="middle" pointer-events="none" x="0" y="-5" font-size="10px" fill="#2A2C34" font-family="sans-serif"> The</text><text text-anchor="middle" pointer-events="none" x="0" y="5" font-size="10px" fill="#2A2C34" font-family="sans-serif"> Matrix</text><text text-anchor="middle" pointer-events="none" x="0" y="15" font-size="10px" fill="#2A2C34" font-family="sans-serif"> Revol…</text></g><g class="node" transform="translate(-38.684275503270435,96.5960262018576)"><circle class="outline" cx="0" cy="0" r="25" fill="#57C7E3" stroke="#23b3d7" stroke-width="2px"/><text text-anchor="middle" pointer-events="none" font-family="sans-serif" dy="1.5625" font-size="25" fill="#2A2C34"/><text text-anchor="middle" pointer-events="none" font-family="sans-serif" dy="1.5625" font-size="25" fill="#2A2C34"/><text text-anchor="middle" pointer-events="none" font-family="sans-serif" dy="1.5625" font-size="25" fill="#2A2C34"/><text text-anchor="middle" pointer-events="none" x="0" y="-5" font-size="10px" fill="#2A2C34" font-family="sans-serif"> The</text><text text-anchor="middle" pointer-events="none" x="0" y="5" font-size="10px" fill="#2A2C34" font-family="sans-serif"> Matrix</text><text text-anchor="middle" pointer-events="none" x="0" y="15" font-size="10px" fill="#2A2C34" font-family="sans-serif"> Reloa…</text></g><g class="node" transform="translate(-34.50576932739517,156.43831015938375)"><circle class="outline" cx="0" cy="0" r="25" fill="#57C7E3" stroke="#23b3d7" stroke-width="2px"/><text text-anchor="middle" pointer-events="none" font-family="sans-serif" dy="1.5625" font-size="25" fill="#2A2C34"/><text text-anchor="middle" pointer-events="none" font-family="sans-serif" dy="1.5625" font-size="25" fill="#2A2C34"/><text text-anchor="middle" pointer-events="none" x="0" y="0" font-size="10px" fill="#2A2C34" font-family="sans-serif"> The</text><text text-anchor="middle" pointer-events="none" x="0" y="10" font-size="10px" fill="#2A2C34" font-family="sans-serif"> Matrix</text></g></g></svg>