<svg xmlns="http://www.w3.org/2000/svg" width="285.5677490234375" height="265.7344970703125" viewBox="-31.788211822509766 -40.49958801269531 285.5677490234375 265.7344970703125"><title>Neo4j Graph Visualization</title><desc>Created using Neo4j (http://www.neo4j.com/)</desc><g class="layer relationships"><g class="relationship" transform="translate(162.03954605830984 196.23492892100683) rotate(243.8927569024362)"><path class="outline" fill="#A5ABB6" stroke="none" d="M 25 0.5 L 30.76437723808734 0.5 L 30.76437723808734 -0.5 L 25 -0.5 Z M 77.59770929985493 0.5 L 83.36208653794226 0.5 L 83.36208653794226 3.5 L 90.36208653794226 0 L 83.36208653794226 -3.5 L 83.36208653794226 -0.5 L 77.59770929985493 -0.5 Z"/><text text-anchor="middle" pointer-events="none" font-size="8px" fill="#000000" x="54.18104326897113" y="3" transform="rotate(180 54.18104326897113 0)" font-family="sans-serif">DIRECTED</text></g><g class="relationship" transform="translate(224.77955256646675 91.7434146107826) rotate(539.5459072365734)"><path class="outline" fill="#A5ABB6" stroke="none" d="M 25 0.5 L 30.571151565858216 0.5 L 30.571151565858216 -0.5 L 25 -0.5 Z M 75.93781645233283 0.5 L 81.50896801819104 0.5 L 81.50896801819104 3.5 L 88.50896801819104 0 L 81.50896801819104 -3.5 L 81.50896801819104 -0.5 L 75.93781645233283 -0.5 Z"/><text text-anchor="middle" pointer-events="none" font-size="8px" fill="#000000" x="53.25448400909552" y="3" transform="rotate(180 53.25448400909552 0)" font-family="sans-serif">ACTED_IN</text></g><g class="relationship" transform="translate(156.40028844515552 -11.49958605689135) rotate(473.4276183992952)"><path class="outline" fill="#A5ABB6" stroke="none" d="M 25 0.5 L 35.39122344169332 0.5 L 35.39122344169332 -0.5 L 25 -0.5 Z M 71.10789061698628 0.5 L 81.49911405867961 0.5 L 81.49911405867961 3.5 L 88.49911405867961 0 L 81.49911405867961 -3.5 L 81.49911405867961 -0.5 L 71.10789061698628 -0.5 Z"/><text text-anchor="middle" pointer-events="none" font-size="8px" fill="#000000" x="53.249557029339805" y="3" transform="rotate(180 53.249557029339805 0)" font-family="sans-serif">WROTE</text></g><g class="relationship" transform="translate(35.70987533004852 5.494783709003411) rotate(409.0721744602126)"><path class="outline" fill="#A5ABB6" stroke="none" d="M 25 0.5 L 31.48982637103945 0.5 L 31.48982637103945 -0.5 L 25 -0.5 Z M 76.85649125751405 0.5 L 83.3463176285535 0.5 L 83.3463176285535 3.5 L 90.3463176285535 0 L 83.3463176285535 -3.5 L 83.3463176285535 -0.5 L 76.85649125751405 -0.5 Z"/><text text-anchor="middle" pointer-events="none" font-size="8px" fill="#000000" x="54.17315881427675" y="3" font-family="sans-serif">ACTED_IN</text></g><g class="relationship" transform="translate(-2.788210819606233 106.16267525209955) rotate(353.2403429853249)"><path class="outline" fill="#A5ABB6" stroke="none" d="M 25 0.5 L 36.072066350143594 0.5 L 36.072066350143594 -0.5 L 25 -0.5 Z M 71.78873352543656 0.5 L 82.86079987558016 0.5 L 82.86079987558016 3.5 L 89.86079987558016 0 L 82.86079987558016 -3.5 L 82.86079987558016 -0.5 L 71.78873352543656 -0.5 Z"/><text text-anchor="middle" pointer-events="none" font-size="8px" fill="#000000" x="53.93039993779008" y="3" font-family="sans-serif">WROTE</text></g><g class="relationship" transform="translate(54.3224027039176 192.40023706817135) rotate(299.72219589199875)"><path class="outline" fill="#A5ABB6" stroke="none" d="M 25 0.5 L 31.251425450156688 0.5 L 31.251425450156688 -0.5 L 25 -0.5 Z M 76.6180903366313 0.5 L 82.86951578678799 0.5 L 82.86951578678799 3.5 L 89.86951578678799 0 L 82.86951578678799 -3.5 L 82.86951578678799 -0.5 L 76.6180903366313 -0.5 Z"/><text text-anchor="middle" pointer-events="none" font-size="8px" fill="#000000" x="53.93475789339399" y="3" font-family="sans-serif">ACTED_IN</text></g></g><g class="layer nodes"><g class="node" transform="translate(111.27414940273088,92.64301073821898)"><circle class="outline" cx="0" cy="0" r="25" fill="#57C7E3" stroke="#23b3d7" stroke-width="2px"/><text text-anchor="middle" pointer-events="none" font-family="sans-serif" dy="1.5625" font-size="25" fill="#2A2C34"/><text text-anchor="middle" pointer-events="none" font-family="sans-serif" dy="1.5625" font-size="25" fill="#2A2C34"/><text text-anchor="middle" pointer-events="none" x="0" y="0" font-size="10px" fill="#2A2C34" font-family="sans-serif"> Captain</text><text text-anchor="middle" pointer-events="none" x="0" y="10" font-size="10px" fill="#2A2C34" font-family="sans-serif"> Americ…</text></g><g class="node" transform="translate(162.03954605830984,196.23492892100683)"><circle class="outline" cx="0" cy="0" r="25" fill="#F79767" stroke="#f36924" stroke-width="2px"/><text text-anchor="middle" pointer-events="none" font-family="sans-serif" dy="1.5625" font-size="25" fill="#FFFFFF"/><text text-anchor="middle" pointer-events="none" font-family="sans-serif" dy="1.5625" font-size="25" fill="#FFFFFF"/><text text-anchor="middle" pointer-events="none" x="0" y="0" font-size="10px" fill="#FFFFFF" font-family="sans-serif"> Joe</text><text text-anchor="middle" pointer-events="none" x="0" y="10" font-size="10px" fill="#FFFFFF" font-family="sans-serif"> Johnst…</text></g><g class="node" transform="translate(224.77955256646675,91.7434146107826)"><circle class="outline" cx="0" cy="0" r="25" fill="#F79767" stroke="#f36924" stroke-width="2px"/><text text-anchor="middle" pointer-events="none" font-family="sans-serif" dy="1.5625" font-size="25" fill="#FFFFFF"/><text text-anchor="middle" pointer-events="none" font-family="sans-serif" dy="1.5625" font-size="25" fill="#FFFFFF"/><text text-anchor="middle" pointer-events="none" x="0" y="0" font-size="10px" fill="#FFFFFF" font-family="sans-serif"> Chris</text><text text-anchor="middle" pointer-events="none" x="0" y="10" font-size="10px" fill="#FFFFFF" font-family="sans-serif"> Evans</text></g><g class="node" transform="translate(156.40028844515552,-11.49958605689135)"><circle class="outline" cx="0" cy="0" r="25" fill="#F79767" stroke="#f36924" stroke-width="2px"/><text text-anchor="middle" pointer-events="none" font-family="sans-serif" dy="1.5625" font-size="25" fill="#FFFFFF"/><text text-anchor="middle" pointer-events="none" x="0" y="5" font-size="10px" fill="#FFFFFF" font-family="sans-serif"> Christo…</text></g><g class="node" transform="translate(35.70987533004852,5.494783709003411)"><circle class="outline" cx="0" cy="0" r="25" fill="#F79767" stroke="#f36924" stroke-width="2px"/><text text-anchor="middle" pointer-events="none" font-family="sans-serif" dy="1.5625" font-size="25" fill="#FFFFFF"/><text text-anchor="middle" pointer-events="none" font-family="sans-serif" dy="1.5625" font-size="25" fill="#FFFFFF"/><text text-anchor="middle" pointer-events="none" x="0" y="0" font-size="10px" fill="#FFFFFF" font-family="sans-serif"> Samuel</text><text text-anchor="middle" pointer-events="none" x="0" y="10" font-size="10px" fill="#FFFFFF" font-family="sans-serif"> L. Jack…</text></g><g class="node" transform="translate(-2.788210819606233,106.16267525209955)"><circle class="outline" cx="0" cy="0" r="25" fill="#F79767" stroke="#f36924" stroke-width="2px"/><text text-anchor="middle" pointer-events="none" font-family="sans-serif" dy="1.5625" font-size="25" fill="#FFFFFF"/><text text-anchor="middle" pointer-events="none" font-family="sans-serif" dy="1.5625" font-size="25" fill="#FFFFFF"/><text text-anchor="middle" pointer-events="none" x="0" y="0" font-size="10px" fill="#FFFFFF" font-family="sans-serif"> Stephen</text><text text-anchor="middle" pointer-events="none" x="0" y="10" font-size="10px" fill="#FFFFFF" font-family="sans-serif"> McFeely</text></g><g class="node" transform="translate(54.3224027039176,192.40023706817135)"><circle class="outline" cx="0" cy="0" r="25" fill="#F79767" stroke="#f36924" stroke-width="2px"/><text text-anchor="middle" pointer-events="none" font-family="sans-serif" dy="1.5625" font-size="25" fill="#FFFFFF"/><text text-anchor="middle" pointer-events="none" font-family="sans-serif" dy="1.5625" font-size="25" fill="#FFFFFF"/><text text-anchor="middle" pointer-events="none" x="0" y="0" font-size="10px" fill="#FFFFFF" font-family="sans-serif"> Hugo</text><text text-anchor="middle" pointer-events="none" x="0" y="10" font-size="10px" fill="#FFFFFF" font-family="sans-serif"> Weavi…</text></g></g></svg>