<svg xmlns="http://www.w3.org/2000/svg" width="237.7628173828125" height="246.55291748046875" viewBox="-9.647823333740234 -11.184747695922852 237.7628173828125 246.55291748046875"><title>Neo4j Graph Visualization</title><desc>Created using Neo4j (http://www.neo4j.com/)</desc><g class="layer relationships"><g class="relationship" transform="translate(125.31722206448086 126.73181736907287) rotate(407.60653002493734)"><path class="outline" fill="#A5ABB6" stroke="none" d="M 25 0.5 L 27.731957445575723 0.5 L 27.731957445575723 -0.5 L 25 -0.5 Z M 73.09862233205033 0.5 L 75.83057977762606 0.5 L 75.83057977762606 3.5 L 82.83057977762606 0 L 75.83057977762606 -3.5 L 75.83057977762606 -0.5 L 73.09862233205033 -0.5 Z"/><text text-anchor="middle" pointer-events="none" font-size="8px" fill="#000000" x="50.41528988881303" y="3" font-family="sans-serif">ACTED_IN</text></g><g class="relationship" transform="translate(125.31722206448086 126.73181736907287) rotate(310.79576194653856)"><path class="outline" fill="#A5ABB6" stroke="none" d="M 25 0.5 L 30.291840468781338 0.5 L 30.291840468781338 -0.5 L 25 -0.5 Z M 75.65850535525595 0.5 L 80.95034582403729 0.5 L 80.95034582403729 3.5 L 87.95034582403729 0 L 80.95034582403729 -3.5 L 80.95034582403729 -0.5 L 75.65850535525595 -0.5 Z"/><text text-anchor="middle" pointer-events="none" font-size="8px" fill="#000000" x="52.97517291201864" y="3" font-family="sans-serif">ACTED_IN</text></g><g class="relationship" transform="translate(125.31722206448086 126.73181736907287) rotate(254.0764578943091)"><path class="outline" fill="#A5ABB6" stroke="none" d="M 25 0.5 L 30.447968460834346 0.5 L 30.447968460834346 -0.5 L 25 -0.5 Z M 75.81463334730896 0.5 L 81.2626018081433 0.5 L 81.2626018081433 3.5 L 88.2626018081433 0 L 81.2626018081433 -3.5 L 81.2626018081433 -0.5 L 75.81463334730896 -0.5 Z"/><text text-anchor="middle" pointer-events="none" font-size="8px" fill="#000000" x="53.13130090407165" y="3" transform="rotate(180 53.13130090407165 0)" font-family="sans-serif">ACTED_IN</text></g><g class="relationship" transform="translate(125.31722206448086 126.73181736907287) rotate(200.68537449641076)"><path class="outline" fill="#A5ABB6" stroke="none" d="M 25 0.5 L 30.450108979784048 0.5 L 30.450108979784048 -0.5 L 25 -0.5 Z M 75.81677386625866 0.5 L 81.2668828460427 0.5 L 81.2668828460427 3.5 L 88.2668828460427 0 L 81.2668828460427 -3.5 L 81.2668828460427 -0.5 L 75.81677386625866 -0.5 Z"/><text text-anchor="middle" pointer-events="none" font-size="8px" fill="#000000" x="53.13344142302135" y="3" transform="rotate(180 53.13344142302135 0)" font-family="sans-serif">ACTED_IN</text></g><g class="relationship" transform="translate(125.31722206448086 126.73181736907287) rotate(504.03251386246006)"><path class="outline" fill="#A5ABB6" stroke="none" d="M 25 0.5 L 30.304371293641417 0.5 L 30.304371293641417 -0.5 L 25 -0.5 Z M 75.67103618011603 0.5 L 80.97540747375744 0.5 L 80.97540747375744 3.5 L 87.97540747375744 0 L 80.97540747375744 -3.5 L 80.97540747375744 -0.5 L 75.67103618011603 -0.5 Z"/><text text-anchor="middle" pointer-events="none" font-size="8px" fill="#000000" x="52.98770373687872" y="3" transform="rotate(180 52.98770373687872 0)" font-family="sans-serif">ACTED_IN</text></g></g><g class="layer nodes"><g class="node" transform="translate(125.31722206448086,126.73181736907287)"><circle class="outline" cx="0" cy="0" r="25" fill="#F79767" stroke="#f36924" stroke-width="2px"/><text text-anchor="middle" pointer-events="none" font-family="sans-serif" dy="1.5625" font-size="25" fill="#FFFFFF"/><text text-anchor="middle" pointer-events="none" font-family="sans-serif" dy="1.5625" font-size="25" fill="#FFFFFF"/><text text-anchor="middle" pointer-events="none" x="0" y="0" font-size="10px" fill="#FFFFFF" font-family="sans-serif"> Hugo</text><text text-anchor="middle" pointer-events="none" x="0" y="10" font-size="10px" fill="#FFFFFF" font-family="sans-serif"> Weavi…</text></g><g class="node" transform="translate(198.01856374533887,206.36817120940208)"><circle class="outline" cx="0" cy="0" r="25" fill="#57C7E3" stroke="#23b3d7" stroke-width="2px"/><text text-anchor="middle" pointer-events="none" font-family="sans-serif" dy="1.5625" font-size="25" fill="#2A2C34"/><text text-anchor="middle" pointer-events="none" font-family="sans-serif" dy="1.5625" font-size="25" fill="#2A2C34"/><text text-anchor="middle" pointer-events="none" x="0" y="0" font-size="10px" fill="#2A2C34" font-family="sans-serif"> Cloud</text><text text-anchor="middle" pointer-events="none" x="0" y="10" font-size="10px" fill="#2A2C34" font-family="sans-serif"> Atlas</text></g><g class="node" transform="translate(199.11498057789555,41.22350514058046)"><circle class="outline" cx="0" cy="0" r="25" fill="#57C7E3" stroke="#23b3d7" stroke-width="2px"/><text text-anchor="middle" pointer-events="none" font-family="sans-serif" dy="1.5625" font-size="25" fill="#2A2C34"/><text text-anchor="middle" pointer-events="none" font-family="sans-serif" dy="1.5625" font-size="25" fill="#2A2C34"/><text text-anchor="middle" pointer-events="none" x="0" y="0" font-size="10px" fill="#2A2C34" font-family="sans-serif"> V for</text><text text-anchor="middle" pointer-events="none" x="0" y="10" font-size="10px" fill="#2A2C34" font-family="sans-serif"> Vendet…</text></g><g class="node" transform="translate(94.24313311587878,17.81525313587465)"><circle class="outline" cx="0" cy="0" r="25" fill="#57C7E3" stroke="#23b3d7" stroke-width="2px"/><text text-anchor="middle" pointer-events="none" font-family="sans-serif" dy="1.5625" font-size="25" fill="#2A2C34"/><text text-anchor="middle" pointer-events="none" font-family="sans-serif" dy="1.5625" font-size="25" fill="#2A2C34"/><text text-anchor="middle" pointer-events="none" font-family="sans-serif" dy="1.5625" font-size="25" fill="#2A2C34"/><text text-anchor="middle" pointer-events="none" x="0" y="-5" font-size="10px" fill="#2A2C34" font-family="sans-serif"> The</text><text text-anchor="middle" pointer-events="none" x="0" y="5" font-size="10px" fill="#2A2C34" font-family="sans-serif"> Matrix</text><text text-anchor="middle" pointer-events="none" x="0" y="15" font-size="10px" fill="#2A2C34" font-family="sans-serif"> Revol…</text></g><g class="node" transform="translate(19.352176096695715,86.72187132181674)"><circle class="outline" cx="0" cy="0" r="25" fill="#57C7E3" stroke="#23b3d7" stroke-width="2px"/><text text-anchor="middle" pointer-events="none" font-family="sans-serif" dy="1.5625" font-size="25" fill="#2A2C34"/><text text-anchor="middle" pointer-events="none" font-family="sans-serif" dy="1.5625" font-size="25" fill="#2A2C34"/><text text-anchor="middle" pointer-events="none" font-family="sans-serif" dy="1.5625" font-size="25" fill="#2A2C34"/><text text-anchor="middle" pointer-events="none" x="0" y="-5" font-size="10px" fill="#2A2C34" font-family="sans-serif"> The</text><text text-anchor="middle" pointer-events="none" x="0" y="5" font-size="10px" fill="#2A2C34" font-family="sans-serif"> Matrix</text><text text-anchor="middle" pointer-events="none" x="0" y="15" font-size="10px" fill="#2A2C34" font-family="sans-serif"> Reloa…</text></g><g class="node" transform="translate(33.88052892447148,193.08521849879108)"><circle class="outline" cx="0" cy="0" r="25" fill="#57C7E3" stroke="#23b3d7" stroke-width="2px"/><text text-anchor="middle" pointer-events="none" font-family="sans-serif" dy="1.5625" font-size="25" fill="#2A2C34"/><text text-anchor="middle" pointer-events="none" font-family="sans-serif" dy="1.5625" font-size="25" fill="#2A2C34"/><text text-anchor="middle" pointer-events="none" x="0" y="0" font-size="10px" fill="#2A2C34" font-family="sans-serif"> The</text><text text-anchor="middle" pointer-events="none" x="0" y="10" font-size="10px" fill="#2A2C34" font-family="sans-serif"> Matrix</text></g></g></svg>